SplineFontDB: 3.2
FontName: WTHandwrite
FullName: WTHandwrite
FamilyName: WTHandwrite
Weight: Regular
Copyright: Copyright (c) 2025, User
UComments: "2025-8-13: Created with FontForge (http://fontforge.org)"
Version: 001.000
ItalicAngle: 0
UnderlinePosition: -26
UnderlineWidth: 13
Ascent: 205
Descent: 51
InvalidEm: 0
LayerCount: 2
Layer: 0 0 "Back" 1
Layer: 1 0 "Fore" 0
XUID: [1021 318 329363189 2877]
OS2Version: 0
OS2_WeightWidthSlopeOnly: 0
OS2_UseTypoMetrics: 1
CreationTime: 1755060739
ModificationTime: 1755068335
OS2TypoAscent: 0
OS2TypoAOffset: 1
OS2TypoDescent: 0
OS2TypoDOffset: 1
OS2TypoLinegap: 0
OS2WinAscent: 0
OS2WinAOffset: 1
OS2WinDescent: 0
OS2WinDOffset: 1
HheadAscent: 0
HheadAOffset: 1
HheadDescent: 0
HheadDOffset: 1
OS2Vendor: 'PfEd'
MarkAttachClasses: 1
DEI: 91125
Encoding: Mac
UnicodeInterp: none
NameList: AGL For New Fonts
DisplaySize: -48
AntiAlias: 1
FitToEm: 0
WidthSeparation: 38
WinInfo: 0 38 13
BeginPrivate: 0
EndPrivate
BeginChars: 258 204

StartChar: a
Encoding: 97 97 0
Width: 103
Flags: HW
LayerCount: 2
Fore
SplineSet
46.8603515625 72.509765625 m 0
 32.3037109375 72.509765625 27.1669921875 52.4697265625 27.01171875 42.505859375 c 0
 27.6083984375 39.2900390625 27.849609375 35.9853515625 28.103515625 32.732421875 c 0
 29.5205078125 14.57421875 32.490234375 9.9326171875 44.3564453125 9.9326171875 c 0
 54.0439453125 9.9326171875 68.2294921875 13.7880859375 72.3017578125 25.775390625 c 0
 72.71484375 26.9892578125 72.71484375 26.9892578125 76.037109375 30.30859375 c 0
 76.2421875 40.0322265625 76.3056640625 43.0673828125 76.3056640625 47.9912109375 c 0
 76.3056640625 63.15625 75.7509765625 63.9462890625 73.5244140625 66.171875 c 0
 69.732421875 69.96484375 66.1357421875 70.369140625 47.1328125 72.5078125 c 0
 47.041015625 72.509765625 46.9501953125 72.509765625 46.8603515625 72.509765625 c 0
51.072265625 128.692382812 m 0
 33.482421875 128.692382812 16.6806640625 116.495117188 11.5009765625 116.495117188 c 0
 8.46484375 116.495117188 6 118.959960938 6 121.99609375 c 0
 6 124.305664062 7.4267578125 126.28515625 9.447265625 127.099609375 c 0
 12.3837890625 128.284179688 15.2158203125 129.52734375 18.0263671875 130.760742188 c 0
 28.0966796875 135.182617188 38.236328125 139.685546875 51.154296875 139.685546875 c 0
 57.16015625 139.685546875 65.3203125 137.6796875 73.5390625 129.4609375 c 0
 86.2490234375 116.750976562 88.4111328125 97.3212890625 88.4111328125 78.02734375 c 0
 88.4111328125 67.6318359375 87.7509765625 56.0107421875 87.7509765625 44.9443359375 c 0
 87.7509765625 41.5830078125 87.8134765625 38.3388671875 87.9775390625 35.2587890625 c 0
 91.0234375 35.1943359375 93.1015625 32.2119140625 93.1015625 30.498046875 c 0
 93.1015625 30.3173828125 93.080078125 30.216796875 93.080078125 30.216796875 c 2
 93.103515625 29.9404296875 93.1123046875 29.7294921875 93.1123046875 29.560546875 c 0
 93.1123046875 29.099609375 88.8134765625 6.6474609375 85.54296875 3.376953125 c 0
 85.2451171875 3.0791015625 83.4150390625 1.8076171875 81.2822265625 1.8076171875 c 0
 78.0478515625 1.8076171875 76.013671875 4.9150390625 76.013671875 6.634765625 c 0
 76.013671875 6.802734375 76.0322265625 6.89453125 76.0322265625 6.89453125 c 2
 76.001953125 7.197265625 75.9921875 7.4384765625 75.9921875 7.65234375 c 0
 75.9921875 7.8017578125 75.9970703125 7.9365234375 76.00390625 8.0693359375 c 0
 75.9716796875 9.060546875 75.9453125 10.05078125 75.92578125 11.0400390625 c 1
 68.0419921875 2.7509765625 56.154296875 -1.099609375 44.7158203125 -1.099609375 c 0
 19.712890625 -1.099609375 18.236328125 17.8125 17.1396484375 31.87109375 c 0
 16.6171875 38.5576171875 16.009765625 41.9033203125 16.009765625 42.005859375 c 0
 16.029296875 61.66015625 26.8037109375 83.5078125 46.900390625 83.5078125 c 0
 47.2109375 83.5078125 67.853515625 83.08203125 77.2802734375 77.146484375 c 1
 77.0576171875 106.000976562 71.9990234375 122.559570312 54.404296875 128.5703125 c 0
 53.2666015625 128.65234375 52.1572265625 128.692382812 51.072265625 128.692382812 c 0
EndSplineSet
EndChar

StartChar: g
Encoding: 103 103 1
Width: 105
Flags: HW
LayerCount: 2
Fore
SplineSet
73.54296875 134.999023438 m 0
 73.54296875 138.020507812 75.9990234375 140.49609375 79.0517578125 140.49609375 c 0
 81.2421875 140.49609375 83.2451171875 139.184570312 84.1064453125 137.140625 c 0
 88.81640625 125.966796875 89.5517578125 110.862304688 89.5517578125 98.1279296875 c 0
 89.5517578125 92.28515625 89.232421875 94.509765625 89.1357421875 80.05078125 c 0
 89.109375 76.0390625 89.1201171875 71.6708984375 89.005859375 67.1513671875 c 0
 89.3310546875 59.2099609375 89.5302734375 51.1806640625 89.5380859375 43 c 0
 89.5380859375 42.796875 88.55859375 39.861328125 88.2783203125 22.7001953125 c 0
 87.890625 -1.080078125 87.376953125 -32.5478515625 55.0283203125 -32.5478515625 c 0
 52.330078125 -32.5478515625 51.4384765625 -32.4296875 50.2822265625 -31.7646484375 c 2
 17.29296875 -12.7666015625 l 2
 15.642578125 -11.81640625 14.5302734375 -10.03515625 14.5302734375 -7.99609375 c 0
 14.5302734375 -4.9599609375 16.99609375 -2.4951171875 20.0322265625 -2.4951171875 c 0
 23.16015625 -2.4951171875 53.2919921875 -21.5546875 55.193359375 -21.5546875 c 0
 74.2685546875 -21.5546875 76.8173828125 -5.8818359375 77.30078125 24.0791015625 c 1
 75.0234375 21.4931640625 68.314453125 14.490234375 54.8408203125 14.490234375 c 0
 49.599609375 14.490234375 10 28.4189453125 10 62.5546875 c 0
 10 64.73046875 10.166015625 66.9658203125 10.51171875 69.2578125 c 0
 10.41796875 70.8212890625 10.3701171875 72.423828125 10.3701171875 74.0576171875 c 0
 10.3701171875 103.11328125 25.0888671875 136.109375 54.3955078125 139.46484375 c 0
 54.6064453125 139.48828125 54.8173828125 139.500976562 55.0283203125 139.500976562 c 0
 55.232421875 139.500976562 67.4638671875 136.879882812 73.462890625 130.881835938 c 1
 73.4599609375 130.922851562 73.54296875 133.291015625 73.54296875 134.999023438 c 0
54.4208984375 128.368164062 m 0
 30.7421875 124.678710938 21.37890625 94.0576171875 21.37890625 73.7529296875 c 0
 21.37890625 70.9951171875 21.5380859375 69.470703125 21.5380859375 68.9970703125 c 0
 21.5380859375 67.9580078125 20.9814453125 65.9990234375 20.9814453125 62.384765625 c 0
 20.9814453125 42.4775390625 39.7763671875 30.6455078125 54.9677734375 25.48828125 c 1
 70.0087890625 25.51171875 76.7509765625 36.8642578125 77.9208984375 68.939453125 c 0
 77.537109375 77.64453125 77.28125 83.4609375 74.9287109375 115.321289062 c 1
 74.0888671875 114.801757812 73.0986328125 114.500976562 72.0390625 114.500976562 c 0
 69.00390625 114.500976562 66.5400390625 116.96484375 66.5400390625 120 c 2
 66.5400390625 121.704101562 l 2
 66.1572265625 124.19140625 59.6513671875 126.506835938 54.4208984375 128.368164062 c 0
EndSplineSet
EndChar

StartChar: e
Encoding: 101 101 2
Width: 118
Flags: HW
LayerCount: 2
Fore
SplineSet
60.044921875 76.9931640625 m 0
 53.6015625 76.9931640625 47.177734375 76.658203125 40.9541015625 76.658203125 c 0
 34.8759765625 76.658203125 28.6767578125 76.9716796875 22.3671875 78.2255859375 c 1
 27.43359375 39.7578125 30.107421875 19.458984375 42.75390625 6.8125 c 0
 47.787109375 1.779296875 54.150390625 -1.3212890625 63.3017578125 -1.4951171875 c 0
 73.640625 0.130859375 79.5419921875 11.53515625 87.7529296875 16.66796875 c 0
 105.083984375 27.4990234375 105.083984375 27.4990234375 106.661132812 27.4990234375 c 0
 109.697265625 27.4990234375 112.162109375 25.0341796875 112.162109375 21.998046875 c 0
 112.162109375 20.0302734375 111.126953125 18.3017578125 109.577148438 17.333984375 c 0
 91.7314453125 6.1796875 91.7314453125 6.1796875 85.12890625 -0.421875 c 0
 79.0498046875 -6.501953125 71.1396484375 -12.5048828125 63.61328125 -12.4990234375 c 0
 22.3349609375 -12.115234375 16.69921875 34.08203125 12.5419921875 68.1640625 c 0
 10 88.9970703125 10 88.9970703125 10 89.279296875 c 0
 10 121.165039062 49.2451171875 133.28515625 65.19140625 133.28515625 c 0
 86.671875 133.28515625 102.237304688 116.28515625 102.237304688 95.0654296875 c 0
 102.237304688 93.7607421875 102.130859375 82.908203125 98.615234375 79.392578125 c 0
 96.099609375 76.876953125 93.0302734375 76.4423828125 89.8603515625 76.4423828125 c 0
 85.083984375 76.4423828125 79.146484375 77.9111328125 75.5224609375 77.9111328125 c 0
 75.1025390625 77.9111328125 74.046875 76.5009765625 71.658203125 76.5009765625 c 0
 70.810546875 76.5009765625 67.677734375 76.9931640625 60.044921875 76.9931640625 c 0
69.8681640625 87.669921875 m 0
 71.7900390625 88.7861328125 73.7744140625 88.921875 75.7919921875 88.921875 c 0
 80.427734375 88.921875 84.4443359375 87.6220703125 90.37109375 87.525390625 c 0
 90.9638671875 90.1123046875 91.2431640625 92.6435546875 91.2431640625 95.0859375 c 0
 91.2431640625 110.005859375 80.72265625 122.3046875 65.30859375 122.3046875 c 0
 55.0849609375 122.3046875 21.037109375 113.681640625 20.990234375 89.4609375 c 1
 21.2080078125 89.4873046875 21.4296875 89.5009765625 21.6552734375 89.5009765625 c 0
 23.701171875 89.5009765625 27.1748046875 87.669921875 41.2158203125 87.669921875 c 0
 41.2880859375 87.669921875 59.8779296875 87.9951171875 60.06640625 87.9951171875 c 0
 63.267578125 87.9951171875 66.5341796875 87.9140625 69.8681640625 87.669921875 c 0
EndSplineSet
EndChar

StartChar: grave
Encoding: 96 96 3
Width: 70
Flags: HW
LayerCount: 2
Fore
SplineSet
12 184.997070312 m 0
 12 188.033203125 14.46484375 190.498046875 17.5009765625 190.498046875 c 0
 18.9951171875 190.498046875 18.9951171875 190.498046875 49.27734375 172.747070312 c 0
 49.4228515625 172.661132812 58.998046875 162.806640625 58.998046875 159 c 0
 58.998046875 155.963867188 56.533203125 153.499023438 53.498046875 153.499023438 c 0
 50.806640625 153.499023438 50.806640625 153.499023438 42.8046875 163.788085938 c 1
 14.7158203125 180.252929688 l 2
 13.095703125 181.203125 12 182.973632812 12 184.997070312 c 0
EndSplineSet
EndChar

StartChar: nine
Encoding: 57 57 4
Width: 137
Flags: HW
LayerCount: 2
Fore
SplineSet
84.7529296875 91.51953125 m 0
 96.083984375 92.248046875 105.171875 101.903320312 117.83984375 106.872070312 c 1
 116.48046875 124.033203125 110.076171875 141.009765625 99.1552734375 151.931640625 c 0
 91.2568359375 159.829101562 81.0791015625 164.771484375 68.1181640625 164.771484375 c 0
 65.5791015625 164.771484375 62.5517578125 164.500976562 62.49609375 164.500976562 c 0
 60.982421875 164.500976562 57.9306640625 165.720703125 53.5283203125 165.720703125 c 0
 40.3642578125 165.720703125 36.619140625 153.2421875 35.6328125 124.129882812 c 0
 35.205078125 111.514648438 34.08984375 104.577148438 34.08984375 104.37890625 c 0
 34.08984375 95.8046875 38.900390625 91.8056640625 61.091796875 91.8056640625 c 0
 62.00390625 91.8056640625 75.287109375 92.0439453125 75.4306640625 92.0439453125 c 0
 78.68359375 92.0439453125 81.8203125 91.923828125 84.7529296875 91.51953125 c 0
128.438476562 75.2314453125 m 0
 128.438476562 58.7578125 124.778320312 -9.8154296875 63.8486328125 -9.8154296875 c 0
 41.9775390625 -9.8154296875 20.6396484375 -0.4189453125 5.681640625 14.0361328125 c 0
 4.609375 15.072265625 4 16.5087890625 4 18 c 2
 4 19 l 2
 4 22.03515625 6.4638671875 24.4990234375 9.4990234375 24.4990234375 c 0
 11.9755859375 24.4990234375 14.072265625 22.857421875 14.759765625 20.6044921875 c 0
 27.7138671875 8.78515625 45.8837890625 1.1884765625 63.9609375 1.1884765625 c 0
 80.154296875 1.1884765625 89.71875 6.1533203125 97.1484375 13.5830078125 c 0
 111.540039062 27.974609375 117.415039062 53.7060546875 117.415039062 75.796875 c 0
 117.415039062 81.18359375 117 85.9013671875 117 86.0029296875 c 0
 117 87.052734375 117.631835938 89.5 117.958984375 94.8642578125 c 1
 115.231445312 93.4833984375 112.508789062 91.8359375 109.684570312 90.1123046875 c 0
 103.049804688 86.0615234375 93.9404296875 80.5009765625 84.5048828125 80.5009765625 c 0
 83.3408203125 80.5009765625 82.2216796875 81.0224609375 75.1201171875 81.0224609375 c 0
 73.890625 81.0224609375 57.0498046875 80.65625 56.8671875 80.65625 c 0
 48.9501953125 80.65625 23.142578125 80.65625 23.142578125 104.598632812 c 0
 23.142578125 104.797851562 24.3125 114.807617188 24.640625 124.504882812 c 0
 25.13671875 139.133789062 25.0283203125 158.801757812 36.05078125 169.82421875 c 0
 40.5029296875 174.275390625 46.5078125 176.642578125 53.81640625 176.642578125 c 0
 56.654296875 176.642578125 59.689453125 176.286132812 62.9052734375 175.555664062 c 0
 64.625 175.693359375 66.3154296875 175.760742188 67.9755859375 175.760742188 c 0
 105.151367188 175.760742188 126.791015625 142.224609375 128.961914062 106.2265625 c 0
 129.620117188 105.3203125 130.0078125 104.206054688 130.0078125 103.000976562 c 0
 130.0078125 101.91015625 129.689453125 100.893554688 129.140625 100.038085938 c 0
 129.127929688 95.20703125 128.756835938 90.423828125 128.033203125 85.7822265625 c 0
 128.296875 82.4052734375 128.438476562 78.8701171875 128.438476562 75.2314453125 c 0
EndSplineSet
EndChar

StartChar: eight
Encoding: 56 56 5
Width: 110
Flags: HW
LayerCount: 2
Fore
SplineSet
16.0576171875 48.3603515625 m 0
 18.712890625 16.0458984375 50.5390625 3.4755859375 63.6005859375 3.4755859375 c 0
 79.720703125 3.4755859375 89.7265625 23.5849609375 89.7265625 49.662109375 c 0
 89.7265625 69.8466796875 81.064453125 86.029296875 69.4755859375 101.609375 c 1
 56.7890625 91.2392578125 41.740234375 82.03515625 30.6796875 70.9736328125 c 0
 24.009765625 64.3037109375 18.84765625 57.0634765625 16.0576171875 48.3603515625 c 0
70.931640625 117.6484375 m 1
 79.8916015625 126.5546875 85.8818359375 136.216796875 86.9287109375 149.145507812 c 0
 84.1201171875 157.059570312 85.111328125 175.357421875 81.3662109375 176.9296875 c 0
 80.8271484375 177.155273438 75.005859375 178.91015625 74.185546875 178.91015625 c 0
 68.7607421875 175.076171875 44.4716796875 178.856445312 36.572265625 164.92578125 c 1
 42.8759765625 151.563476562 52.984375 139.299804688 63.5205078125 126.631835938 c 0
 65.9775390625 123.677734375 68.4658203125 120.690429688 70.931640625 117.6484375 c 1
74.2431640625 189.86328125 m 0
 77.8193359375 189.86328125 80.66015625 188.383789062 82.3046875 188.383789062 c 0
 82.3525390625 188.383789062 82.38671875 188.385742188 82.4072265625 188.390625 c 2
 82.4072265625 188.390625 82.412109375 188.392578125 82.419921875 188.392578125 c 0
 82.763671875 188.463867188 83.1279296875 188.500976562 83.5009765625 188.500976562 c 0
 85.6640625 188.500976562 87.5361328125 187.25 88.4345703125 185.432617188 c 0
 98.376953125 177.749023438 94.2548828125 159.806640625 97.5439453125 152.19921875 c 0
 97.84375 151.506835938 97.998046875 150.7578125 97.998046875 150.000976562 c 0
 97.998046875 144.046875 96.224609375 126.8359375 77.7568359375 108.934570312 c 1
 90.3056640625 92.2138671875 100.724609375 73.451171875 100.724609375 49.6552734375 c 0
 100.724609375 12.1708984375 83.4638671875 -7.521484375 63.5546875 -7.521484375 c 0
 44.53125 -7.521484375 7.404296875 9.7490234375 5.0107421875 48.66015625 c 0
 5.00390625 48.7734375 5 48.8876953125 5 49.001953125 c 0
 5 49.349609375 7.009765625 62.8603515625 22.9013671875 78.751953125 c 0
 35.06640625 90.9169921875 49.283203125 99.3017578125 62.7119140625 110.301757812 c 0
 60.21875 113.392578125 57.6513671875 116.485351562 55.0556640625 119.60546875 c 0
 43.953125 132.955078125 32.486328125 146.622070312 25.4560546875 162.795898438 c 0
 25.1513671875 163.495117188 24.9990234375 164.245117188 24.9990234375 164.99609375 c 0
 24.9990234375 167.568359375 28.0390625 172.80859375 31.537109375 176.306640625 c 0
 41.0263671875 185.796875 54.2734375 187.021484375 68.52734375 188.33984375 c 0
 70.46484375 189.495117188 72.4521484375 189.86328125 74.2431640625 189.86328125 c 0
EndSplineSet
EndChar

StartChar: seven
Encoding: 55 55 6
Width: 121
Flags: HW
LayerCount: 2
Fore
SplineSet
17.546875 174.481445312 m 0
 16.115234375 174.481445312 15.4833984375 172.495117188 12.5 172.495117188 c 0
 9.46484375 172.495117188 7 174.959960938 7 177.995117188 c 0
 7 182.559570312 12.845703125 185.390625 17.400390625 185.390625 c 0
 23.6376953125 185.390625 29.1533203125 181.084960938 31.380859375 181.084960938 c 0
 32.9267578125 181.084960938 33.6220703125 184.497070312 37.515625 184.497070312 c 0
 39.8466796875 184.497070312 59.4248046875 179.24609375 94.4384765625 179.24609375 c 0
 102.20703125 179.24609375 108.090820312 179.499023438 108.505859375 179.499023438 c 0
 111.577148438 179.499023438 114.01171875 177 114.01171875 174.000976562 c 0
 114.01171875 173.708984375 113.989257812 173.225585938 113.846679688 172.654296875 c 0
 103.756835938 132.272460938 60.013671875 57.26171875 37.005859375 3.8642578125 c 1
 37.005859375 1 l 2
 37.005859375 -2.03515625 34.5419921875 -4.4990234375 31.5068359375 -4.4990234375 c 0
 28.47265625 -4.4990234375 26.0078125 -2.03515625 26.0078125 1 c 2
 26.0078125 4.9873046875 l 2
 26.0078125 13.943359375 87.3359375 124.666015625 101.163085938 168.307617188 c 1
 98.935546875 168.268554688 96.7109375 168.249023438 94.48828125 168.249023438 c 0
 76.2421875 168.249023438 58.103515625 169.5859375 39.3505859375 173.05078125 c 1
 36.7861328125 170.950195312 34.0859375 170.237304688 31.5537109375 170.237304688 c 0
 25.3701171875 170.237304688 20.0849609375 174.481445312 17.546875 174.481445312 c 0
EndSplineSet
EndChar

StartChar: zero
Encoding: 48 48 7
Width: 119
Flags: HW
LayerCount: 2
Fore
SplineSet
13.0830078125 102.142578125 m 0
 13.0830078125 116.71875 12 117.6953125 12 126.70703125 c 0
 12 160.520507812 29.3662109375 197.081054688 62.46484375 200.469726562 c 0
 62.654296875 200.489257812 62.84375 200.499023438 63.033203125 200.499023438 c 0
 64.201171875 200.499023438 62.4111328125 200.42578125 66.56640625 200.42578125 c 0
 73.1123046875 200.42578125 74.7607421875 199.69140625 76.4931640625 198.279296875 c 0
 102.793945312 195.06640625 104.001953125 167.307617188 105.07421875 142.661132812 c 0
 105.541992188 131.913085938 106.126953125 121.919921875 108.234375 115.813476562 c 0
 108.434570312 115.23046875 108.537109375 114.618164062 108.537109375 114.00390625 c 0
 108.537109375 113.697265625 107.409179688 109.75390625 106.983398438 83.4130859375 c 0
 106.40625 47.62890625 105.749023438 6.8330078125 70.1787109375 -8.0693359375 c 0
 69.1845703125 -8.4853515625 68.482421875 -8.5205078125 66.6201171875 -8.5205078125 c 0
 33.2509765625 -8.5205078125 12.3193359375 23.7138671875 12.3193359375 55.6279296875 c 0
 12.3193359375 57.470703125 12.3896484375 59.3056640625 12.53125 61.1259765625 c 0
 12.4462890625 63.6474609375 12.412109375 66.1748046875 12.412109375 68.7021484375 c 0
 12.412109375 69.142578125 13.0830078125 101.807617188 13.0830078125 102.142578125 c 0
23.32421875 55.7734375 m 0
 23.32421875 31.1474609375 38.6875 2.4765625 66.58984375 2.4765625 c 0
 67.001953125 2.4765625 73.23046875 5.01953125 78.861328125 10.650390625 c 0
 94.45703125 26.24609375 95.53125 55.2880859375 95.9873046875 83.591796875 c 0
 96.15625 94.0830078125 96.3037109375 104.280273438 97.42578125 113.467773438 c 0
 91.4921875 132.676757812 97.2138671875 170.657226562 84.9130859375 182.958007812 c 0
 82.1591796875 185.712890625 78.392578125 187.555664062 72.1171875 187.555664062 c 0
 71.2880859375 187.555664062 70.0595703125 187.500976562 70.0390625 187.500976562 c 0
 69.302734375 187.500976562 67.35546875 187.680664062 65.86328125 189.426757812 c 0
 65.509765625 189.426757812 65.16796875 189.424804688 64.830078125 189.424804688 c 0
 64.2568359375 189.424804688 63.6923828125 189.432617188 63.0927734375 189.474609375 c 0
 35.0712890625 186.216796875 23.021484375 151.874023438 23.021484375 126.315429688 c 0
 23.021484375 118.448242188 24.0859375 116.791992188 24.0859375 102.131835938 c 0
 24.0859375 91.076171875 23.4111328125 79.6904296875 23.4111328125 68.6552734375 c 0
 23.4111328125 63.9443359375 23.5361328125 61.345703125 23.5361328125 60.9990234375 c 0
 23.5361328125 60.4384765625 23.32421875 58.7626953125 23.32421875 55.7734375 c 0
EndSplineSet
EndChar

StartChar: one
Encoding: 49 49 8
Width: 80
Flags: HW
LayerCount: 2
Fore
SplineSet
55.7998046875 165.228515625 m 1
 42.51953125 157.3359375 23.32421875 157.538085938 11.833984375 154.663085938 c 0
 11.8330078125 154.663085938 11.8330078125 154.663085938 11.83203125 154.663085938 c 0
 11.4091796875 154.5546875 10.9609375 154.498046875 10.5 154.498046875 c 0
 7.46484375 154.498046875 5 156.961914062 5 159.998046875 c 0
 5 165.154296875 8.830078125 165.698242188 22.3837890625 167.62109375 c 0
 45.005859375 170.831054688 56.6376953125 174.734375 58.05078125 185.70703125 c 0
 58.404296875 188.456054688 60.7412109375 190.499023438 63.494140625 190.499023438 c 0
 66.544921875 190.499023438 69.0009765625 188.028320312 69.0009765625 185 c 0
 69.0009765625 172.637695312 57.7333984375 112.62109375 57.7333984375 71.8291015625 c 0
 57.7333984375 65.24609375 58.0029296875 60.1162109375 58.0029296875 59.998046875 c 0
 58.0029296875 59.888671875 57.60546875 55.1259765625 57.60546875 49.0595703125 c 0
 57.60546875 35.41015625 59.28515625 22.341796875 59.28515625 7.7578125 c 0
 59.28515625 -2.314453125 59.28515625 -7.4970703125 53.50390625 -7.4970703125 c 0
 50.46875 -7.4970703125 48.0048828125 -5.033203125 48.0048828125 -1.998046875 c 0
 48.0048828125 -1.4853515625 48.28515625 1.9365234375 48.28515625 7.716796875 c 0
 48.28515625 21.927734375 46.6044921875 34.998046875 46.6044921875 49.005859375 c 0
 46.6044921875 52.6142578125 46.7158203125 56.296875 46.99609375 60.0810546875 c 0
 46.81640625 64.0341796875 46.7333984375 67.984375 46.7333984375 71.9306640625 c 0
 46.7333984375 96.939453125 50.06640625 121.7734375 53.3046875 146.059570312 c 0
 54.162109375 152.489257812 55.013671875 158.881835938 55.7998046875 165.228515625 c 1
EndSplineSet
EndChar

StartChar: two
Encoding: 50 50 9
Width: 102
Flags: HW
LayerCount: 2
Fore
SplineSet
44.2783203125 -2.7138671875 m 0
 35.74609375 -4.7880859375 26.17578125 -9.505859375 21.228515625 -9.505859375 c 0
 17.5654296875 -9.505859375 13.9736328125 -7.7451171875 13.9736328125 -0.837890625 c 0
 13.9736328125 57.046875 78.291015625 81.9228515625 79.0068359375 135.072265625 c 0
 79.0078125 135.185546875 79.4873046875 140.904296875 79.4873046875 146.458984375 c 0
 79.4873046875 170.9375 71.5390625 175.516601562 61.6298828125 175.516601562 c 0
 61.1982421875 175.516601562 60.525390625 175.5 60.5146484375 175.5 c 0
 58.8095703125 175.5 56.9072265625 176.666015625 52.1240234375 176.666015625 c 0
 39.41015625 176.666015625 27.1669921875 167.522460938 21.140625 158.047851562 c 0
 20.1162109375 156.4375 18.3408203125 155.501953125 16.4921875 155.501953125 c 0
 16.091796875 155.501953125 16.091796875 155.501953125 14.43359375 155.846679688 c 0
 13.83203125 155.62109375 13.1806640625 155.497070312 12.5 155.497070312 c 0
 9.46484375 155.497070312 7 157.961914062 7 160.997070312 c 0
 7 164.512695312 10.31640625 167.064453125 13.8544921875 167.064453125 c 0
 13.91015625 167.064453125 13.9658203125 167.063476562 14.0205078125 167.0625 c 0
 16.3173828125 170.115234375 30.486328125 187.704101562 51.9580078125 187.704101562 c 0
 54.9912109375 187.704101562 58.0830078125 187.331054688 61.1982421875 186.512695312 c 0
 61.3056640625 186.513671875 61.4130859375 186.514648438 61.51953125 186.514648438 c 0
 73.2509765625 186.514648438 90.689453125 181.0390625 90.689453125 148.482421875 c 0
 90.689453125 108.205078125 79.8671875 93.1240234375 56.1142578125 63.6337890625 c 0
 40.53125 44.287109375 26.3232421875 26.3271484375 25.0625 2.578125 c 1
 25.2353515625 2.6337890625 38.0576171875 7.3759765625 42.3291015625 8.2255859375 c 0
 43.4296875 8.4453125 44.865234375 8.7529296875 46.42578125 8.7529296875 c 0
 47.8154296875 8.7529296875 51.7412109375 8.4091796875 53.9609375 4.732421875 c 0
 55.5908203125 4.7978515625 57.1904296875 4.8369140625 58.78125 4.8369140625 c 0
 64.76953125 4.8369140625 70.6220703125 4.28125 77.470703125 2.4375 c 1
 88.96484375 1.4794921875 l 2
 91.7841796875 1.2451171875 94.001953125 -1.12109375 94.001953125 -4 c 0
 94.001953125 -7.03515625 91.5380859375 -9.4990234375 88.5029296875 -9.4990234375 c 0
 88.3681640625 -9.4990234375 75.94140625 -8.55078125 75.033203125 -8.2998046875 c 0
 69.0966796875 -6.658203125 64.3837890625 -6.1435546875 59.1083984375 -6.1435546875 c 0
 55.310546875 -6.1435546875 49.607421875 -6.5048828125 49.51171875 -6.5048828125 c 0
 47.0634765625 -6.5048828125 45 -4.9130859375 44.2783203125 -2.7138671875 c 0
EndSplineSet
EndChar

StartChar: three
Encoding: 51 51 10
Width: 107
Flags: HW
LayerCount: 2
Fore
SplineSet
35.1416015625 156.096679688 m 0
 30.98828125 156.096679688 22.509765625 140.495117188 14.5009765625 140.495117188 c 0
 11.46484375 140.495117188 9 142.959960938 9 145.99609375 c 0
 9 148.357421875 10.4912109375 150.373046875 12.58203125 151.15234375 c 0
 15.1865234375 152.123046875 17.5546875 154.854492188 19.9287109375 157.591796875 c 0
 23.4404296875 161.642578125 28.091796875 167.0078125 35.47265625 167.0078125 c 0
 36.630859375 167.0078125 37.8427734375 166.865234375 39.10546875 166.548828125 c 0
 40.626953125 166.637695312 42.2470703125 166.688476562 43.9375 166.688476562 c 0
 49.8046875 166.688476562 87.0400390625 165.594726562 87.9912109375 137.873046875 c 0
 88.8564453125 134.890625 89.2578125 131.9140625 89.2578125 128.994140625 c 0
 89.2578125 118.98828125 84.5322265625 109.443359375 77.1962890625 102.498046875 c 1
 92.775390625 95.576171875 101.115234375 75.7119140625 101.115234375 56.5810546875 c 0
 101.115234375 52.08203125 101.115234375 52.08203125 96.583984375 42.7333984375 c 0
 86.8466796875 22.6474609375 73.7021484375 -4.4677734375 50.4345703125 -8.4208984375 c 0
 49.9921875 -8.49609375 49.7626953125 -8.50390625 48.6318359375 -8.50390625 c 0
 27.236328125 -8.50390625 16.228515625 0.193359375 15.24609375 3.38671875 c 2
 11.2529296875 16.3759765625 l 1
 11.2529296875 16.388671875 l 2
 11.095703125 16.900390625 11.0068359375 17.443359375 11.0068359375 18.0068359375 c 0
 11.0068359375 21.0419921875 13.4716796875 23.5068359375 16.5068359375 23.5068359375 c 0
 18.98046875 23.5068359375 21.07421875 21.87109375 21.763671875 19.6240234375 c 2
 25.21484375 8.4052734375 l 1
 31.90625 3.9638671875 40.0859375 2.494140625 48.650390625 2.494140625 c 0
 48.8310546875 2.494140625 55.8427734375 2.9326171875 64.3271484375 11.41796875 c 0
 73.427734375 20.5185546875 80.708984375 35.2080078125 86.6845703125 47.53515625 c 0
 90.1103515625 54.6025390625 90.1103515625 54.6025390625 90.1103515625 56.35546875 c 0
 90.1103515625 73.185546875 81.640625 94.216796875 65.0986328125 94.216796875 c 0
 64.119140625 94.216796875 57.369140625 91.5009765625 52.509765625 91.5009765625 c 0
 49.48828125 91.5009765625 47.0126953125 93.95703125 47.0126953125 97.009765625 c 0
 47.0126953125 102.567382812 55.921875 104.340820312 61.3623046875 104.90625 c 0
 70.966796875 109.291015625 78.248046875 118.853515625 78.248046875 129.000976562 c 0
 78.248046875 133.454101562 77.015625 135.166015625 77.0087890625 136.981445312 c 0
 76.94921875 154.928710938 47.7177734375 155.65234375 43.001953125 155.65234375 c 0
 40.80859375 155.65234375 38.5634765625 155.499023438 38.5185546875 155.499023438 c 0
 36.9765625 155.499023438 36.349609375 156.096679688 35.1416015625 156.096679688 c 0
EndSplineSet
EndChar

StartChar: four
Encoding: 52 52 11
Width: 127
Flags: HW
LayerCount: 2
Fore
SplineSet
93.9873046875 98.0302734375 m 0
 108.123046875 98.0302734375 117.263671875 98.4990234375 117.499023438 98.4990234375 c 0
 120.534179688 98.4990234375 122.998046875 96.03515625 122.998046875 93 c 0
 122.998046875 90.0458984375 120.663085938 87.6328125 117.733398438 87.505859375 c 0
 109.791992188 87.1630859375 101.86328125 87.0302734375 93.9501953125 87.0302734375 c 0
 88.3994140625 87.0302734375 82.85546875 87.095703125 77.3193359375 87.1982421875 c 1
 74.990234375 -0.1474609375 l 2
 74.9111328125 -3.119140625 72.478515625 -5.5029296875 69.4931640625 -5.5029296875 c 0
 66.458984375 -5.5029296875 63.912109375 -3.037109375 63.9921875 -0.00390625 c 0
 66.32421875 87.4443359375 66.32421875 87.4443359375 66.32421875 87.4443359375 c 1
 24.33203125 88.51171875 24.33203125 88.51171875 14.7763671875 88.51171875 c 0
 13.6904296875 88.51171875 12.6044921875 88.5087890625 11.4931640625 88.50390625 c 0
 8.46875 88.50390625 6 90.9677734375 6 94.0087890625 c 0
 6 94.734375 6.17578125 96.7080078125 7.9482421875 98.205078125 c 0
 31.16796875 117.8203125 48.4296875 144.53515625 69.677734375 164.966796875 c 0
 70.234375 165.501953125 71.537109375 166.504882812 73.4873046875 166.504882812 c 0
 76.3701171875 166.504882812 79.2783203125 164.379882812 79.2783203125 159.22265625 c 0
 79.2783203125 157.126953125 78.6435546875 155.048828125 78.6435546875 152.836914062 c 0
 78.6435546875 151.380859375 78.994140625 151.291992188 78.994140625 150.000976562 c 2
 77.61328125 98.1943359375 l 1
 83.0810546875 98.09375 88.5400390625 98.0302734375 93.9873046875 98.0302734375 c 0
25.55078125 99.4326171875 m 1
 29.2861328125 99.3837890625 29.2861328125 99.3837890625 66.6171875 98.4384765625 c 1
 67.9228515625 147.372070312 l 1
 54.28125 132.483398438 40.9677734375 114.651367188 25.55078125 99.4326171875 c 1
EndSplineSet
EndChar

StartChar: six
Encoding: 54 54 12
Width: 101
Flags: HW
LayerCount: 2
Fore
SplineSet
71.0048828125 7.619140625 m 0
 77.5859375 10.041015625 84.2216796875 17.873046875 84.2216796875 46.9443359375 c 0
 84.2216796875 51.8701171875 84.0068359375 56.9013671875 84.0068359375 57.001953125 c 0
 84.0068359375 57.4501953125 84.1162109375 58.3828125 84.1162109375 60.056640625 c 0
 84.1162109375 68.068359375 81.400390625 73.7373046875 77.1953125 77.943359375 c 0
 70.8466796875 84.2919921875 60.1865234375 87.537109375 48.9892578125 87.537109375 c 0
 41.453125 87.537109375 40.060546875 86.4072265625 35.07421875 86.4072265625 c 0
 34.9169921875 86.4072265625 33.1015625 86.419921875 33.08203125 86.419921875 c 0
 31.5419921875 86.419921875 26.322265625 86.419921875 25.015625 84.8408203125 c 2
 19.921875 76.8349609375 l 1
 19.720703125 74.537109375 19.6220703125 72.265625 19.6220703125 70.0263671875 c 0
 19.6220703125 38.345703125 39.41015625 12.25390625 71.0048828125 7.619140625 c 0
95.4033203125 43.15625 m 0
 95.4033203125 -2.3232421875 72.0341796875 -3.4990234375 71.509765625 -3.4990234375 c 0
 71.048828125 -3.4990234375 48.1630859375 -2.046875 29.8427734375 16.2734375 c 0
 16.2529296875 29.86328125 8.6259765625 48.9716796875 8.6259765625 70.0439453125 c 0
 8.6259765625 71.4404296875 8.6591796875 72.845703125 8.7265625 74.2587890625 c 0
 8.2646484375 75.064453125 8 75.9970703125 8 76.9912109375 c 0
 8 78.59375 8.5595703125 79.47265625 9.2744140625 80.595703125 c 0
 9.6748046875 84.1357421875 10.0439453125 88.0537109375 10.4345703125 92.2158203125 c 0
 13.6943359375 126.883789062 18.2578125 175.427734375 56.787109375 180.452148438 c 0
 57.1416015625 180.498046875 58.708984375 180.595703125 60.4677734375 180.595703125 c 0
 64.7958984375 180.595703125 68.205078125 180.071289062 72.34765625 179.434570312 c 0
 74.9951171875 179.028320312 77.0166015625 176.748046875 77.0166015625 173.999023438 c 0
 77.0166015625 170.963867188 74.5517578125 168.5 71.5166015625 168.5 c 0
 70.107421875 168.5 65.7333984375 169.602539062 60.5478515625 169.602539062 c 0
 29.25390625 169.602539062 24.26171875 120.431640625 21.83203125 95.8359375 c 1
 24.9912109375 97.2421875 28.3076171875 97.451171875 30.984375 97.451171875 c 0
 31.9833984375 97.451171875 32.8935546875 97.421875 33.673828125 97.4150390625 c 0
 33.9873046875 97.4150390625 34.2900390625 97.4150390625 34.5791015625 97.4150390625 c 0
 38.9970703125 97.4150390625 41.052734375 98.5732421875 49.34375 98.5732421875 c 0
 74.6826171875 98.5732421875 95.1083984375 84.88671875 95.1083984375 59.9052734375 c 0
 95.1083984375 58.92578125 95.076171875 57.9296875 95.01171875 56.91796875 c 0
 95.4033203125 46.416015625 95.4033203125 46.416015625 95.4033203125 43.15625 c 0
EndSplineSet
EndChar

StartChar: five
Encoding: 53 53 13
Width: 117
Flags: HW
LayerCount: 2
Fore
SplineSet
100.538085938 175.08984375 m 0
 100.999023438 175.08984375 105.758789062 174.974609375 106.862304688 170.2421875 c 0
 106.862304688 170.2421875 106.862304688 170.2421875 106.862304688 170.241210938 c 0
 106.95703125 169.845703125 107.005859375 169.426757812 107.005859375 168.99609375 c 0
 107.005859375 165.9609375 104.541992188 163.497070312 101.505859375 163.497070312 c 0
 100.826171875 163.497070312 100.17578125 163.620117188 99.57421875 163.845703125 c 0
 93.54296875 161.953125 87.201171875 158.234375 82.44921875 158.234375 c 0
 78.8408203125 158.234375 76.7314453125 160.803710938 76.2705078125 163.1953125 c 0
 76.099609375 163.194335938 75.927734375 163.194335938 75.755859375 163.194335938 c 0
 61.4990234375 163.194335938 47.3095703125 165.369140625 34.013671875 167.374023438 c 0
 30.0556640625 167.971679688 26.1767578125 168.556640625 22.4033203125 169.072265625 c 1
 25.9296875 153.278320312 29.275390625 138.29296875 29.275390625 126.063476562 c 0
 29.275390625 124.498046875 29.1171875 122.99609375 28.8896484375 121.576171875 c 1
 36.3251953125 124.927734375 45.12890625 128.150390625 54.70703125 128.150390625 c 0
 56.86328125 128.150390625 59.0576171875 127.987304688 61.28515625 127.625976562 c 0
 64.8701171875 128.510742188 68.2646484375 128.934570312 71.4541015625 128.934570312 c 0
 92.4794921875 128.934570312 105.54296875 110.625 105.54296875 76.3271484375 c 0
 105.54296875 72.138671875 105.34765625 68.0859375 105.049804688 64.3359375 c 1
 105.962890625 59.7529296875 106.40234375 55.24609375 106.40234375 50.8603515625 c 0
 106.40234375 17.8505859375 81.578125 -7.478515625 47.7060546875 -7.478515625 c 0
 41.7587890625 -7.478515625 36.4892578125 -7.478515625 22.8681640625 -3.2509765625 c 0
 19.8291015625 -2.30859375 19.8291015625 -2.30859375 17.13671875 9.80078125 c 1
 17.13671875 9.8134765625 l 2
 17.0517578125 10.1982421875 17.00390625 10.599609375 17.00390625 11.009765625 c 0
 17.00390625 14.0458984375 19.4677734375 16.509765625 22.5029296875 16.509765625 c 0
 26.9140625 16.509765625 27.4375 14.154296875 29.1884765625 6.27734375 c 0
 30.2529296875 5.939453125 38.265625 3.509765625 47.7861328125 3.509765625 c 0
 75.525390625 3.509765625 95.4140625 23.9951171875 95.4140625 50.79296875 c 0
 95.4140625 58.13671875 94.005859375 62.587890625 94.005859375 63.9970703125 c 0
 94.005859375 64.103515625 94.451171875 69.123046875 94.451171875 74.671875 c 0
 94.451171875 90.5087890625 91.59765625 118.022460938 71.76953125 118.022460938 c 0
 66.6103515625 118.022460938 63.1904296875 116.500976562 61.509765625 116.500976562 c 0
 60.30859375 116.500976562 58.7294921875 117.122070312 54.96875 117.122070312 c 0
 40.1640625 117.122070312 25.400390625 106.498046875 21.50390625 106.498046875 c 0
 18.5048828125 106.498046875 16.005859375 108.936523438 16.005859375 112.005859375 c 0
 16.005859375 115.345703125 18.2333984375 122.170898438 18.2333984375 126.419921875 c 0
 18.2333984375 141.98046875 10 172.599609375 10 175.000976562 c 0
 10 178 12.43359375 180.499023438 15.5048828125 180.499023438 c 2
 19.4990234375 180.499023438 l 2
 24.3349609375 180.499023438 54.291015625 174.197265625 75.9208984375 174.197265625 c 0
 81.009765625 174.197265625 83.9404296875 174.497070312 84.5 174.497070312 c 0
 85.1123046875 174.497070312 87.7880859375 174.341796875 89.2822265625 171.713867188 c 0
 94.8427734375 173.990234375 97.666015625 175.08984375 100.538085938 175.08984375 c 0
EndSplineSet
EndChar

StartChar: uni007F
Encoding: 127 127 14
Width: 169
Flags: HW
LayerCount: 2
Fore
SplineSet
30.4375 81.90234375 m 1
 40.51171875 83.44140625 53.1142578125 89.4716796875 53.1142578125 100.750976562 c 0
 53.1142578125 104.458007812 51.9990234375 106.313476562 51.9990234375 108.008789062 c 0
 51.9990234375 108.791015625 52.232421875 109.657226562 52.232421875 111.237304688 c 0
 52.232421875 115.278320312 51.3828125 118.565429688 35.279296875 118.565429688 c 0
 32.9892578125 118.565429688 27.130859375 118.379882812 27.048828125 118.37890625 c 1
 28.259765625 106.985351562 27.9453125 92.1943359375 30.4375 81.90234375 c 1
64.044921875 101.038085938 m 0
 64.044921875 79.1337890625 39.5712890625 70.5048828125 26.4951171875 70.5048828125 c 0
 19.505859375 70.5048828125 18.0576171875 83.4951171875 17.00390625 104.059570312 c 0
 16.1396484375 120.932617188 15 124.790039062 15 125 c 2
 15 127 l 2
 15 130.03515625 17.4638671875 132.499023438 20.4990234375 132.499023438 c 0
 22.685546875 132.499023438 24.576171875 131.219726562 25.4619140625 129.369140625 c 0
 29.876953125 129.380859375 35.166015625 129.728515625 38.8154296875 129.728515625 c 0
 49.8916015625 129.728515625 63.205078125 126.499023438 63.205078125 110.966796875 c 0
 63.205078125 110.140625 63.1640625 109.295898438 63.0830078125 108.434570312 c 0
 63.73828125 105.87890625 64.044921875 103.40625 64.044921875 101.038085938 c 0
108.116210938 128.365234375 m 0
 108.116210938 125.37890625 105.862304688 122.502929688 102.501953125 122.502929688 c 0
 102.161132812 122.502929688 101.828125 122.534179688 101.504882812 122.59375 c 0
 101.170898438 122.53125 100.83203125 122.5 100.493164062 122.5 c 0
 99.2626953125 122.5 95.0791015625 123.85546875 86.947265625 123.85546875 c 0
 85.5869140625 123.85546875 84.2509765625 123.811523438 82.990234375 123.717773438 c 1
 83.376953125 121.791992188 83.5244140625 119.791992188 83.5244140625 117.760742188 c 0
 83.5244140625 116.600585938 83.4765625 115.4296875 83.3974609375 114.255859375 c 1
 104.696289062 113.495117188 l 2
 107.639648438 113.390625 109.99609375 110.967773438 109.99609375 108 c 0
 109.99609375 104.96484375 107.532226562 102.500976562 104.497070312 102.500976562 c 0
 104.400390625 102.500976562 104.400390625 102.500976562 82.271484375 103.291015625 c 1
 81.9453125 99.8466796875 81.7802734375 96.7431640625 81.7802734375 94.1044921875 c 0
 81.7802734375 91.7744140625 81.7802734375 85.873046875 83.953125 84.6708984375 c 0
 85.5849609375 84.912109375 87.181640625 84.9853515625 88.7177734375 84.9853515625 c 0
 91.1923828125 84.9853515625 93.1767578125 84.8056640625 95.9580078125 84.8056640625 c 0
 103.892578125 84.8056640625 100.505859375 86.498046875 104.495117188 86.498046875 c 0
 107.53125 86.498046875 109.99609375 84.033203125 109.99609375 80.9970703125 c 0
 109.99609375 76.859375 105.278320312 73.7392578125 96.927734375 73.7392578125 c 0
 94.607421875 73.7392578125 92.1171875 73.953125 89.08984375 73.953125 c 0
 86.205078125 73.953125 83.5625 73.5 83.505859375 73.5 c 0
 83.271484375 73.5 70.3603515625 74.2451171875 70.3603515625 92.880859375 c 0
 70.3603515625 95.423828125 70.3603515625 95.423828125 71.5517578125 106.588867188 c 0
 71.1953125 107.31640625 70.9951171875 108.135742188 70.9951171875 109 c 0
 70.9951171875 112.4609375 72.2607421875 108.736328125 72.2607421875 117.69140625 c 0
 72.2607421875 125.301757812 70.484375 123.985351562 70.484375 128.10546875 c 0
 70.484375 129.432617188 71.4296875 136.618164062 80.75390625 134.5625 c 0
 82.873046875 134.784179688 85.087890625 134.889648438 87.3134765625 134.889648438 c 0
 91.8349609375 134.889648438 96.3994140625 134.455078125 100.2890625 133.672851562 c 0
 100.311523438 133.6796875 101.377929688 133.965820312 102.646484375 133.965820312 c 0
 105.356445312 133.965820312 108.116210938 131.418945312 108.116210938 128.365234375 c 0
113.490234375 118.829101562 m 0
 113.490234375 125.788085938 118.0625 132.499023438 122.5 132.499023438 c 0
 125.53515625 132.499023438 128 130.03515625 128 126.999023438 c 0
 128 122.942382812 124.3203125 122.73828125 124.3203125 118.844726562 c 0
 124.3203125 114.841796875 128.325195312 108.622070312 128.325195312 101.6796875 c 0
 128.325195312 99.1328125 127.793945312 96.4443359375 126.2890625 93.78125 c 0
 126.532226562 92.201171875 126.532226562 92.201171875 127.428710938 79.83984375 c 1
 151.278320312 81.4296875 152.254882812 81.4990234375 152.506835938 81.4990234375 c 0
 155.541015625 81.4990234375 158.005859375 79.03515625 158.005859375 76 c 0
 158.005859375 73.08984375 155.739257812 70.7041015625 152.8671875 70.513671875 c 0
 151.00390625 70.3896484375 122.799804688 68.50390625 122.495117188 68.50390625 c 0
 117 68.50390625 116.748046875 73.181640625 116.208984375 83.197265625 c 0
 115.787109375 91.0419921875 114.999023438 94.873046875 114.999023438 94.9912109375 c 0
 114.999023438 98.2958984375 117.375 98.5419921875 117.375 101.69921875 c 0
 117.375 105.787109375 113.490234375 111.787109375 113.490234375 118.829101562 c 0
EndSplineSet
EndChar

StartChar: Euro
Encoding: 256 8364 15
Width: 144
Flags: HW
LayerCount: 2
Fore
SplineSet
63.6494140625 144.391601562 m 0
 77.40234375 144.391601562 88.2578125 146.5 88.5078125 146.5 c 0
 91.54296875 146.5 94.0068359375 144.036132812 94.0068359375 141.000976562 c 0
 94.0068359375 138.213867188 91.9296875 135.908203125 89.228515625 135.549804688 c 0
 73.0595703125 133.393554688 73.0595703125 133.393554688 63.6494140625 133.393554688 c 0
 61.892578125 133.393554688 61.892578125 133.393554688 50.66796875 133.471679688 c 1
 47.8974609375 120.780273438 46.6943359375 106.965820312 46.220703125 94.5458984375 c 1
 69.2646484375 96.4990234375 69.2646484375 96.4990234375 69.5009765625 96.4990234375 c 0
 69.6220703125 96.4990234375 69.6220703125 96.4990234375 92.73828125 95.494140625 c 0
 95.66015625 95.3662109375 97.994140625 92.9541015625 97.994140625 90 c 0
 97.994140625 86.96484375 95.5302734375 84.5009765625 92.4951171875 84.5009765625 c 0
 92.3779296875 84.5009765625 92.3779296875 84.5009765625 69.611328125 85.4912109375 c 1
 46.2744140625 83.513671875 l 1
 47.046875 76.6015625 56.103515625 5.849609375 103.793945312 1.5712890625 c 1
 118.6796875 6.9033203125 128.33984375 21.8271484375 131.114257812 35.12890625 c 0
 131.634765625 37.625 133.849609375 39.501953125 136.499023438 39.501953125 c 0
 139.534179688 39.501953125 141.998046875 37.0380859375 141.998046875 34.0029296875 c 0
 141.998046875 29.2119140625 133.217773438 -0.48046875 106.2109375 -9.2294921875 c 0
 105.658203125 -9.408203125 105.080078125 -9.4990234375 104.499023438 -9.4990234375 c 0
 102.700195312 -9.4990234375 83.689453125 -9.0810546875 66.4150390625 8.193359375 c 0
 47.3076171875 27.30078125 38.0322265625 57.51171875 35.3095703125 82.583984375 c 1
 10.728515625 80.5009765625 10.728515625 80.5009765625 10.4990234375 80.5009765625 c 0
 7.4638671875 80.5009765625 5 82.96484375 5 86 c 0
 5 88.876953125 7.2138671875 91.240234375 10.029296875 91.4794921875 c 2
 35.1572265625 93.6083984375 l 1
 35.529296875 106.73046875 36.546875 122.10546875 39.80078125 136.650390625 c 0
 38.62890625 137.442382812 37.5 137.77734375 36.2333984375 137.77734375 c 0
 31.54296875 137.77734375 24.7646484375 133.196289062 17.2978515625 133.196289062 c 0
 13.71484375 133.196289062 8.9873046875 134.12109375 8.9873046875 139.000976562 c 0
 8.9873046875 142.037109375 11.4521484375 144.500976562 14.4873046875 144.500976562 c 0
 15.57421875 144.500976562 15.783203125 144.232421875 17.0224609375 144.232421875 c 0
 22.080078125 144.232421875 28.5087890625 148.583007812 36.2158203125 148.583007812 c 0
 38.322265625 148.583007812 40.5078125 148.254882812 42.69921875 147.401367188 c 1
 47.908203125 163.615234375 60.0224609375 188.265625 90.435546875 188.265625 c 0
 94.6591796875 188.265625 99.1513671875 187.783203125 103.912109375 186.76953125 c 0
 104.641601562 186.977539062 105.352539062 187.061523438 106.026367188 187.061523438 c 0
 107.958984375 187.061523438 108.239257812 186.928710938 111.401367188 185.4296875 c 0
 114.00390625 184.994140625 115.99609375 182.737304688 115.99609375 180 c 2
 115.99609375 179 l 2
 115.99609375 175.96484375 113.532226562 173.500976562 110.497070312 173.500976562 c 0
 108.685546875 173.500976562 107.078125 174.37890625 106.075195312 175.731445312 c 0
 105.5625 175.579101562 105.028320312 175.5 104.490234375 175.5 c 0
 102.918945312 175.5 97.59375 177.33984375 90.08203125 177.33984375 c 0
 73.228515625 177.33984375 60.9267578125 167.389648438 53.58203125 144.447265625 c 1
 53.638671875 144.447265625 53.6953125 144.446289062 53.7509765625 144.446289062 c 0
 57.06640625 144.418945312 60.365234375 144.391601562 63.6494140625 144.391601562 c 0
EndSplineSet
EndChar

StartChar: florin
Encoding: 196 402 16
Width: 95
Flags: HW
LayerCount: 2
Fore
SplineSet
47.921875 114.92578125 m 1
 47.9130859375 115.146484375 47.0107421875 134.641601562 47.0107421875 136.997070312 c 0
 47.0107421875 138.764648438 47.2373046875 172.668945312 64.5556640625 183.643554688 c 0
 65.673828125 184.352539062 66.7734375 184.5390625 68.3447265625 184.5390625 c 0
 71.802734375 184.5390625 74.48828125 183.283203125 76.203125 182.474609375 c 0
 77.2763671875 181.96875 78.134765625 181.565429688 79.173828125 181.237304688 c 0
 81.44921875 180.520507812 83.0087890625 178.390625 83.0087890625 176 c 2
 83.0087890625 175 l 2
 83.0087890625 171.96484375 80.544921875 169.500976562 77.509765625 169.500976562 c 0
 74.1533203125 169.500976562 73.046875 172.560546875 69.240234375 173.484375 c 0
 63.40234375 168.791992188 59.546875 157.506835938 58.013671875 136.86328125 c 0
 58.126953125 132.286132812 58.9248046875 115.033203125 58.9326171875 114.813476562 c 0
 60.6494140625 114.874023438 62.3359375 114.885742188 63.9873046875 114.885742188 c 0
 64.0166015625 114.885742188 66.8662109375 114.881835938 66.8857421875 114.881835938 c 0
 78.8232421875 114.881835938 83.349609375 116.500976562 83.5166015625 116.500976562 c 0
 86.552734375 116.500976562 89.0166015625 114.037109375 89.0166015625 111.000976562 c 0
 89.0166015625 107.022460938 86.38671875 103.880859375 68.0224609375 103.880859375 c 0
 67.0810546875 103.880859375 66.001953125 103.885742188 65.578125 103.885742188 c 0
 63.3623046875 103.885742188 61.208984375 103.810546875 59.146484375 103.810546875 c 0
 59.1455078125 103.635742188 58.93359375 93.8544921875 58.93359375 86.328125 c 0
 58.93359375 85.9775390625 59.1513671875 51.87890625 59.1513671875 51.310546875 c 0
 59.1513671875 39.3134765625 58.9248046875 27.13671875 58.0087890625 14.7939453125 c 2
 58.0087890625 -11 l 2
 58.0087890625 -11.2705078125 57.7431640625 -22.501953125 33.5517578125 -22.501953125 c 0
 29.4609375 -22.501953125 32.302734375 -22.0068359375 27.7001953125 -22.0068359375 c 0
 25.6611328125 -22.0068359375 24.5048828125 -22.150390625 22.7080078125 -22.150390625 c 0
 12.3056640625 -22.150390625 9.0107421875 -15.58984375 9.0107421875 -13.0029296875 c 0
 9.0107421875 -9.966796875 11.4755859375 -7.501953125 14.51171875 -7.501953125 c 0
 16.4677734375 -7.501953125 18.1865234375 -8.525390625 19.1552734375 -10.0546875 c 0
 19.369140625 -10.3916015625 19.8017578125 -11.0751953125 24.13671875 -11.0751953125 c 0
 25.93359375 -11.0751953125 27.1298828125 -10.9501953125 28.6884765625 -10.9501953125 c 0
 30.1064453125 -10.9501953125 31.646484375 -11.0595703125 33.2841796875 -11.4921875 c 0
 37.6591796875 -11.369140625 44.6826171875 -10.0947265625 47.0107421875 -8.8818359375 c 0
 47.0107421875 -0.9228515625 47.0107421875 7.037109375 47.0107421875 14.9970703125 c 0
 47.0107421875 16.67578125 48.15234375 25.9716796875 48.15234375 51.40234375 c 0
 48.15234375 63.17578125 47.935546875 74.7734375 47.935546875 86.31640625 c 0
 47.935546875 94.0224609375 48.1474609375 103.734375 48.1474609375 103.911132812 c 0
 46.5380859375 103.965820312 44.90234375 103.985351562 43.2431640625 103.985351562 c 0
 38.4013671875 103.985351562 33.482421875 103.814453125 28.8046875 103.814453125 c 0
 22.38671875 103.814453125 15.8037109375 104.127929688 9.26171875 105.643554688 c 0
 6.818359375 106.20703125 5 108.393554688 5 111.000976562 c 0
 5 114.037109375 7.46484375 116.500976562 10.5 116.500976562 c 0
 10.6884765625 116.500976562 17.033203125 114.826171875 29.30078125 114.826171875 c 0
 34.109375 114.826171875 38.6865234375 114.98828125 43.3525390625 114.98828125 c 0
 44.8671875 114.98828125 46.3916015625 114.971679688 47.921875 114.92578125 c 1
EndSplineSet
EndChar

StartChar: b
Encoding: 98 98 17
Width: 97
Flags: HW
LayerCount: 2
Fore
SplineSet
63.2529296875 -5.28515625 m 0
 67.1328125 -3.9482421875 70.1826171875 3.93359375 74.63671875 8.9365234375 c 0
 74.033203125 13.443359375 73.8701171875 18.0927734375 73.8701171875 22.767578125 c 0
 73.8701171875 28.2333984375 74.087890625 33.3623046875 74.087890625 39.3076171875 c 0
 74.087890625 59.3525390625 71.326171875 72.0693359375 57.412109375 78.47265625 c 1
 43.4423828125 77.9697265625 34.5751953125 71.837890625 29.56640625 60.365234375 c 1
 28.7041015625 44.0263671875 28.37109375 37.720703125 27.3291015625 32.830078125 c 0
 26.923828125 30.6357421875 26.6337890625 26.71875 26.4296875 22.5615234375 c 1
 32.8486328125 17.2177734375 27.9033203125 17.1435546875 34.5771484375 10.4697265625 c 0
 39.8134765625 5.234375 48.9775390625 1.01171875 57.9599609375 -2.9326171875 c 0
 59.7451171875 -3.7158203125 61.5185546875 -4.4951171875 63.2529296875 -5.28515625 c 0
20.4921875 1.0927734375 m 0
 16.2763671875 1.0927734375 15.015625 4.533203125 15.015625 5.0234375 c 0
 15.015625 5.2509765625 15.09375 5.3515625 15.09375 5.3515625 c 2
 15 6.171875 15 6.171875 15 6.673828125 c 0
 15 7.046875 15.0029296875 7.6806640625 15.0107421875 8.52734375 c 0
 15.0107421875 8.8544921875 15.009765625 9.2216796875 15.009765625 9.6318359375 c 0
 14.6240234375 12.57421875 14.2763671875 15.6591796875 14.0048828125 18.8359375 c 0
 13.3720703125 19.732421875 13 20.8251953125 13 22.0048828125 c 0
 13 22.9150390625 13.2216796875 23.7734375 13.61328125 24.5302734375 c 0
 13.4873046875 26.96484375 13.4169921875 29.4345703125 13.4169921875 31.91796875 c 0
 13.4169921875 42.7041015625 14.7490234375 53.7451171875 18.70703125 63.326171875 c 1
 20.6796875 102.15234375 20.88671875 141.724609375 21.0087890625 180.017578125 c 2
 21.0087890625 193 l 2
 21.0087890625 196.03515625 23.47265625 198.499023438 26.5078125 198.499023438 c 0
 29.54296875 198.499023438 32.0068359375 196.03515625 32.0068359375 193 c 2
 32.0068359375 179.982421875 l 2
 31.90234375 147.274414062 31.740234375 113.524414062 30.455078125 79.9775390625 c 1
 37.38671875 85.861328125 46.7158203125 89.3388671875 58.5078125 89.4990234375 c 0
 61.05078125 89.4990234375 68.1708984375 85.7802734375 73.048828125 80.9013671875 c 0
 83.6640625 70.287109375 85.1455078125 55.498046875 85.1455078125 41.5185546875 c 0
 85.1455078125 41.3349609375 84.884765625 23.9365234375 84.884765625 23.2099609375 c 0
 84.884765625 11.0537109375 86.005859375 8.6474609375 86.005859375 7.0107421875 c 0
 86.005859375 3.0146484375 85.5732421875 6.4404296875 79.26171875 -3.529296875 c 0
 76.345703125 -8.134765625 71.05078125 -16.4990234375 62.505859375 -16.4990234375 c 0
 62.0849609375 -16.4990234375 36.1044921875 -7.6455078125 25.6181640625 3.931640625 c 1
 23.8388671875 1.115234375 21.3447265625 1.0927734375 20.4921875 1.0927734375 c 0
EndSplineSet
EndChar

StartChar: c
Encoding: 99 99 18
Width: 91
Flags: HW
LayerCount: 2
Fore
SplineSet
44.142578125 123.578125 m 0
 54.3759765625 123.578125 67.1982421875 119.499023438 75.8505859375 119.499023438 c 0
 78.8857421875 119.499023438 81.349609375 117.03515625 81.349609375 114 c 0
 81.349609375 111.057617188 78.99609375 108.500976562 75.8154296875 108.500976562 c 0
 65.7021484375 108.500976562 52.9560546875 112.569335938 43.8583984375 112.569335938 c 0
 38.841796875 112.569335938 22.17578125 107.864257812 22.17578125 93.9296875 c 0
 22.17578125 92.3740234375 22.349609375 91.6787109375 22.349609375 90.9951171875 c 0
 22.349609375 90.890625 22.03515625 86.115234375 22.03515625 80.474609375 c 0
 22.03515625 62.8740234375 24.8701171875 20.6162109375 51.185546875 7.4619140625 c 1
 61.0498046875 7.55078125 70.2666015625 19.498046875 75.8447265625 19.498046875 c 0
 78.880859375 19.498046875 81.3466796875 17.033203125 81.3466796875 13.9970703125 c 0
 81.3466796875 11.892578125 80.162109375 10.0625 78.4365234375 9.14453125 c 0
 76.5810546875 8.15625 74.52734375 6.7255859375 72.263671875 5.125 c 0
 67.1083984375 1.4814453125 60.333984375 -3.541015625 51.1103515625 -3.541015625 c 0
 44.0234375 -3.541015625 11 12.548828125 11 79.4296875 c 0
 11 83.423828125 11.1240234375 87.26171875 11.333984375 90.8681640625 c 0
 11.236328125 91.85546875 11.1884765625 92.8271484375 11.1884765625 93.78125 c 0
 11.1884765625 114.114257812 31.9296875 123.578125 44.142578125 123.578125 c 0
EndSplineSet
EndChar

StartChar: d
Encoding: 100 100 19
Width: 100
Flags: HW
LayerCount: 2
Fore
SplineSet
69.7822265625 62.16015625 m 0
 66.31640625 70.638671875 53.6796875 75.662109375 44.1943359375 75.662109375 c 0
 43.009765625 75.662109375 41.0888671875 75.5009765625 41.0576171875 75.5009765625 c 0
 39.65234375 75.5009765625 38.96484375 76.0595703125 36.78515625 76.0595703125 c 0
 28.0810546875 76.0595703125 21.046875 65.291015625 21.046875 56.4755859375 c 0
 21.046875 53.9501953125 21.5615234375 53.333984375 21.5615234375 51.9912109375 c 0
 21.5615234375 51.4716796875 21.39453125 50.1455078125 21.39453125 47.6005859375 c 0
 21.39453125 32.6865234375 27.677734375 9.3388671875 46.494140625 9.3388671875 c 0
 51.625 9.3388671875 56.4990234375 12.353515625 62.412109375 16.3740234375 c 0
 64.376953125 17.7099609375 66.40234375 19.0966796875 68.5732421875 20.3486328125 c 0
 69.1884765625 30.8046875 69.455078125 54.1962890625 69.7822265625 62.16015625 c 0
46.630859375 -1.669921875 m 0
 23.3203125 -1.669921875 10.3779296875 21.767578125 10.3779296875 47.1845703125 c 0
 10.3779296875 48.6884765625 10.4267578125 50.1591796875 10.5185546875 51.5859375 c 0
 10.1669921875 53.30078125 10 55.044921875 10 56.7919921875 c 0
 10 71.380859375 21.8203125 87.0517578125 36.8583984375 87.0517578125 c 0
 38.357421875 87.0517578125 39.8935546875 86.89453125 41.4560546875 86.55859375 c 0
 42.455078125 86.6376953125 43.4716796875 86.6767578125 44.5009765625 86.6767578125 c 0
 53.451171875 86.6767578125 63.357421875 83.69921875 70.8291015625 77.880859375 c 1
 71.6083984375 85.884765625 71.6083984375 85.884765625 71.6083984375 89.185546875 c 0
 71.6083984375 104.959960938 70.4189453125 121.37890625 70.4189453125 137.174804688 c 0
 70.4189453125 140.165039062 70.4619140625 143.140625 70.5625 146.094726562 c 2
 70.5625 193 l 2
 70.5625 196.03515625 73.0263671875 198.499023438 76.0615234375 198.499023438 c 0
 79.0966796875 198.499023438 81.560546875 196.03515625 81.560546875 193 c 2
 81.560546875 146 l 2
 81.560546875 145.912109375 81.4189453125 142.3125 81.4189453125 137.236328125 c 0
 81.4189453125 121.616210938 82.6064453125 105.219726562 82.6064453125 89.2265625 c 0
 82.6064453125 77.9443359375 81.7041015625 81.8935546875 80.8564453125 63.5615234375 c 0
 81.400390625 61.5791015625 81.6982421875 59.482421875 81.6982421875 57.2900390625 c 0
 81.6982421875 57.0322265625 81.4580078125 60.345703125 81.3515625 31.5595703125 c 0
 81.2333984375 -0.6025390625 81.2333984375 -0.6025390625 79.2041015625 -2.6318359375 c 0
 78.2587890625 -3.5771484375 76.7978515625 -4.0146484375 75.345703125 -4.0146484375 c 0
 69.84375 -4.0146484375 69.6357421875 -0.458984375 69.162109375 7.6591796875 c 1
 61.6884765625 2.5908203125 55.408203125 -1.669921875 46.630859375 -1.669921875 c 0
EndSplineSet
EndChar

StartChar: f
Encoding: 102 102 20
Width: 118
Flags: HW
LayerCount: 2
Fore
SplineSet
105.051757812 188.086914062 m 0
 105.051757812 185.453125 102.947265625 182.490234375 99.509765625 182.490234375 c 0
 99.390625 182.490234375 99.271484375 182.494140625 99.154296875 182.500976562 c 0
 98.2294921875 182.098632812 97.3525390625 181.984375 96.61328125 181.984375 c 0
 94.7353515625 181.984375 93.4560546875 182.373046875 89.73046875 183.50390625 c 0
 89.654296875 183.500976562 89.5771484375 183.499023438 89.5009765625 183.499023438 c 0
 88.5986328125 183.499023438 87.5517578125 183.82421875 85.4287109375 183.82421875 c 0
 72.7431640625 183.82421875 68.6845703125 169.801757812 68.6845703125 160.861328125 c 0
 68.6845703125 155.2265625 70.5185546875 152.16015625 71.3232421875 139.740234375 c 1
 84.3232421875 139.497070312 94.3740234375 137.37890625 107.875 136.487304688 c 0
 110.739257812 136.297851562 113.0078125 133.911132812 113.0078125 131 c 0
 113.0078125 127.96484375 110.54296875 125.500976562 107.508789062 125.500976562 c 0
 102.232421875 125.500976562 83.4951171875 128.463867188 71.53515625 128.735351562 c 0
 71.462890625 125.846679688 71.29296875 122.918945312 71.0263671875 119.935546875 c 0
 71.30859375 115.665039062 71.44140625 111.368164062 71.44140625 107.0546875 c 0
 71.44140625 81.21484375 66.6845703125 54.796875 60.9267578125 30.009765625 c 1
 55.9619140625 -7.72265625 l 2
 55.607421875 -10.416015625 53.2998046875 -12.498046875 50.509765625 -12.498046875 c 0
 47.474609375 -12.498046875 45.0107421875 -10.0341796875 45.0107421875 -6.9990234375 c 0
 45.0107421875 -6.603515625 50.01171875 31.634765625 50.1552734375 32.2529296875 c 0
 55.86328125 56.783203125 60.4384765625 82.578125 60.4384765625 107.1796875 c 0
 60.4384765625 114.698242188 60.01171875 119.389648438 60.01171875 119.99609375 c 0
 60.01171875 120.673828125 60.3818359375 123.592773438 60.5302734375 128.4765625 c 1
 49.810546875 128.19140625 39.3779296875 126.998046875 27.9013671875 126.998046875 c 0
 21.4677734375 126.998046875 14.9423828125 127.393554688 8.49609375 128.594726562 c 0
 5.9345703125 129.0703125 4 131.311523438 4 134.000976562 c 0
 4 137.036132812 6.4638671875 139.500976562 9.5 139.500976562 c 0
 11.0029296875 139.500976562 15.7177734375 138.01953125 27.8994140625 138.01953125 c 0
 39.1298828125 138.01953125 49.7041015625 139.196289062 60.328125 139.473632812 c 1
 59.4912109375 151.553710938 57.6630859375 153.470703125 57.6630859375 161.178710938 c 0
 57.6630859375 178.784179688 67.8701171875 194.80078125 85.6669921875 194.80078125 c 0
 86.6611328125 194.80078125 87.677734375 194.749023438 88.712890625 194.64453125 c 0
 89.0830078125 194.728515625 89.4208984375 194.76171875 89.724609375 194.76171875 c 0
 89.7412109375 194.76171875 89.7412109375 194.76171875 95.7314453125 193.198242188 c 0
 95.767578125 193.209960938 98.431640625 193.899414062 99.4248046875 193.899414062 c 0
 99.7900390625 193.899414062 105.051757812 193.653320312 105.051757812 188.086914062 c 0
EndSplineSet
EndChar

StartChar: h
Encoding: 104 104 21
Width: 93
Flags: HW
LayerCount: 2
Fore
SplineSet
18.9912109375 66.4501953125 m 0
 18.9912109375 78.798828125 19.25390625 91.0751953125 19.25390625 103.520507812 c 0
 19.25390625 107.953125 19.12890625 112.40234375 19.12890625 116.887695312 c 0
 19.12890625 197 19.12890625 197 19.12890625 197 c 2
 19.12890625 200.03515625 21.5927734375 202.499023438 24.6279296875 202.499023438 c 0
 27.6630859375 202.499023438 30.126953125 200.03515625 30.126953125 197 c 2
 30.126953125 117.055664062 l 2
 30.21875 112.494140625 30.251953125 107.983398438 30.251953125 103.509765625 c 0
 30.251953125 102.577148438 30.25 101.645507812 30.248046875 100.715820312 c 1
 37.7861328125 112.362304688 48.1484375 112.499023438 48.6318359375 112.499023438 c 0
 48.8447265625 112.499023438 59.599609375 111.502929688 67.822265625 103.280273438 c 0
 77.8818359375 93.220703125 79.931640625 78.037109375 79.931640625 62.8232421875 c 0
 79.931640625 51.826171875 78.7958984375 39.27734375 78.7958984375 27.9326171875 c 0
 78.7958984375 16.080078125 80.0732421875 13.7890625 80.0732421875 13.6455078125 c 0
 80.0732421875 13.419921875 79.9794921875 13.3330078125 79.9794921875 13.3330078125 c 2
 80.0732421875 12.89453125 80.068359375 12.8076171875 80.087890625 12.6328125 c 0
 80.087890625 12.3544921875 80.1083984375 12.0732421875 80.1083984375 11.791015625 c 0
 80.1083984375 11.638671875 80.1025390625 11.4853515625 80.083984375 11.3330078125 c 0
 80.189453125 5.3037109375 80.189453125 5.3037109375 80.189453125 3.8544921875 c 0
 80.189453125 -5.5859375 79.927734375 -12.7890625 73.5107421875 -12.7890625 c 0
 69.75390625 -12.7890625 67.126953125 -10.166015625 67.126953125 -7.0009765625 c 0
 67.126953125 -5.4013671875 67.8115234375 -3.9599609375 68.9033203125 -2.9541015625 c 0
 69.0439453125 -0.3525390625 69.1318359375 4.20703125 69.1318359375 7.552734375 c 0
 69.1318359375 9.3720703125 69.080078125 11.5986328125 69.080078125 11.6396484375 c 0
 69.0888671875 11.7197265625 68.984375 11.8359375 69.0068359375 12.0009765625 c 0
 68.048828125 16.833984375 67.7421875 22.1220703125 67.7421875 27.6640625 c 0
 67.7421875 37.6513671875 68.7421875 48.365234375 68.7421875 60.28125 c 0
 68.7421875 86.2822265625 63.51953125 98.2119140625 48.478515625 101.421875 c 1
 31.5205078125 98.41015625 31.0078125 58.626953125 31.0078125 38.4150390625 c 0
 31.0078125 31.0712890625 31.5576171875 27.3408203125 31.5576171875 27.2294921875 c 0
 31.5576171875 25.453125 31.3603515625 23.740234375 31.0693359375 22.103515625 c 0
 31.03515625 9.822265625 31.0068359375 -0.4970703125 22.6943359375 -0.4970703125 c 0
 18.9716796875 -0.4970703125 17 1.9580078125 17 7.16015625 c 0
 17 15.1181640625 20.056640625 18.6689453125 20.056640625 25.845703125 c 0
 20.056640625 26.251953125 18.9912109375 53.3203125 18.9912109375 66.4501953125 c 0
EndSplineSet
EndChar

StartChar: i
Encoding: 105 105 22
Width: 46
Flags: HW
LayerCount: 2
Fore
SplineSet
16.5009765625 165.495117188 m 0
 13.46484375 165.495117188 11 167.959960938 11 170.99609375 c 0
 11 173.099609375 12.1826171875 174.927734375 13.91796875 175.853515625 c 0
 30.125 184.498046875 30.125 184.498046875 31.5009765625 184.498046875 c 0
 34.537109375 184.498046875 37.001953125 182.033203125 37.001953125 178.997070312 c 0
 37.001953125 176.893554688 35.8203125 175.065429688 34.095703125 174.146484375 c 0
 17.8759765625 165.495117188 17.8759765625 165.495117188 16.5009765625 165.495117188 c 0
18.2548828125 127.805664062 m 0
 18.2548828125 143.604492188 17.0078125 150.767578125 17.0078125 151 c 2
 17.0078125 152 l 2
 17.0078125 155.03515625 19.4716796875 157.499023438 22.5068359375 157.499023438 c 0
 25.5419921875 157.499023438 28.005859375 155.03515625 28.005859375 152 c 2
 28.005859375 151.3828125 l 1
 29.013671875 144.013671875 29.2646484375 136.09375 29.2646484375 128.194335938 c 0
 29.2646484375 127.537109375 29.005859375 104.578125 29.005859375 104.33984375 c 0
 29.005859375 104.290039062 29.0537109375 101.685546875 29.0537109375 99.404296875 c 0
 29.0537109375 89.2734375 28.42578125 79.6884765625 28.42578125 69.7822265625 c 0
 28.42578125 61.12890625 29.005859375 55.1455078125 29.005859375 54.9970703125 c 0
 29.005859375 53.3271484375 28.3466796875 53.4189453125 28.3466796875 48.01171875 c 0
 28.3466796875 44.5771484375 28.58984375 41.6376953125 28.58984375 38.5849609375 c 0
 28.58984375 35.185546875 28.2939453125 31.548828125 27.005859375 27.966796875 c 1
 27.005859375 5 l 2
 27.005859375 1.96484375 24.5419921875 -0.4990234375 21.5068359375 -0.4990234375 c 0
 18.4716796875 -0.4990234375 16.0078125 1.96484375 16.0078125 5 c 2
 16.0078125 28.9873046875 l 2
 16.0078125 31.6220703125 17.53515625 31.16796875 17.53515625 39.47265625 c 0
 17.53515625 40.125 17.3037109375 48.4658203125 17.3037109375 48.556640625 c 0
 17.3037109375 50.798828125 17.443359375 53.10546875 17.953125 55.4306640625 c 0
 17.5595703125 60.3798828125 17.42578125 65.146484375 17.42578125 69.7958984375 c 0
 17.42578125 79.83984375 18.0546875 89.4853515625 18.0546875 99.4345703125 c 0
 18.0546875 101.438476562 18.0078125 104.293945312 18.0078125 104.342773438 c 0
 18.0078125 111.875976562 18.2548828125 119.712890625 18.2548828125 127.805664062 c 0
EndSplineSet
EndChar

StartChar: j
Encoding: 106 106 23
Width: 54
Flags: HW
LayerCount: 2
Fore
SplineSet
17.54296875 175.826171875 m 0
 17.54296875 179.180664062 15.9951171875 177.580078125 15.9951171875 180.999023438 c 0
 15.9951171875 184.973632812 18.63671875 185.850585938 22.751953125 187.215820312 c 1
 22.763671875 187.215820312 l 2
 23.310546875 187.3984375 23.8955078125 187.500976562 24.5029296875 187.500976562 c 0
 27.5380859375 187.500976562 30.0029296875 185.036132812 30.0029296875 182.000976562 c 0
 30.0029296875 180.541015625 29.43359375 179.213867188 28.505859375 178.229492188 c 0
 28.564453125 177.711914062 28.5869140625 177.236328125 28.5869140625 176.823242188 c 0
 28.5869140625 176.729492188 28.5859375 176.639648438 28.583984375 176.552734375 c 0
 30.0380859375 175.5625 30.994140625 173.893554688 30.994140625 172.002929688 c 0
 30.994140625 168.966796875 28.529296875 166.501953125 25.4931640625 166.501953125 c 0
 22.9765625 166.501953125 17.54296875 169.284179688 17.54296875 175.826171875 c 0
25.013671875 134.357421875 m 0
 25.013671875 140.72265625 23.994140625 141.094726562 23.994140625 143.006835938 c 0
 23.994140625 146.041992188 26.458984375 148.506835938 29.494140625 148.506835938 c 0
 31.244140625 148.506835938 36.1181640625 148.506835938 36.1181640625 134.379882812 c 0
 36.1181640625 127.662109375 34.7685546875 119.442382812 34.7685546875 112.453125 c 0
 34.7685546875 110.271484375 39.8544921875 22.3310546875 39.8544921875 4.1220703125 c 0
 39.8544921875 -16.71875 33.1748046875 -33.70703125 11.3916015625 -33.70703125 c 0
 8.060546875 -33.70703125 2 -33.70703125 2 -28 c 0
 2 -24.96484375 4.4638671875 -22.5009765625 7.4990234375 -22.5009765625 c 0
 8.1396484375 -22.5009765625 9.4599609375 -22.7265625 11.6416015625 -22.7265625 c 0
 23.3955078125 -22.7265625 28.6396484375 -15.8642578125 28.6396484375 6.908203125 c 0
 28.6396484375 30.2880859375 23.75 107.697265625 23.75 112.68359375 c 0
 23.75 119.637695312 25.013671875 127.056640625 25.013671875 134.357421875 c 0
EndSplineSet
EndChar

StartChar: k
Encoding: 107 107 24
Width: 89
Flags: HW
LayerCount: 2
Fore
SplineSet
17.99609375 84.9990234375 m 0
 17.99609375 86.787109375 18.7490234375 87.8212890625 19.4599609375 88.798828125 c 2
 16 189.998046875 l 2
 16 193.033203125 18.466796875 195.497070312 21.501953125 195.497070312 c 0
 24.4736328125 195.497070312 26.8974609375 193.135742188 26.998046875 190.189453125 c 2
 30.04296875 101.131835938 l 1
 38.7255859375 109.908203125 48.2724609375 117.1875 58.4765625 124.928710938 c 0
 69.7822265625 133.505859375 69.7822265625 133.505859375 71.5107421875 133.505859375 c 0
 74.546875 133.505859375 77.0107421875 131.041015625 77.0107421875 128.005859375 c 0
 77.0107421875 125.181640625 77.0107421875 125.181640625 65.1171875 116.157226562 c 0
 53.6240234375 107.4375 41.8369140625 98.46875 32.671875 87.775390625 c 1
 67.0771484375 74.0693359375 73.521484375 36.658203125 76.8466796875 10.5703125 c 0
 77.388671875 9.2451171875 77.5751953125 7.943359375 77.5751953125 6.7685546875 c 0
 77.5751953125 4.169921875 76.6982421875 2.3193359375 76.5166015625 1.3955078125 c 0
 78.7763671875 -1.9951171875 79.001953125 -2.3330078125 79.001953125 -3.998046875 c 0
 79.001953125 -7.0341796875 76.537109375 -9.4990234375 73.5009765625 -9.4990234375 c 0
 69.734375 -9.4990234375 65.548828125 -4.0244140625 65.548828125 1.2431640625 c 0
 65.548828125 2.8837890625 65.548828125 2.8837890625 66.568359375 6.5625 c 0
 64.748046875 10.2705078125 64.1669921875 47.52734375 44.552734375 67.1416015625 c 0
 40.7783203125 70.916015625 36.30859375 74.125 30.8818359375 76.5888671875 c 1
 31.0009765625 73.189453125 l 1
 31.0009765625 -6 l 2
 31.0009765625 -9.03515625 28.537109375 -11.4990234375 25.501953125 -11.4990234375 c 0
 22.466796875 -11.4990234375 20.0029296875 -9.03515625 20.0029296875 -6 c 2
 20.0029296875 72.9052734375 l 1
 19.7265625 80.9892578125 l 1
 18.6181640625 82.0322265625 17.99609375 83.4931640625 17.99609375 84.9990234375 c 0
EndSplineSet
EndChar

StartChar: l
Encoding: 108 108 25
Width: 49
Flags: HW
LayerCount: 2
Fore
SplineSet
32.958984375 119.388671875 m 0
 32.958984375 117.98828125 32.998046875 117.235351562 32.998046875 116.999023438 c 0
 32.998046875 109.537109375 28.689453125 69.5419921875 27.99609375 43.8505859375 c 0
 27.9931640625 43.740234375 27.9931640625 43.740234375 24.9853515625 -1.3681640625 c 0
 24.794921875 -4.2314453125 22.4091796875 -6.4970703125 19.4990234375 -6.4970703125 c 0
 16.4638671875 -6.4970703125 14 -4.033203125 14 -0.998046875 c 0
 14 6.568359375 21.9287109375 115.883789062 21.9951171875 117.065429688 c 0
 21.970703125 117.875 21.958984375 118.689453125 21.958984375 119.5078125 c 0
 21.958984375 134.133789062 25.7578125 150.392578125 25.7578125 165.6484375 c 0
 25.7578125 173.720703125 24.6337890625 180.711914062 21.33984375 185.94140625 c 0
 19.376953125 186.78125 18 188.731445312 18 191 c 0
 18 194.03515625 20.4638671875 196.499023438 23.4990234375 196.499023438 c 2
 24.4990234375 196.499023438 l 2
 29.71875 196.499023438 36.9755859375 185.096679688 36.9755859375 166.053710938 c 0
 36.9755859375 151.139648438 32.958984375 133.509765625 32.958984375 119.388671875 c 0
EndSplineSet
EndChar

StartChar: m
Encoding: 109 109 26
Width: 149
Flags: HW
LayerCount: 2
Fore
SplineSet
17.94140625 118.569335938 m 0
 17.94140625 122.235351562 17.94140625 127.50390625 23.4990234375 127.50390625 c 0
 26.5341796875 127.50390625 28.998046875 125.0390625 28.998046875 122.004882812 c 0
 28.998046875 121.744140625 28.9404296875 120.610351562 28.9404296875 118.626953125 c 0
 28.9404296875 114.568359375 28.9423828125 113.998046875 29.876953125 100.856445312 c 1
 34.9716796875 108.028320312 42.966796875 114.498046875 46.4970703125 114.498046875 c 0
 49.541015625 114.498046875 65.5478515625 104.9765625 73.3115234375 82.818359375 c 1
 75.7255859375 93.4716796875 79.4658203125 102.96484375 85.3779296875 109.642578125 c 0
 86.4228515625 110.822265625 87.93359375 111.500976562 89.505859375 111.500976562 c 0
 111.133789062 111.500976562 135.896484375 96.03125 135.896484375 69.0390625 c 0
 135.896484375 65.0185546875 135.321289062 60.8291015625 134.09765625 56.5302734375 c 0
 134.44140625 53.515625 134.57421875 50.5068359375 134.57421875 47.517578125 c 0
 134.57421875 37.1240234375 132.936523438 26.4267578125 132.936523438 16.3193359375 c 0
 132.936523438 12.4619140625 134.220703125 13.7158203125 134.220703125 8.7099609375 c 0
 134.220703125 8.677734375 134.1328125 5.609375 134.1328125 5.5234375 c 0
 134.1328125 2.404296875 135.998046875 3.4716796875 135.998046875 -0.0009765625 c 0
 135.998046875 -3.0361328125 133.534179688 -5.5 130.499023438 -5.5 c 0
 127.302734375 -5.5 122.969726562 -2.5732421875 122.969726562 3.240234375 c 0
 122.969726562 4.671875 123.141601562 5.1083984375 123.141601562 6.5830078125 c 0
 123.141601562 13.8037109375 121.936523438 6.7099609375 121.936523438 16.4013671875 c 0
 121.936523438 26.9501953125 123.55859375 37.4658203125 123.55859375 47.6240234375 c 0
 123.55859375 52.705078125 122.999023438 56.8974609375 122.999023438 56.9912109375 c 0
 122.999023438 58.904296875 124.944335938 62.599609375 124.944335938 69.22265625 c 0
 124.944335938 86.7421875 109.797851562 98.912109375 92.0546875 100.365234375 c 1
 82.1748046875 86.291015625 80.26171875 53.33984375 79.3857421875 27.5615234375 c 0
 78.576171875 3.7099609375 78.1611328125 -8.4912109375 70.5068359375 -8.4912109375 c 0
 67.4619140625 -8.4912109375 65 -6.0205078125 65 -2.9970703125 c 0
 65 2.6044921875 67.4970703125 26.2470703125 67.4970703125 43.822265625 c 0
 67.4970703125 70.3662109375 62.4345703125 90.44140625 46.45703125 102.354492188 c 1
 39.1494140625 96.890625 33.634765625 88.181640625 30.4755859375 73.0322265625 c 0
 30.5478515625 71.0986328125 30.58203125 69.1376953125 30.58203125 67.1552734375 c 0
 30.58203125 44.1435546875 24.021484375 -0.4267578125 23.8857421875 -1.099609375 c 0
 23.36328125 -3.671875 21.10546875 -5.4990234375 18.5087890625 -5.4990234375 c 0
 15.4560546875 -5.4990234375 13 -3.025390625 13 0 c 0
 13 0.349609375 15.140625 12.388671875 15.939453125 34.8193359375 c 0
 16.4013671875 47.818359375 16.744140625 61.8271484375 19.3798828125 74.78515625 c 0
 19.2861328125 76.517578125 19 79.943359375 19 79.99609375 c 0
 19 80.080078125 19.40625 83.9150390625 19.40625 88.4150390625 c 0
 19.40625 98.25 17.94140625 108.104492188 17.94140625 118.569335938 c 0
EndSplineSet
EndChar

StartChar: n
Encoding: 110 110 27
Width: 109
Flags: HW
LayerCount: 2
Fore
SplineSet
86.890625 31.958984375 m 1
 71.787109375 64.2900390625 89.7568359375 109.912109375 65.3525390625 130.888671875 c 1
 63.001953125 130.092773438 41.6650390625 122.490234375 31.4404296875 105.276367188 c 1
 29.1171875 73.908203125 l 2
 29.861328125 70.8671875 30.5576171875 67.4970703125 30.5576171875 63.8525390625 c 0
 30.5576171875 62.1640625 30.408203125 60.4169921875 30.044921875 58.615234375 c 0
 30.3857421875 54.1298828125 30.5322265625 49.6669921875 30.5322265625 45.23046875 c 0
 30.5322265625 31.7529296875 29.17578125 18.5146484375 27.7587890625 5.6083984375 c 0
 27.9189453125 5.0830078125 27.9970703125 4.5439453125 27.9970703125 4.0078125 c 0
 27.9970703125 3.9423828125 27.71484375 3.6298828125 26.9912109375 -2.3828125 c 0
 26.974609375 -2.5166015625 26.984375 -2.583984375 26.876953125 -3.048828125 c 0
 26.8955078125 -3.1015625 26.96875 -3.1953125 26.96875 -3.3828125 c 0
 26.96875 -3.7763671875 25.6171875 -7.0927734375 21.390625 -7.0927734375 c 0
 17.3173828125 -7.0927734375 16 -3.6259765625 16 -3.04296875 c 0
 16 -2.7978515625 16.078125 -2.68359375 16.078125 -2.68359375 c 2
 16.0283203125 -2.3759765625 15.998046875 -2.1826171875 15.998046875 -1.4287109375 c 0
 15.998046875 -0.7138671875 15.998046875 -0.7138671875 16.6123046875 4.865234375 c 0
 15.587890625 9.8984375 16.111328125 14.583984375 15.14453125 18.73828125 c 0
 15.048828125 19.1513671875 15 19.5751953125 15 20 c 2
 15 31.9970703125 l 2
 15 32.205078125 15 32.205078125 18.017578125 72.9423828125 c 1
 16.4814453125 79.1044921875 15.7373046875 82.091796875 15.7373046875 86.5107421875 c 0
 15.7373046875 89.8349609375 15.7373046875 99.1142578125 20.654296875 108.541015625 c 1
 23.0146484375 140.409179688 l 2
 23.2255859375 143.262695312 25.6025390625 145.506835938 28.4990234375 145.506835938 c 0
 31.5341796875 145.506835938 33.998046875 143.04296875 33.998046875 140.0078125 c 0
 33.998046875 139.801757812 33.998046875 139.801757812 32.8330078125 124.076171875 c 1
 47.3583984375 137.556640625 64.4150390625 142.499023438 66.4970703125 142.499023438 c 0
 67.5380859375 142.499023438 69.4365234375 142.499023438 75.0048828125 136.9296875 c 0
 101.344726562 110.58984375 82.982421875 64.1455078125 97.412109375 35.4736328125 c 0
 97.7998046875 34.7041015625 98 33.8515625 98 32.98828125 c 0
 98 32.6328125 96.9853515625 20.9228515625 94.9775390625 -2.47265625 c 0
 94.736328125 -5.2861328125 92.3740234375 -7.4970703125 89.4990234375 -7.4970703125 c 0
 86.4638671875 -7.4970703125 84 -5.033203125 84 -1.998046875 c 0
 84 -1.6572265625 84.779296875 7.3251953125 86.890625 31.958984375 c 1
EndSplineSet
EndChar

StartChar: o
Encoding: 111 111 28
Width: 121
Flags: HW
HStem: -3.76194 10.9575<44.7312 83.543> 128.499 20G<49.3278 71.5377 71.5377 76.0636>
VStem: 9 10.9995<37.1004 87.3523> 99.0402 11.7929<24.2833 99.2078>
LayerCount: 2
Fore
SplineSet
62.2392578125 -3.76171875 m 0
 24.4091796875 -3.76171875 9 41.6767578125 9 54.7392578125 c 0
 9 93.4619140625 30.431640625 141.170898438 69.5234375 148.40625 c 0
 69.857421875 148.467773438 70.197265625 148.499023438 70.5380859375 148.499023438 c 2
 71.5380859375 148.499023438 l 2
 73.9091796875 148.499023438 75.931640625 146.995117188 76.703125 144.889648438 c 0
 79.84765625 142.248046875 109.670898438 115.975585938 110.03515625 69.3203125 c 0
 110.518554688 64.869140625 110.833007812 59.9990234375 110.833007812 54.951171875 c 0
 110.833007812 39.0615234375 107.19140625 1.8623046875 73.5185546875 -2.419921875 c 0
 69.6142578125 -3.333984375 65.849609375 -3.76171875 62.2392578125 -3.76171875 c 0
19.9990234375 54.626953125 m 0
 19.9990234375 47.310546875 31.7763671875 7.1953125 61.9921875 7.1953125 c 0
 64.943359375 7.1953125 79.5546875 7.626953125 87.8388671875 15.9111328125 c 0
 96.58984375 24.662109375 99.7548828125 40.740234375 99.7548828125 56.0107421875 c 0
 99.7548828125 62.7099609375 99.0390625 68.8486328125 99.0390625 68.978515625 c 0
 98.9287109375 92.8115234375 87.8564453125 121.629882812 68.9453125 137.030273438 c 1
 36.67578125 129.01953125 19.9990234375 85.8837890625 19.9990234375 54.626953125 c 0
EndSplineSet
EndChar

StartChar: p
Encoding: 112 112 29
Width: 119
Flags: HW
LayerCount: 2
Fore
SplineSet
52.94921875 112.413085938 m 1
 41.3740234375 108.977539062 34.6484375 99.29296875 31.1328125 80.98828125 c 0
 31.7177734375 44.9482421875 31.7177734375 44.9482421875 32.09375 37.0546875 c 1
 44.271484375 28.837890625 54.5751953125 22.4931640625 68.701171875 22.4931640625 c 0
 86.3955078125 22.4931640625 98.8857421875 40.0068359375 98.8857421875 55.3740234375 c 0
 98.8857421875 59.7333984375 98.009765625 61.5654296875 98.009765625 62.998046875 c 0
 98.009765625 63.3583984375 98.07421875 63.9853515625 98.07421875 65.2470703125 c 0
 98.07421875 88.50390625 74.6611328125 109.606445312 52.94921875 112.413085938 c 1
30.1669921875 108.885742188 m 1
 39.6943359375 122.073242188 52.3916015625 123.5 52.517578125 123.5 c 0
 70.5146484375 123.5 109.073242188 100.806640625 109.073242188 65.30078125 c 0
 109.073242188 64.697265625 109.061523438 64.091796875 109.037109375 63.4853515625 c 0
 109.62890625 60.7353515625 109.909179688 57.9697265625 109.909179688 55.224609375 c 0
 109.909179688 34.3310546875 92.9013671875 11.4951171875 68.70703125 11.4951171875 c 0
 54.32421875 11.4951171875 43.19921875 16.8564453125 32.986328125 23.2939453125 c 1
 34.3486328125 7.19921875 34.404296875 6.5498046875 31.482421875 -26.5107421875 c 0
 30.9541015625 -32.490234375 30.427734375 -38.447265625 29.9931640625 -44.4033203125 c 0
 29.7841796875 -47.26953125 27.3984375 -49.498046875 24.5087890625 -49.498046875 c 0
 21.6845703125 -49.498046875 19.3291015625 -47.36328125 19.0419921875 -44.5673828125 c 0
 17.5712890625 -30.2880859375 17.26171875 -15.9931640625 17.26171875 -1.771484375 c 0
 17.26171875 8.634765625 17.427734375 19.130859375 17.427734375 29.5888671875 c 0
 17.427734375 30.947265625 17.42578125 32.3046875 17.4189453125 33.6611328125 c 0
 15.533203125 34.896484375 13.6220703125 36.1123046875 11.6689453125 37.2890625 c 0
 10.0703125 38.251953125 9 40.00390625 9 42.0048828125 c 0
 9 45.041015625 11.46484375 47.505859375 14.5009765625 47.505859375 c 0
 15.486328125 47.505859375 16.4111328125 47.24609375 17.220703125 46.7861328125 c 1
 17.1376953125 49.8046875 17.009765625 52.939453125 17.009765625 53.001953125 c 0
 17.009765625 53.302734375 18.1181640625 72.310546875 20.0966796875 82.958984375 c 0
 19.400390625 121.100585938 17.0087890625 126.577148438 17.0087890625 130 c 0
 17.0087890625 133.03515625 19.47265625 135.499023438 22.5078125 135.499023438 c 0
 25.267578125 135.499023438 27.5546875 133.462890625 27.9482421875 130.8125 c 0
 29.001953125 123.7109375 29.6962890625 116.375 30.1669921875 108.885742188 c 1
EndSplineSet
EndChar

StartChar: q
Encoding: 113 113 30
Width: 101
Flags: HW
LayerCount: 2
Fore
SplineSet
81.490234375 107.622070312 m 0
 82.076171875 93.08203125 83.7646484375 79.28515625 83.7646484375 65.6591796875 c 0
 83.7646484375 61.8173828125 83.62890625 57.99609375 83.2900390625 54.234375 c 0
 83.376953125 49.6552734375 83.4072265625 45.060546875 83.4384765625 40.4775390625 c 0
 83.646484375 10.2880859375 84.166015625 -18.7529296875 99.0009765625 -39.8388671875 c 0
 99.630859375 -40.7333984375 100 -41.8232421875 100 -42.9990234375 c 0
 100 -46.03515625 97.53515625 -48.5 94.4990234375 -48.5 c 0
 92.6396484375 -48.5 90.9931640625 -47.57421875 89.998046875 -46.1611328125 c 0
 75.9697265625 -26.22265625 73.2822265625 -1.681640625 72.6611328125 22.671875 c 1
 67.32421875 15.302734375 57.669921875 7.498046875 53.0654296875 7.498046875 c 0
 25.7939453125 7.498046875 9.03515625 36.44921875 9 62.9921875 c 0
 9 63.1396484375 9 63.1396484375 10.69140625 72.6494140625 c 0
 14.9443359375 96.5517578125 20.8681640625 129.849609375 48.77734375 133.454101562 c 0
 49.0146484375 133.485351562 49.2529296875 133.5 49.490234375 133.5 c 0
 52.8076171875 133.5 62.32421875 128.915039062 70.5703125 124.569335938 c 1
 71.5380859375 138.37890625 73.431640625 140.498046875 77.4931640625 140.498046875 c 0
 83.11328125 140.498046875 83.11328125 135.217773438 83.11328125 130.375976562 c 0
 83.11328125 125.93359375 82.82421875 121.615234375 82.4482421875 117.40234375 c 0
 82.80078125 116.676757812 82.9990234375 115.862304688 82.9990234375 115.001953125 c 0
 82.9990234375 114.92578125 81.8759765625 111.607421875 81.490234375 107.622070312 c 0
72.240234375 56.1494140625 m 0
 71.6357421875 81.255859375 69.609375 80.9384765625 69.609375 93.064453125 c 0
 69.609375 98.072265625 69.990234375 102.943359375 70.4453125 107.702148438 c 0
 70.3837890625 109.249023438 70.3359375 110.791992188 70.306640625 112.330078125 c 0
 52.5087890625 121.196289062 52.5087890625 121.196289062 49.0341796875 122.365234375 c 0
 31.9072265625 119.275390625 26.2060546875 97.0595703125 21.5185546875 70.7109375 c 0
 21.0068359375 67.8330078125 20.5146484375 65.06640625 20.001953125 62.47265625 c 0
 20.2314453125 43.92578125 31.3720703125 19.2783203125 52.041015625 18.5146484375 c 1
 64.76171875 26.169921875 70.755859375 38.01171875 72.240234375 56.1494140625 c 0
EndSplineSet
EndChar

StartChar: r
Encoding: 114 114 31
Width: 86
Flags: HW
LayerCount: 2
Fore
SplineSet
21.3759765625 70.3583984375 m 0
 19.494140625 111.477539062 16 133.361328125 16 134 c 2
 16 137 l 2
 16 140.03515625 18.4638671875 142.499023438 21.4990234375 142.499023438 c 0
 24.5341796875 142.499023438 26.998046875 140.03515625 26.998046875 137 c 2
 26.998046875 134.374023438 l 2
 27.734375 128.923828125 28.380859375 123.516601562 28.951171875 118.12890625 c 1
 31.1279296875 120.80078125 38.8046875 128.501953125 55.01171875 128.501953125 c 0
 71 128.501953125 80 102.637695312 80 98.9951171875 c 0
 80 95.958984375 77.53515625 93.494140625 74.4990234375 93.494140625 c 0
 66.1025390625 93.494140625 67.6142578125 114.836914062 54.96875 117.502929688 c 0
 49.1650390625 117.474609375 39.865234375 115.37890625 36.7314453125 110.114257812 c 0
 36.4765625 108.630859375 36.3798828125 106.827148438 36.3798828125 104.819335938 c 0
 36.3798828125 99.4931640625 37.0078125 94.208984375 37.0078125 88.9619140625 c 0
 37.0078125 84.5810546875 35.009765625 84.4716796875 32.4345703125 69.27734375 c 0
 32.4404296875 69.134765625 32.998046875 56.01953125 32.998046875 54.998046875 c 0
 32.998046875 42.529296875 28.970703125 20.2392578125 27.59375 6.9326171875 c 0
 27.0703125 -1.302734375 26.8037109375 -5.498046875 21.5048828125 -5.498046875 c 0
 18.45703125 -5.498046875 16 -3.0302734375 16 0 c 0
 16 0.7060546875 18.5048828125 53.3330078125 21.3759765625 70.3583984375 c 0
EndSplineSet
EndChar

StartChar: s
Encoding: 115 115 32
Width: 107
Flags: HW
LayerCount: 2
Fore
SplineSet
44.3466796875 152.022460938 m 0
 54.205078125 152.022460938 61.1552734375 145.098632812 67.9580078125 143.499023438 c 1
 68.3740234375 143.499023438 l 2
 71.4091796875 143.499023438 73.873046875 141.03515625 73.873046875 138 c 0
 73.873046875 134.96484375 71.4091796875 132.500976562 68.3740234375 132.500976562 c 2
 67.3740234375 132.500976562 l 2
 60.869140625 132.500976562 50.814453125 141.020507812 44.3271484375 141.020507812 c 0
 42.33984375 141.020507812 41.755859375 140.5 40.3671875 140.5 c 0
 39.1416015625 140.5 38.0458984375 141.034179688 35.3671875 141.034179688 c 0
 26.8671875 141.034179688 19.9765625 134.75390625 19.9765625 126.306640625 c 0
 19.9765625 110.615234375 41.8935546875 100.725585938 54.8173828125 94.89453125 c 0
 75.255859375 85.671875 98.3681640625 75.2431640625 98.873046875 42.9990234375 c 0
 98.873046875 42.6806640625 98.279296875 27.3828125 85.13671875 14.240234375 c 0
 74.2060546875 3.3095703125 58.6787109375 -2.5 43.625 -2.5 c 0
 42.8125 -2.5 23.271484375 1.568359375 19.0537109375 17.607421875 c 0
 18.935546875 18.0546875 18.873046875 18.5244140625 18.873046875 19.0087890625 c 0
 18.873046875 22.0439453125 21.337890625 24.5087890625 24.373046875 24.5087890625 c 0
 33.1767578125 24.5087890625 23.533203125 16.0400390625 44.314453125 8.50390625 c 1
 63.4423828125 8.79296875 85.111328125 21.0634765625 87.869140625 43.27734375 c 0
 86.8466796875 89.732421875 25.2294921875 78.17578125 10.228515625 118.0546875 c 0
 10.2001953125 118.131835938 9 121.626953125 9 126.202148438 c 0
 9 140.830078125 20.7392578125 152.030273438 35.3974609375 152.030273438 c 0
 36.9970703125 152.030273438 38.625 151.895507812 40.2685546875 151.618164062 c 0
 41.6767578125 151.8984375 43.0361328125 152.022460938 44.3466796875 152.022460938 c 0
EndSplineSet
EndChar

StartChar: t
Encoding: 116 116 33
Width: 99
Flags: HW
LayerCount: 2
Fore
SplineSet
33.80859375 120.201171875 m 1
 29.4111328125 120.159179688 27.716796875 119.500976562 26.4990234375 119.500976562 c 2
 9.4990234375 119.500976562 l 2
 6.4638671875 119.500976562 4 121.96484375 4 125 c 0
 4 128.03515625 6.4638671875 130.499023438 9.4990234375 130.499023438 c 2
 25.984375 130.499023438 l 2
 28.6669921875 130.984375 31.310546875 131.202148438 33.91015625 131.227539062 c 0
 34.185546875 150.796875 35.0107421875 170.2265625 37 189.2890625 c 1
 37 193 l 2
 37 196.03515625 39.4638671875 198.499023438 42.4990234375 198.499023438 c 0
 45.5341796875 198.499023438 47.998046875 196.03515625 47.998046875 193 c 2
 47.998046875 189 l 2
 47.998046875 188.413085938 45.408203125 168.029296875 44.9013671875 130.361328125 c 0
 48.185546875 129.865234375 51.375 129.224609375 54.4541015625 128.620117188 c 0
 60.779296875 127.377929688 66.6845703125 126.275390625 72.15625 126.275390625 c 0
 74.0712890625 126.275390625 76.46484375 126.5 76.5087890625 126.5 c 0
 79.5439453125 126.5 82.0078125 124.036132812 82.0078125 121.000976562 c 0
 82.0078125 115.265625 75.94140625 115.265625 71.9599609375 115.265625 c 0
 65.0986328125 115.265625 58.5380859375 116.609375 52.3232421875 117.829101562 c 0
 49.755859375 118.333007812 47.2509765625 118.814453125 44.806640625 119.209960938 c 1
 44.7978515625 117.228515625 44.7939453125 115.245117188 44.7939453125 113.258789062 c 0
 44.7939453125 75.1201171875 45.998046875 61.5205078125 45.998046875 60.998046875 c 2
 45.998046875 29 l 2
 45.998046875 28.73828125 45.9716796875 28.45703125 45.9716796875 27.849609375 c 0
 45.9716796875 21.515625 48.6064453125 17.5205078125 69.19140625 17.5205078125 c 0
 71.5947265625 17.5205078125 73.359375 17.5771484375 75.7763671875 17.5771484375 c 0
 76.71484375 17.5771484375 77.63671875 17.5673828125 78.5390625 17.541015625 c 0
 88.4384765625 21.5 88.4384765625 21.5 89.5 21.5 c 0
 92.5361328125 21.5 95.0009765625 19.03515625 95.0009765625 15.9990234375 c 0
 95.0009765625 13.68359375 93.5673828125 11.701171875 91.5458984375 10.89453125 c 0
 80.5712890625 6.5009765625 80.5712890625 6.5009765625 79.5 6.5009765625 c 0
 79.462890625 6.5009765625 78.0166015625 6.5771484375 75.7578125 6.5771484375 c 0
 71.7919921875 6.5771484375 68.03125 6.439453125 64.9326171875 6.439453125 c 0
 47.275390625 6.439453125 34.9775390625 12.1357421875 34.9775390625 28.0029296875 c 0
 34.9775390625 28.37109375 34.9853515625 28.7421875 35 29.1171875 c 2
 35 60.8740234375 l 1
 33.79296875 87.41796875 33.79296875 89.0732421875 33.79296875 113.465820312 c 0
 33.79296875 115.711914062 33.7978515625 117.95703125 33.80859375 120.201171875 c 1
EndSplineSet
EndChar

StartChar: u
Encoding: 117 117 34
Width: 116
Flags: HW
LayerCount: 2
Fore
SplineSet
28.6044921875 125.797851562 m 0
 28.763671875 125.3359375 28.9072265625 124.71875 28.9072265625 123.997070312 c 0
 28.9072265625 106.036132812 28.90234375 88.0751953125 28.90234375 70.115234375 c 0
 28.9794921875 68.2470703125 29.01171875 66.4130859375 29.01171875 64.6103515625 c 0
 29.01171875 53.9423828125 27.8583984375 44.2060546875 27.8583984375 34.314453125 c 0
 27.8583984375 33.330078125 27.900390625 30.6904296875 27.900390625 30.654296875 c 0
 27.900390625 19.7109375 35.8046875 10.6875 46.796875 10.6875 c 0
 55.1181640625 10.6875 63.4287109375 18.12890625 66.5478515625 21.248046875 c 0
 77.7109375 32.4111328125 83.078125 49.330078125 85.7314453125 67.923828125 c 0
 88.4443359375 114.212890625 88.4443359375 114.212890625 88.49609375 115.22265625 c 0
 88.77734375 133.546875 88.78125 133.82421875 90.1611328125 135.49609375 c 0
 91.248046875 136.815429688 92.822265625 137.497070312 94.4091796875 137.497070312 c 0
 100.1484375 137.497070312 100.1484375 131.46875 100.1484375 127.499023438 c 0
 100.1484375 123.362304688 99.8544921875 117.595703125 99.427734375 110.717773438 c 0
 99.2109375 96.09765625 98.9365234375 79.7734375 96.5263671875 64.0673828125 c 0
 95.6943359375 49.6259765625 95.0146484375 36.333984375 94.908203125 28.447265625 c 0
 95.6796875 23.7841796875 95.955078125 4.8173828125 99.0224609375 2.142578125 c 0
 100.178710938 1.1337890625 100.91015625 -0.3505859375 100.91015625 -2.00390625 c 0
 100.91015625 -5.0400390625 98.4453125 -7.5048828125 95.41015625 -7.5048828125 c 0
 94.6904296875 -7.5048828125 93.1064453125 -7.5048828125 91.1513671875 -5.548828125 c 0
 84.7548828125 0.8466796875 85.064453125 11.7158203125 84.66796875 19.09375 c 0
 84.517578125 21.91015625 84.3544921875 24.474609375 84.125 26.173828125 c 1
 77.2490234375 14.5947265625 62.8173828125 -0.2919921875 46.9052734375 -0.2919921875 c 0
 29.826171875 -0.2919921875 16.90234375 13.4755859375 16.90234375 30.654296875 c 0
 16.90234375 30.75390625 16.9033203125 30.853515625 16.904296875 30.953125 c 0
 16.873046875 32.0986328125 16.859375 33.2333984375 16.859375 34.359375 c 0
 16.859375 44.6357421875 18.0126953125 54.3408203125 18.0126953125 64.6552734375 c 0
 18.0126953125 67.8193359375 17.904296875 69.662109375 17.904296875 70 c 2
 17.904296875 115.684570312 l 1
 17.861328125 115.668945312 14.8798828125 114.569335938 13.4599609375 114.569335938 c 0
 10.876953125 114.569335938 8 117.147460938 8 120.416992188 c 0
 8 123.315429688 8 123.315429688 18.0185546875 131.125976562 c 0
 18.9384765625 135.536132812 24 135.767578125 24.2900390625 135.767578125 c 0
 26.595703125 135.767578125 29.9755859375 133.631835938 29.9755859375 129.708007812 c 0
 29.9755859375 129.420898438 29.9287109375 127.35546875 28.6044921875 125.797851562 c 0
EndSplineSet
EndChar

StartChar: z
Encoding: 122 122 35
Width: 102
Flags: HW
LayerCount: 2
Fore
SplineSet
20.7431640625 130.198242188 m 1
 20.7431640625 130.198242188 20.7421875 130.1953125 20.7431640625 130.198242188 c 1
36.81640625 6.7763671875 m 2
 38.4140625 7.689453125 87.044921875 13.5 87.556640625 13.5 c 0
 90.591796875 13.5 93.0556640625 11.0361328125 93.0556640625 8.0009765625 c 0
 93.0556640625 5.1982421875 90.9560546875 2.8828125 88.2333984375 2.5439453125 c 2
 41.298828125 -3.3232421875 l 1
 35.455078125 -6.5380859375 25.603515625 -11.3408203125 18.9130859375 -11.3408203125 c 0
 13.3046875 -11.3408203125 10 -7.5048828125 10 -2.6884765625 c 0
 10 -2.1689453125 10 -0.87109375 10.56640625 0.3369140625 c 0
 30.7578125 43.412109375 53.794921875 90.1357421875 76.1171875 131.229492188 c 1
 74.1220703125 131.043945312 72.1416015625 130.799804688 70.1083984375 130.546875 c 0
 65.998046875 130.036132812 61.666015625 129.487304688 56.8076171875 129.487304688 c 0
 56.3720703125 129.487304688 55.931640625 129.4921875 55.4873046875 129.500976562 c 2
 36.1357421875 129.500976562 l 2
 34.3974609375 128.61328125 32.619140625 128.330078125 30.958984375 128.330078125 c 0
 27.7861328125 128.330078125 24.0234375 129.5859375 20.5986328125 129.5859375 c 0
 20.5390625 129.5859375 18.98828125 126.495117188 15.5458984375 126.495117188 c 0
 12.509765625 126.495117188 10.0458984375 128.959960938 10.0458984375 131.99609375 c 0
 10.0458984375 134.793945312 13.0625 140.77734375 20.7578125 140.77734375 c 0
 24.1796875 140.77734375 27.4384765625 139.5546875 31.4501953125 139.546875 c 0
 32.3603515625 140.166015625 33.4453125 140.502929688 34.556640625 140.502929688 c 0
 55.546875 140.502929688 55.546875 140.502929688 55.546875 140.502929688 c 2
 55.55859375 140.502929688 55.9287109375 140.485351562 56.787109375 140.485351562 c 0
 65.3056640625 140.485351562 72.8291015625 142.560546875 82.7373046875 142.560546875 c 0
 85.5595703125 142.560546875 91.0517578125 142.560546875 91.0517578125 136.999023438 c 0
 91.0517578125 136.614257812 91.017578125 135.521484375 90.3662109375 134.33984375 c 0
 67.6171875 93.083984375 43.74609375 45 22.7646484375 0.427734375 c 1
 28.5234375 2.2568359375 36.81640625 6.7763671875 36.81640625 6.7763671875 c 2
EndSplineSet
EndChar

StartChar: v
Encoding: 118 118 36
Width: 114
Flags: HW
LayerCount: 2
Fore
SplineSet
102.502929688 141.5078125 m 0
 105.5390625 141.5078125 108.00390625 139.04296875 108.00390625 136.006835938 c 0
 108.00390625 133.872070312 105.069335938 128.9375 105.025390625 128.874023438 c 0
 76.9951171875 88.361328125 73.3046875 36.7666015625 45.0947265625 -6.0244140625 c 0
 44.7216796875 -6.58984375 43.259765625 -8.4990234375 40.5009765625 -8.4990234375 c 0
 40.1650390625 -8.4990234375 36.6220703125 -8.4140625 35.3349609375 -4.89453125 c 0
 20.716796875 35.083984375 19.0107421875 87.791015625 9.734375 131.993164062 c 0
 8.6669921875 132.997070312 8 134.420898438 8 136 c 0
 8 139.03515625 10.4638671875 141.499023438 13.4990234375 141.499023438 c 2
 14.4990234375 141.499023438 l 2
 17.0712890625 141.499023438 19.3115234375 139.700195312 19.8623046875 137.19140625 c 0
 28.6796875 97.0556640625 31.0166015625 48.0380859375 42.0078125 10.1279296875 c 1
 63.791015625 49.4306640625 69.046875 95.994140625 95.7509765625 134.8046875 c 0
 98.3056640625 139.9140625 99.1025390625 141.5078125 102.502929688 141.5078125 c 0
EndSplineSet
EndChar

StartChar: w
Encoding: 119 119 37
Width: 133
Flags: HW
LayerCount: 2
Fore
SplineSet
89.3349609375 33.3544921875 m 1
 95.865234375 62.9150390625 108.1015625 92.1533203125 112.005859375 120.377929688 c 1
 112.005859375 124 l 2
 112.005859375 127.03515625 114.469726562 129.499023438 117.504882812 129.499023438 c 0
 120.540039062 129.499023438 123.00390625 127.03515625 123.00390625 124 c 2
 123.00390625 120.005859375 l 2
 123.00390625 99.2607421875 97.30078125 41.04296875 95.998046875 0.8203125 c 0
 95.90234375 -2.1328125 93.4794921875 -4.498046875 90.49609375 -4.498046875 c 0
 87.978515625 -4.498046875 85.7890625 -2.7861328125 85.173828125 -0.3544921875 c 0
 79.30859375 22.84765625 75.4521484375 48.255859375 72.599609375 73.4052734375 c 1
 68.07421875 45.5693359375 61.9609375 17.7958984375 48.392578125 -8.521484375 c 0
 47.4794921875 -10.29296875 45.625 -11.498046875 43.505859375 -11.498046875 c 0
 41.1123046875 -11.498046875 39.05859375 -9.970703125 38.3095703125 -7.8056640625 c 0
 22.52734375 37.755859375 28.7275390625 85.4765625 7.6142578125 126.481445312 c 0
 7.2197265625 127.24609375 7 128.1015625 7 129.005859375 c 0
 7 132.041992188 9.46484375 134.506835938 12.5009765625 134.506835938 c 0
 14.6318359375 134.506835938 16.4814453125 133.29296875 17.3955078125 131.518554688 c 0
 37.4638671875 92.5419921875 34.3251953125 50.087890625 44.630859375 9.48046875 c 1
 56.2021484375 37.2744140625 60.66015625 67.0888671875 65.1669921875 97.642578125 c 0
 66.087890625 103.885742188 67.0126953125 110.154296875 68.005859375 116.435546875 c 2
 68.005859375 122 l 2
 68.005859375 125.034179688 70.4638671875 127.498046875 73.5068359375 127.498046875 c 0
 76.3662109375 127.498046875 78.74609375 125.307617188 78.982421875 122.458007812 c 0
 81.3603515625 93.7919921875 84.2626953125 62.5888671875 89.3349609375 33.3544921875 c 1
EndSplineSet
EndChar

StartChar: x
Encoding: 120 120 38
Width: 121
Flags: HW
HStem: 120.572 20G<19.6375 39.9423 105.942 115.06>
LayerCount: 2
Fore
SplineSet
18.9951171875 138.005859375 m 0
 18.9951171875 141.041992188 21.4599609375 143.506835938 24.49609375 143.506835938 c 0
 26.6064453125 143.506835938 28.439453125 142.317382812 29.3623046875 140.572265625 c 2
 61.0595703125 80.6533203125 l 1
 61.0595703125 80.6533203125 105.939453125 147.076171875 105.944335938 147.083007812 c 0
 106.93359375 148.546875 108.608398438 149.509765625 110.505859375 149.509765625 c 0
 113.541992188 149.509765625 116.006835938 147.044921875 116.006835938 144.008789062 c 0
 116.006835938 142.87109375 115.66015625 141.8125 115.060546875 140.923828125 c 2
 66.8896484375 69.630859375 l 1
 102.362304688 2.572265625 l 2
 102.768554688 1.8056640625 102.998046875 0.9326171875 102.998046875 0.005859375 c 0
 102.998046875 -3.0302734375 100.533203125 -5.49609375 97.4970703125 -5.49609375 c 0
 95.3876953125 -5.49609375 93.5537109375 -4.3056640625 92.6376953125 -2.572265625 c 2
 59.908203125 59.298828125 l 1
 59.908203125 59.298828125 15.060546875 -7.076171875 15.0556640625 -7.0830078125 c 0
 14.0732421875 -8.5361328125 12.3984375 -9.4990234375 10.5009765625 -9.4990234375 c 0
 7.46484375 -9.4990234375 5 -7.0341796875 5 -3.998046875 c 0
 5 -2.859375 5.3466796875 -1.8017578125 5.939453125 -0.923828125 c 2
 54.078125 70.3212890625 l 1
 19.6376953125 135.427734375 l 2
 19.2255859375 136.205078125 18.9951171875 137.079101562 18.9951171875 138.005859375 c 0
EndSplineSet
EndChar

StartChar: y
Encoding: 121 121 39
Width: 98
Flags: HW
LayerCount: 2
Fore
SplineSet
12.5029296875 -42.5 m 0
 13.5322265625 -42.5 15.4111328125 -43.0419921875 18.482421875 -43.0419921875 c 0
 30.509765625 -43.0419921875 35.3525390625 -33.39453125 42.0078125 -16.744140625 c 0
 44.2529296875 -11.126953125 46.5478515625 -5.1708984375 49.7431640625 0.2412109375 c 0
 49.357421875 0.908203125 49.357421875 0.908203125 48.21484375 5.4794921875 c 0
 29.638671875 63.01953125 7 132.657226562 7 134.006835938 c 0
 7 137.041992188 9.46484375 139.506835938 12.5 139.506835938 c 0
 14.947265625 139.506835938 17.0224609375 137.90625 17.736328125 135.696289062 c 2
 58.1376953125 10.5498046875 l 1
 58.7314453125 11.0546875 59.3466796875 11.5390625 59.9853515625 12 c 0
 59.9970703125 14.66015625 60.1103515625 18.533203125 60.1103515625 21.0185546875 c 0
 60.1103515625 27.85546875 59.0048828125 32.8779296875 59.0048828125 32.9990234375 c 0
 59.0048828125 61 73.0771484375 109.697265625 78.0791015625 139.904296875 c 0
 78.5107421875 142.520507812 80.77734375 144.510742188 83.5048828125 144.510742188 c 0
 86.5400390625 144.510742188 89.00390625 142.045898438 89.00390625 139.010742188 c 0
 89.00390625 138.703125 88.978515625 138.401367188 88.9296875 138.107421875 c 2
 88.9296875 138.095703125 l 1
 83.08984375 102.829101562 71.5009765625 68.4033203125 70.025390625 33.4619140625 c 0
 70.9169921875 29.041015625 71.1123046875 25.001953125 71.1123046875 21.1083984375 c 0
 71.1123046875 17.9580078125 70.9814453125 14.7197265625 70.9814453125 11.2919921875 c 0
 70.9814453125 10.05078125 71.0029296875 9.0244140625 71.0029296875 9.0009765625 c 0
 71.0029296875 7.0078125 69.912109375 5.15234375 68.1650390625 4.1875 c 0
 49.22265625 -6.2802734375 52.5341796875 -53.9873046875 18.0615234375 -53.9873046875 c 0
 12.7275390625 -53.9873046875 7.00390625 -53.39453125 7.00390625 -47.9990234375 c 0
 7.00390625 -44.9638671875 9.4677734375 -42.5 12.5029296875 -42.5 c 0
EndSplineSet
EndChar

StartChar: section
Encoding: 164 167 40
Width: 110
Flags: HW
LayerCount: 2
Fore
SplineSet
70.1220703125 177.767578125 m 0
 77.6611328125 177.767578125 81.3896484375 178.500976562 81.50390625 178.500976562 c 0
 84.5390625 178.500976562 87.0029296875 176.036132812 87.0029296875 173.000976562 c 0
 87.0029296875 167.802734375 82.3818359375 166.754882812 70.7275390625 166.754882812 c 0
 70.501953125 166.754882812 62.318359375 166.840820312 62.2333984375 166.840820312 c 0
 43.7919921875 166.840820312 41.0517578125 163.880859375 41.0517578125 156.838867188 c 0
 41.0517578125 155.444335938 41.201171875 153.783203125 41.5556640625 151.795898438 c 0
 44.75390625 148.939453125 49.419921875 145.814453125 54.7119140625 142.448242188 c 0
 54.97265625 142.485351562 55.2392578125 142.505859375 55.509765625 142.505859375 c 0
 57.9794921875 142.505859375 60.0712890625 140.875 60.765625 138.631835938 c 0
 75.396484375 129.399414062 99.107421875 114.315429688 99.107421875 88.720703125 c 0
 99.107421875 80.6591796875 95.7919921875 69.3916015625 80.7509765625 59.7578125 c 1
 94.015625 42.8564453125 104.28515625 23.6650390625 104.28515625 -1.2861328125 c 0
 104.28515625 -1.552734375 103.94921875 -17.8154296875 100.73046875 -27.7099609375 c 0
 96.8251953125 -39.71875 85.072265625 -42.7919921875 74.587890625 -45.533203125 c 0
 71.5107421875 -46.337890625 61.626953125 -49.501953125 61.490234375 -49.501953125 c 0
 37.3681640625 -49.501953125 17.84375 -30.6591796875 4.6845703125 -17.958984375 c 0
 3.6455078125 -16.9560546875 3 -15.5517578125 3 -13.9990234375 c 0
 3 -10.9638671875 5.46484375 -8.4990234375 8.5 -8.4990234375 c 0
 9.982421875 -8.4990234375 11.3291015625 -9.0869140625 12.3203125 -10.041015625 c 0
 27.0654296875 -24.271484375 41.7548828125 -37.412109375 60.421875 -38.4521484375 c 1
 69.1201171875 -34.716796875 82.62890625 -33.42578125 87.921875 -28.1328125 c 0
 93.03515625 -23.01953125 93.341796875 -1.2431640625 93.341796875 -0.9658203125 c 0
 93.341796875 31.47265625 73.6474609375 52.556640625 52.03515625 75.7236328125 c 0
 46.693359375 81.4482421875 30.18359375 99.1455078125 29.2216796875 102.461914062 c 0
 28.45703125 105.09765625 28.1142578125 107.588867188 28.1142578125 109.936523438 c 0
 28.1142578125 122.813476562 38.2021484375 130.604492188 44.8505859375 135.684570312 c 1
 41.177734375 138.081054688 31.9306640625 144.112304688 31.1279296875 147.833984375 c 0
 30.443359375 151.009765625 30.0888671875 153.98046875 30.0888671875 156.725585938 c 0
 30.0888671875 161.892578125 30.0888671875 177.93359375 57.9267578125 177.93359375 c 0
 61.2841796875 177.93359375 65.2509765625 177.767578125 70.1220703125 177.767578125 c 0
73.6669921875 68.306640625 m 1
 82.6806640625 73.7705078125 88.1142578125 80.4521484375 88.1142578125 88.6240234375 c 0
 88.1142578125 107.46484375 70.6787109375 119.33203125 54.765625 129.405273438 c 1
 44.78125 121.7734375 39.0244140625 117.374023438 39.0244140625 110.341796875 c 0
 39.0244140625 109.163085938 39.1865234375 107.896484375 39.5234375 106.508789062 c 0
 50.1064453125 93.080078125 62.1923828125 81.521484375 73.6669921875 68.306640625 c 1
EndSplineSet
EndChar

StartChar: paragraph
Encoding: 166 182 41
Width: 153
Flags: HW
LayerCount: 2
Fore
SplineSet
77.9609375 -25.80859375 m 0
 77.9609375 -26.83984375 77.998046875 -27.978515625 77.998046875 -28 c 2
 77.998046875 -29 l 2
 77.998046875 -32.03515625 75.5341796875 -34.4990234375 72.4990234375 -34.4990234375 c 0
 69.4638671875 -34.4990234375 67 -32.03515625 67 -29 c 2
 67 -28.091796875 l 2
 66.974609375 -27.3203125 66.962890625 -26.5576171875 66.962890625 -25.8037109375 c 0
 66.962890625 -7.3662109375 74.1396484375 5.7001953125 74.1396484375 20.9677734375 c 0
 74.1396484375 24.193359375 74.1396484375 24.193359375 73.064453125 31.1572265625 c 0
 70.875 45.3369140625 70.1748046875 59.2314453125 69.4853515625 72.7421875 c 0
 69.2451171875 77.453125 69.0068359375 82.1171875 68.7109375 86.734375 c 1
 65.931640625 86.38671875 65.931640625 86.38671875 64.9560546875 86.38671875 c 0
 64.728515625 86.38671875 64.5126953125 86.388671875 64.3125 86.388671875 c 0
 63.6572265625 86.0556640625 60.9453125 85.3994140625 59.8857421875 85.3994140625 c 0
 59.7470703125 85.3994140625 59.5986328125 85.40234375 59.4375 85.41015625 c 0
 58.564453125 85.287109375 57.7119140625 85.232421875 56.8818359375 85.232421875 c 0
 48.912109375 85.232421875 42.1943359375 90.5595703125 37.576171875 90.5595703125 c 0
 37.1474609375 90.5595703125 37.025390625 90.5 36.5068359375 90.5 c 0
 35.4111328125 90.5 35.193359375 90.7587890625 34.376953125 90.7587890625 c 0
 33.166015625 90.7587890625 31.654296875 90.3662109375 29.8544921875 90.3662109375 c 0
 28.65234375 90.3662109375 25.0048828125 90.3759765625 23.48828125 93.73046875 c 0
 23.3291015625 94.0810546875 8.263671875 126.998046875 7.486328125 128.7265625 c 0
 7.1650390625 129.439453125 7 130.215820312 7 130.998046875 c 0
 7 163.387695312 57.8359375 171.5 58.4912109375 171.5 c 0
 60.037109375 171.5 59.4501953125 171.104492188 62.3740234375 171.104492188 c 0
 63.375 171.104492188 68.11328125 171.39453125 68.1708984375 171.39453125 c 0
 70.1875 171.39453125 72.5576171875 171.038085938 74.7451171875 169.447265625 c 0
 75.037109375 169.487304688 75.037109375 169.487304688 107.580078125 170.458984375 c 1
 108.483398438 172.260742188 110.34765625 173.499023438 112.499023438 173.499023438 c 0
 114.533203125 173.499023438 116.310546875 172.391601562 117.26171875 170.748046875 c 1
 142.419921875 171.499023438 142.419921875 171.499023438 142.502929688 171.499023438 c 0
 145.538085938 171.499023438 148.001953125 169.03515625 148.001953125 166 c 0
 148.001953125 163.020507812 145.627929688 160.591796875 142.6640625 160.50390625 c 2
 119.44921875 159.810546875 l 1
 124.466796875 135.940429688 120.64453125 110.897460938 123.947265625 86.75 c 0
 123.981445312 86.5 123.998046875 86.2470703125 123.998046875 85.994140625 c 2
 123.998046875 44 l 2
 123.998046875 43.666015625 123.91796875 42.6533203125 123.91796875 40.822265625 c 0
 123.91796875 27.9150390625 128.05078125 15.734375 128.05078125 1.625 c 0
 128.05078125 0.8125 128.037109375 -0.005859375 128.0078125 -0.8330078125 c 0
 128.307617188 -3.9052734375 128.563476562 -7.154296875 128.563476562 -10.6630859375 c 0
 128.563476562 -13.1591796875 128.43359375 -15.787109375 128.098632812 -18.578125 c 1
 130 -25.2333984375 130 -25.2333984375 130 -26.0078125 c 0
 130 -29.04296875 127.536132812 -31.5078125 124.5 -31.5078125 c 0
 120.353515625 -31.5078125 119.899414062 -29.91796875 117.212890625 -20.5302734375 c 0
 117.071289062 -20.0341796875 117 -19.51953125 117 -19.00390625 c 0
 117 -18.0419921875 117.569335938 -15.51953125 117.569335938 -10.669921875 c 0
 117.569335938 -6.6748046875 117 -1.0986328125 117 -1.001953125 c 0
 117 -0.9755859375 117.051757812 0.3427734375 117.051757812 1.56640625 c 0
 117.051757812 14.5380859375 112.91796875 26.716796875 112.91796875 40.751953125 c 0
 112.91796875 41.8671875 112.944335938 42.99609375 113 44.138671875 c 2
 113 85.626953125 l 1
 109.592773438 111.069335938 113.53125 136.787109375 108.251953125 159.4765625 c 1
 78.1533203125 158.578125 78.1533203125 158.578125 78.125 158.477539062 c 0
 78.990234375 152.00390625 79.2919921875 145.360351562 79.2919921875 138.665039062 c 0
 79.2919921875 133.54296875 79.2919921875 133.54296875 78.013671875 106.211914062 c 0
 78.42578125 102.842773438 78.763671875 99.47265625 79.0498046875 96.1015625 c 0
 79.6552734375 95.21875 80.0087890625 94.150390625 80.0087890625 93.0009765625 c 0
 80.0087890625 92.1533203125 79.81640625 91.3515625 79.4736328125 90.634765625 c 0
 79.880859375 84.857421875 80.1748046875 79.080078125 80.46875 73.306640625 c 0
 81.15625 59.8369140625 81.8505859375 46.390625 83.912109375 32.9794921875 c 0
 84.775390625 28.7626953125 85.125 24.787109375 85.125 21.0048828125 c 0
 85.125 3.80859375 77.9609375 -9.0576171875 77.9609375 -25.80859375 c 0
57.1015625 96.2587890625 m 0
 59.96875 96.2587890625 60.1640625 97.49609375 62.4990234375 97.49609375 c 0
 62.970703125 97.49609375 64.3544921875 97.4033203125 64.373046875 97.4013671875 c 2
 64.373046875 97.4013671875 64.8125 97.3623046875 65.115234375 97.3623046875 c 0
 65.142578125 97.3623046875 65.953125 97.4736328125 67.8642578125 97.712890625 c 1
 67.712890625 99.328125 67 105.921875 67 106.004882812 c 0
 67 108.391601562 68.275390625 126.018554688 68.275390625 138.69140625 c 0
 68.275390625 151.061523438 67 158.799804688 67 159.002929688 c 0
 67 159.420898438 67.046875 159.836914062 67.1396484375 160.243164062 c 1
 66.9658203125 160.243164062 62.029296875 160.05078125 61.9775390625 160.05078125 c 0
 60.873046875 160.05078125 59.6787109375 160.125 58.4150390625 160.368164062 c 0
 36.6591796875 155.787109375 20.173828125 147.194335938 18.125 131.90625 c 0
 19.8544921875 128.078125 31.8564453125 101.912109375 31.9951171875 101.609375 c 0
 32.6435546875 101.685546875 33.4296875 101.759765625 34.3193359375 101.759765625 c 0
 35.0908203125 101.759765625 35.9404296875 101.704101562 36.84375 101.546875 c 0
 37.171875 101.565429688 37.49609375 101.57421875 37.81640625 101.57421875 c 0
 45.4306640625 101.57421875 51.66796875 96.2587890625 57.1015625 96.2587890625 c 0
EndSplineSet
EndChar

StartChar: Z
Encoding: 90 90 42
Width: 138
Flags: HW
LayerCount: 2
Fore
SplineSet
83.443359375 174.859375 m 0
 77.388671875 174.859375 69.3466796875 171.139648438 61.9521484375 171.139648438 c 0
 60.7197265625 171.139648438 59.466796875 171.233398438 58.1982421875 171.455078125 c 0
 55.6396484375 171.248046875 53.109375 171.161132812 50.607421875 171.161132812 c 0
 38.541015625 171.161132812 26.9169921875 173.184570312 15.34765625 173.502929688 c 0
 12.3779296875 173.584960938 9.9970703125 176.016601562 9.9970703125 179 c 0
 9.9970703125 182.03515625 12.4609375 184.499023438 15.49609375 184.499023438 c 0
 23.3359375 184.499023438 39.4267578125 182.166015625 50.716796875 182.166015625 c 0
 54.833984375 182.166015625 58.4248046875 182.499023438 58.5029296875 182.499023438 c 0
 59.646484375 182.499023438 59.8056640625 182.202148438 61.48046875 182.202148438 c 0
 67.791015625 182.202148438 75.8466796875 185.948242188 82.904296875 185.948242188 c 0
 87.712890625 185.948242188 86.78515625 184.602539062 102.342773438 184.602539062 c 0
 104.665039062 184.602539062 106.940429688 184.625 109.0390625 184.625 c 0
 126.918945312 184.625 130.001953125 182.651367188 130.001953125 177.994140625 c 0
 130.001953125 177.243164062 129.826171875 175.58984375 128.450195312 174.169921875 c 0
 86.68359375 131.10546875 57.65625 74.181640625 21.892578125 2.4873046875 c 1
 22.4423828125 2.537109375 70.4541015625 5.802734375 76.9326171875 6.4697265625 c 0
 77.123046875 6.4892578125 77.3134765625 6.4990234375 77.50390625 6.4990234375 c 0
 82.376953125 6.4990234375 95.3603515625 4.20703125 104.008789062 4.20703125 c 0
 114.467773438 4.20703125 120.27734375 7.5009765625 123.508789062 7.5009765625 c 0
 126.544921875 7.5009765625 129.008789062 5.037109375 129.008789062 2.0009765625 c 0
 129.008789062 -0.5732421875 127.236328125 -2.7373046875 124.840820312 -3.333984375 c 0
 112.802734375 -6.34375 110.90234375 -6.818359375 103.911132812 -6.818359375 c 0
 94.783203125 -6.818359375 86.3037109375 -5.017578125 77.6298828125 -4.5146484375 c 0
 56.1357421875 -6.701171875 35.1708984375 -6.912109375 13.138671875 -9.4638671875 c 0
 12.9306640625 -9.48828125 12.7216796875 -9.5 12.509765625 -9.5 c 0
 9.4384765625 -9.5 7 -7.0009765625 7 -4.0029296875 c 0
 7 -2.7294921875 7 -2.7294921875 15.0048828125 13.330078125 c 0
 42.4697265625 68.4345703125 72.22265625 128.35546875 112.8515625 173.576171875 c 1
 111.34765625 173.611328125 109.802734375 173.622070312 108.221679688 173.622070312 c 0
 106.033203125 173.622070312 104.049804688 173.602539062 101.924804688 173.602539062 c 0
 89.6494140625 173.602539062 83.62890625 174.859375 83.443359375 174.859375 c 0
EndSplineSet
EndChar

StartChar: C
Encoding: 67 67 43
Width: 130
Flags: HW
LayerCount: 2
Fore
SplineSet
10 93.9990234375 m 0
 10 108.421875 12.6103515625 180.998046875 65.1494140625 180.998046875 c 0
 67.552734375 180.998046875 70.04296875 180.844726562 72.62109375 180.528320312 c 0
 74.6298828125 180.6875 76.6376953125 180.766601562 78.6376953125 180.766601562 c 0
 92.34765625 180.766601562 105.686523438 177.026367188 116.61328125 169.534179688 c 0
 118.048828125 168.548828125 118.998046875 166.884765625 118.998046875 165.000976562 c 0
 118.998046875 161.96484375 116.533203125 159.5 113.497070312 159.5 c 0
 109.6640625 159.5 100.484375 169.767578125 78.609375 169.767578125 c 0
 75.1591796875 169.767578125 73.0966796875 169.500976562 72.49609375 169.500976562 c 0
 71.6162109375 169.500976562 68.982421875 170.025390625 64.8583984375 170.025390625 c 0
 32.7470703125 170.025390625 22.603515625 133.724609375 21.0205078125 94.4794921875 c 0
 21.712890625 91.2333984375 22.3955078125 87.8330078125 23.099609375 84.3271484375 c 0
 31.30078125 43.5087890625 41.283203125 3.5126953125 77.6376953125 1.4990234375 c 0
 82.681640625 1.548828125 85.7783203125 4.84765625 90.80078125 10.6630859375 c 0
 94.857421875 15.3603515625 99.3603515625 20.57421875 106.163085938 23.013671875 c 1
 116.971679688 29.4990234375 116.971679688 29.4990234375 118.495117188 29.4990234375 c 0
 121.53125 29.4990234375 123.99609375 27.0341796875 123.99609375 23.998046875 c 0
 123.99609375 20.8828125 123.99609375 20.8828125 111.334960938 13.28515625 c 0
 110.981445312 13.0732421875 110.604492188 12.9013671875 110.211914062 12.7734375 c 0
 105.999023438 11.3974609375 102.756835938 7.6767578125 99.1328125 3.48046875 c 0
 94.109375 -2.3369140625 87.923828125 -9.4990234375 77.5205078125 -9.4990234375 c 0
 74.6396484375 -9.4990234375 57.236328125 -8.873046875 42.6494140625 5.71484375 c 0
 23.3623046875 25.0009765625 17.29296875 57.3916015625 12.318359375 82.1474609375 c 0
 10 93.6884765625 10 93.6884765625 10 93.9990234375 c 0
EndSplineSet
EndChar

StartChar: .notdef
Encoding: 257 -1 44
Width: 92
Flags: HW
HStem: -8.29624 10.9588<31.5271 59.38> 174.606 20G<26.0085 29.0225 58.735 70.8521>
VStem: 18.8476 10.9947<14.5403 100.991> 22.5563 9.35201<175.612 176.064 187.211 194.519> 65.4267 11.012<8.72807 180.323>
LayerCount: 2
Fore
SplineSet
9 105.803710938 m 2
 9.0166015625 106.5390625 18.3427734375 160.134765625 21.1884765625 178.400390625 c 0
 20.3515625 179.366210938 19.845703125 180.625 19.845703125 182.000976562 c 0
 19.845703125 183.727539062 20.642578125 185.26953125 21.8896484375 186.278320312 c 0
 21.859375 186.51171875 21.84375 186.75 21.84375 186.991210938 c 0
 21.84375 187.091796875 21.9072265625 194.606445312 28.39453125 194.606445312 c 0
 29.650390625 194.606445312 33.638671875 193.814453125 33.638671875 188.884765625 c 0
 33.638671875 188.436523438 33.6123046875 188.004882812 33.529296875 187.171875 c 1
 43.8857421875 187.775390625 60.9375 192.494140625 65.345703125 192.494140625 c 0
 67.5 192.494140625 69.49609375 191.223632812 70.3779296875 189.220703125 c 0
 75.8115234375 176.8828125 76.796875 161.815429688 76.796875 146.5625 c 0
 76.796875 137.576171875 76.439453125 127.55078125 76.439453125 118.021484375 c 0
 76.439453125 101.59765625 77.8447265625 94.2470703125 77.8447265625 94.0068359375 c 0
 77.8447265625 92.4091796875 76.498046875 89.0771484375 76.498046875 76.6279296875 c 0
 76.498046875 63.498046875 77.9111328125 48.83203125 77.9111328125 37.0068359375 c 0
 77.9111328125 21.96875 76.3359375 -8.296875 44.5419921875 -8.296875 c 0
 37.2587890625 -8.296875 29.134765625 -6.5517578125 27.8642578125 -5.91015625 c 0
 20.3828125 -2.1328125 18.2197265625 6.017578125 18.2197265625 14.1796875 c 0
 18.2197265625 21.849609375 20.09765625 31.302734375 20.09765625 40.650390625 c 0
 20.09765625 47.8447265625 18.849609375 47.7138671875 18.845703125 49.9912109375 c 0
 18.83984375 53.876953125 18.8359375 57.7763671875 18.8359375 61.6875 c 0
 18.8359375 75.1923828125 18.884765625 88.8330078125 19.0654296875 102.484375 c 1
 18.57421875 101.95703125 17.0400390625 100.310546875 14.18359375 100.310546875 c 0
 10.794921875 100.310546875 9.013671875 103.466796875 9.013671875 104.731445312 c 0
 9.013671875 104.907226562 9.0400390625 105.001953125 9.0400390625 105.001953125 c 2
 9.00390625 105.291015625 9 105.803710938 9 105.803710938 c 2
32.841796875 176 m 0
 32.841796875 174.85546875 29.833984375 146.130859375 29.833984375 61.5869140625 c 0
 29.833984375 58.0341796875 29.8369140625 54.490234375 29.8427734375 50.9560546875 c 0
 30.912109375 47.7177734375 31.271484375 44.234375 31.271484375 40.666015625 c 0
 31.271484375 33.033203125 29.5966796875 24.9208984375 29.5966796875 15.5185546875 c 0
 29.5966796875 6.376953125 31.3994140625 4.822265625 32.3486328125 4.1865234375 c 0
 37.1787109375 3.125 41.2373046875 2.662109375 44.6630859375 2.662109375 c 0
 61.2412109375 2.662109375 66.6591796875 12.85546875 66.6591796875 39.94140625 c 0
 66.6591796875 41.7001953125 65.4560546875 76.3720703125 65.4560546875 76.740234375 c 0
 65.4560546875 82.8193359375 65.78125 88.689453125 66.767578125 94.111328125 c 0
 65.703125 101.501953125 65.4267578125 109.446289062 65.4267578125 117.577148438 c 0
 65.4267578125 126.337890625 65.744140625 134.94140625 65.744140625 144.354492188 c 0
 65.744140625 158.083984375 65.0458984375 170.982421875 61.7939453125 180.887695312 c 0
 59.1328125 180.416992188 56.3369140625 179.833007812 53.4638671875 179.228515625 c 0
 46.8955078125 177.848632812 39.8798828125 176.290039062 32.841796875 176 c 0
EndSplineSet
EndChar

StartChar: Y
Encoding: 89 89 45
Width: 101
Flags: HW
LayerCount: 2
Fore
SplineSet
46.306640625 63.60546875 m 0
 46.306640625 71.0654296875 46.8046875 78.4482421875 46.8046875 86.2177734375 c 0
 46.8046875 94.037109375 46.2822265625 101.310546875 44.2685546875 107.5546875 c 0
 42.8974609375 108.555664062 42.005859375 110.174804688 42.005859375 112 c 0
 42.005859375 112.770507812 42.1640625 113.504882812 42.451171875 114.170898438 c 0
 34.91796875 138.836914062 14.5283203125 161.197265625 5.341796875 186.1015625 c 0
 5.119140625 186.698242188 5 187.338867188 5 188.0078125 c 0
 5 191.04296875 7.46484375 193.5078125 10.5009765625 193.5078125 c 0
 12.8681640625 193.5078125 14.888671875 192.008789062 15.6630859375 189.909179688 c 0
 23.5869140625 168.428710938 41.58203125 147.573242188 50.666015625 124.059570312 c 1
 61.4111328125 137.6875 70.4169921875 154.012695312 77.3974609375 169.0625 c 1
 87.306640625 197.798828125 l 2
 88.0498046875 199.956054688 90.099609375 201.5078125 92.5078125 201.5078125 c 0
 95.5439453125 201.5078125 98.0087890625 199.04296875 98.0087890625 196.006835938 c 0
 98.0087890625 195.379882812 97.9033203125 194.77734375 97.7060546875 194.212890625 c 2
 97.7060546875 194.201171875 l 1
 87.6123046875 164.940429688 87.6123046875 164.940429688 87.49609375 164.6875 c 0
 79.3056640625 146.991210938 68.4013671875 127.359375 54.5498046875 111.508789062 c 1
 57.2265625 103.638671875 57.8505859375 95.302734375 57.8505859375 87.0546875 c 0
 57.8505859375 79.5634765625 57.31640625 71.427734375 57.31640625 63.662109375 c 0
 57.31640625 55.931640625 58.0078125 51.1220703125 58.0078125 50.9951171875 c 2
 56 -3.205078125 l 2
 55.890625 -6.14453125 53.4697265625 -8.4970703125 50.5048828125 -8.4970703125 c 0
 47.4697265625 -8.4970703125 44.8896484375 -6.03125 45.001953125 -2.998046875 c 0
 46.9921875 50.755859375 46.9921875 50.755859375 46.9921875 50.755859375 c 2
 46.4716796875 55.00390625 46.306640625 59.30859375 46.306640625 63.60546875 c 0
EndSplineSet
EndChar

StartChar: X
Encoding: 88 88 46
Width: 135
Flags: HW
LayerCount: 2
Fore
SplineSet
11.9931640625 189.0078125 m 0
 11.9931640625 192.043945312 14.4580078125 194.508789062 17.494140625 194.508789062 c 0
 19.7529296875 194.508789062 21.6953125 193.14453125 22.5419921875 191.196289062 c 2
 63.4775390625 97.044921875 l 1
 114.592773438 183.51171875 l 1
 121.459960938 199.208007812 l 2
 122.309570312 201.150390625 124.249023438 202.508789062 126.502929688 202.508789062 c 0
 129.5390625 202.508789062 132.00390625 200.043945312 132.00390625 197.0078125 c 0
 132.00390625 195.176757812 124.338867188 178.376953125 124.235351562 178.202148438 c 2
 68.8935546875 84.587890625 l 1
 102.422851562 7.4697265625 l 1
 106.997070312 -0.5341796875 106.997070312 -0.5341796875 106.997070312 -1.9951171875 c 0
 106.997070312 -5.03125 104.532226562 -7.49609375 101.49609375 -7.49609375 c 0
 98.3037109375 -7.49609375 98.2001953125 -7.3154296875 92.7236328125 2.267578125 c 0
 92.5751953125 2.5283203125 92.5751953125 2.5283203125 61.9814453125 72.89453125 c 1
 17.2353515625 -2.7978515625 l 2
 16.2822265625 -4.4091796875 14.517578125 -5.4970703125 12.5009765625 -5.4970703125 c 0
 9.46484375 -5.4970703125 7 -3.0322265625 7 0.00390625 c 0
 7 1.0234375 7.2783203125 1.978515625 7.76171875 2.7978515625 c 2
 56.564453125 85.3515625 l 1
 11.9931640625 187.865234375 11.9931640625 187.865234375 11.9931640625 189.0078125 c 0
EndSplineSet
EndChar

StartChar: U
Encoding: 85 85 47
Width: 107
Flags: HW
LayerCount: 2
Fore
SplineSet
20.91796875 87.2998046875 m 0
 20.91796875 114.422851562 13 140.434570312 13 167.564453125 c 0
 13 172.432617188 13.2529296875 177.352539062 13.8515625 182.3359375 c 2
 13.8515625 190 l 2
 13.8515625 193.03515625 16.3154296875 195.499023438 19.3505859375 195.499023438 c 0
 22.3857421875 195.499023438 24.849609375 193.03515625 24.849609375 190 c 2
 24.849609375 182 l 2
 24.849609375 181.030273438 24.009765625 176.260742188 24.009765625 167.70703125 c 0
 24.009765625 141.461914062 31.9189453125 115.502929688 31.9189453125 87.453125 c 0
 31.9189453125 75.6337890625 29.818359375 36.20703125 29.818359375 26.4814453125 c 0
 29.818359375 17.837890625 33.5400390625 3.5283203125 42.5625 3.5283203125 c 0
 45.20703125 3.5283203125 46.6123046875 4.4462890625 48.1787109375 4.498046875 c 0
 76.541015625 5.4248046875 80.3095703125 32.9853515625 81.076171875 72.3310546875 c 0
 81.208984375 79.1513671875 81.326171875 85.5791015625 81.8486328125 91.2265625 c 0
 81.6259765625 108.767578125 78.8515625 132.623046875 78.8515625 137.002929688 c 0
 78.8515625 148.28125 78.8515625 159.55859375 78.8515625 170.836914062 c 0
 77.8515625 187.842773438 77.8515625 187.842773438 77.8515625 188.006835938 c 0
 77.8515625 191.041992188 80.3154296875 193.505859375 83.3505859375 193.505859375 c 0
 86.275390625 193.505859375 88.669921875 191.216796875 88.83984375 188.325195312 c 0
 89.849609375 171.1640625 89.849609375 171.1640625 89.849609375 171 c 2
 89.849609375 137.180664062 l 2
 90.1806640625 132.10546875 90.6015625 127.098632812 91.0244140625 122.071289062 c 0
 91.869140625 112.03515625 92.7255859375 101.900390625 92.849609375 91.00390625 c 0
 92.849609375 88.9765625 92.4423828125 91.119140625 92.072265625 72.115234375 c 0
 91.642578125 50.1044921875 91.796875 20.697265625 75.416015625 4.31640625 c 0
 69.0849609375 -2.0146484375 60.3623046875 -5.951171875 49.2607421875 -6.466796875 c 0
 47.0576171875 -7.087890625 44.9228515625 -7.3779296875 42.8828125 -7.3779296875 c 0
 27.1904296875 -7.3779296875 18.8154296875 9.1181640625 18.8154296875 26.2041015625 c 0
 18.8154296875 36.490234375 20.91796875 75.8896484375 20.91796875 87.2998046875 c 0
EndSplineSet
EndChar

StartChar: question
Encoding: 63 63 48
Width: 93
Flags: HW
LayerCount: 2
Fore
SplineSet
51.779296875 183.758789062 m 0
 34.91015625 183.758789062 20.6123046875 158.495117188 11.5009765625 158.495117188 c 0
 8.46484375 158.495117188 6 160.959960938 6 163.99609375 c 0
 6 166.029296875 7.1064453125 167.806640625 8.7490234375 168.758789062 c 0
 21.189453125 175.967773438 31.6572265625 194.759765625 51.7509765625 194.759765625 c 0
 53.0126953125 194.759765625 54.3115234375 194.684570312 55.6494140625 194.525390625 c 0
 56.06640625 194.55078125 56.4814453125 194.563476562 56.89453125 194.563476562 c 0
 70.9345703125 194.563476562 85.03125 179.588867188 85.03125 164.0078125 c 0
 85.03125 122.6328125 40.126953125 105.618164062 40.126953125 71.5498046875 c 0
 40.126953125 62.595703125 43.009765625 57.13671875 43.009765625 54.9951171875 c 0
 43.009765625 51.958984375 40.544921875 49.4951171875 37.5087890625 49.4951171875 c 0
 35.0849609375 49.4951171875 33.025390625 51.06640625 32.2958984375 53.2421875 c 0
 30.1201171875 59.71875 29.1767578125 65.7216796875 29.1767578125 71.328125 c 0
 29.1767578125 110.663085938 74.03125 128.196289062 74.03125 163.930664062 c 0
 74.03125 173.598632812 64.658203125 183.55859375 56.767578125 183.55859375 c 0
 56.15234375 183.55859375 55.99609375 183.500976562 55.513671875 183.500976562 c 0
 54.7001953125 183.500976562 53.7880859375 183.758789062 51.779296875 183.758789062 c 0
30.0048828125 3.1884765625 m 0
 30.0048828125 10.3955078125 37.564453125 13.50390625 39.513671875 13.50390625 c 0
 42.548828125 13.50390625 45.013671875 11.0390625 45.013671875 8.0029296875 c 0
 45.013671875 6.42578125 44.3486328125 5.0029296875 43.283203125 4 c 1
 44.34765625 2.9970703125 45.0126953125 1.57421875 45.0126953125 -0.001953125 c 0
 45.0126953125 -3.0380859375 42.5478515625 -5.501953125 39.5126953125 -5.501953125 c 0
 39.3974609375 -5.501953125 30.009765625 -5.1015625 30.009765625 1 c 2
 30.009765625 2.8935546875 l 2
 30.005859375 2.9921875 30.0048828125 3.0908203125 30.0048828125 3.1884765625 c 0
EndSplineSet
EndChar

StartChar: period
Encoding: 46 46 49
Width: 47
Flags: HW
LayerCount: 2
Fore
SplineSet
15 4.3505859375 m 0
 15 9.0322265625 18.9404296875 11.490234375 22.203125 11.490234375 c 0
 22.5732421875 11.490234375 22.8330078125 11.458984375 22.9375 11.4443359375 c 0
 23.2060546875 11.484375 23.48046875 11.5048828125 23.7587890625 11.5048828125 c 0
 26.3291015625 11.5048828125 28.490234375 9.73828125 29.0927734375 7.3544921875 c 0
 30.1572265625 7.017578125 33.2607421875 5.7138671875 33.2607421875 1.99609375 c 0
 33.2607421875 -1.0400390625 30.7958984375 -3.5048828125 27.759765625 -3.5048828125 c 0
 27.083984375 -3.5048828125 26.4365234375 -3.3828125 25.82421875 -3.1513671875 c 2
 25.82421875 -3.1513671875 25.453125 -3.0712890625 24.1884765625 -3.068359375 c 0
 23.8896484375 -3.0703125 23.5009765625 -3.091796875 23.0400390625 -3.091796875 c 0
 21.2119140625 -3.091796875 15 -2.58203125 15 4.3505859375 c 0
EndSplineSet
EndChar

StartChar: comma
Encoding: 44 44 50
Width: 51
Flags: HW
LayerCount: 2
Fore
SplineSet
15 3.09765625 m 0
 15 9.224609375 21.009765625 12.4990234375 25.4990234375 12.4990234375 c 0
 25.626953125 12.4990234375 34.2294921875 11.1767578125 35.251953125 4.185546875 c 0
 36.873046875 0.0869140625 37.078125 -7.89453125 37.078125 -8.017578125 c 0
 37.078125 -15.1259765625 30.8876953125 -18.73828125 30.8876953125 -21.619140625 c 0
 30.8876953125 -22.0712890625 30.9990234375 -22.30859375 30.9990234375 -22.9931640625 c 0
 30.9990234375 -25.2822265625 30.6240234375 -25.6572265625 26.3896484375 -29.888671875 c 0
 25.39453125 -30.884765625 24.01953125 -31.5009765625 22.5009765625 -31.5009765625 c 0
 19.4658203125 -31.5009765625 17.0009765625 -29.0361328125 17.0009765625 -26.0009765625 c 0
 17.0009765625 -23.720703125 17.927734375 -22.794921875 19.92578125 -20.796875 c 1
 20.3828125 -13.892578125 26.076171875 -9.791015625 26.076171875 -7.962890625 c 0
 26.076171875 -7.9482421875 26.0341796875 -7.7001953125 25.9404296875 -6.48046875 c 1
 25.7919921875 -6.4921875 25.6455078125 -6.498046875 25.4990234375 -6.498046875 c 0
 23.8671875 -6.498046875 22.341796875 -5.76953125 21.3125 -4.5654296875 c 0
 21.306640625 -4.5654296875 21.30078125 -4.5595703125 21.294921875 -4.5595703125 c 0
 19.59375 -3.951171875 15 -2.3095703125 15 2.9482421875 c 0
 15 2.966796875 15 2.984375 15.0009765625 3.0029296875 c 0
 15 3.0341796875 15 3.06640625 15 3.09765625 c 0
EndSplineSet
EndChar

StartChar: exclam
Encoding: 33 33 51
Width: 47
Flags: HW
HStem: -9.25362 12.2536<20.2912 26.1378> 164.9 20G<17.4729 29.3438>
VStem: 10 16.1378<-8.69889 2.81423> 15.1558 10.9657<44.5751 45.4186 45.629 57.3371 110.636 111.888>
LayerCount: 2
Fore
SplineSet
21.56640625 151.55078125 m 0
 21.56640625 170.314453125 17.134765625 181.891601562 17.134765625 183.0078125 c 0
 17.134765625 186.04296875 19.599609375 188.5078125 22.634765625 188.5078125 c 0
 25.005859375 188.5078125 27.0283203125 187.004882812 27.80078125 184.900390625 c 0
 30.88671875 176.490234375 32.62109375 163.788085938 32.62109375 152.4375 c 0
 32.62109375 152.129882812 31.9697265625 140.23046875 31.552734375 121.663085938 c 0
 31.0732421875 100.31640625 30.6064453125 78.7099609375 27.103515625 57.3369140625 c 1
 26.12109375 44.5751953125 l 2
 25.9033203125 41.7392578125 23.5302734375 39.5029296875 20.638671875 39.5029296875 c 0
 17.603515625 39.5029296875 15.1396484375 41.966796875 15.1396484375 45.001953125 c 0
 15.1396484375 45.6025390625 16.19140625 58.763671875 16.2138671875 58.9013671875 c 0
 19.5830078125 79.3203125 20.076171875 100.48046875 20.5576171875 121.912109375 c 0
 21.0107421875 142.114257812 21.56640625 151.254882812 21.56640625 151.55078125 c 0
10 -0.955078125 m 0
 10 1.5732421875 12.6328125 11.5048828125 18.6455078125 11.5048828125 c 0
 21.208984375 11.5048828125 23.3662109375 9.74609375 23.974609375 7.3701171875 c 0
 25.2890625 6.365234375 26.1376953125 4.78125 26.1376953125 3 c 2
 26.1376953125 -3.005859375 l 2
 26.1376953125 -9.22265625 17.296875 -9.25390625 17.1220703125 -9.25390625 c 0
 13.33984375 -9.25390625 10 -6.685546875 10 -0.955078125 c 0
EndSplineSet
EndChar

StartChar: B
Encoding: 66 66 52
Width: 127
Flags: HW
LayerCount: 2
Fore
SplineSet
14 184.991210938 m 0
 14 185.647460938 14.427734375 192.096679688 24.2177734375 192.096679688 c 0
 26.580078125 192.096679688 28.67578125 191.717773438 30.1298828125 191.471679688 c 0
 45.626953125 190.544921875 99.1796875 184.1875 99.1796875 140.607421875 c 0
 99.1796875 137.3203125 98.853515625 133.870117188 98.1689453125 130.259765625 c 1
 99.8193359375 124.529296875 100.608398438 119.188476562 100.608398438 114.272460938 c 0
 100.608398438 104.685546875 97.6083984375 93.7099609375 86.6298828125 85.6298828125 c 1
 98.9541015625 83.31640625 119.022460938 76.3134765625 119.022460938 48.3525390625 c 0
 119.022460938 42.7529296875 119.022460938 27.4013671875 105.907226562 14.2861328125 c 0
 88.953125 -2.6669921875 60.1904296875 -7.1171875 37.716796875 -7.1171875 c 0
 22.0361328125 -7.1171875 17.94921875 -7.1171875 17.94921875 1.078125 c 0
 17.94921875 11.8779296875 22.0234375 19.94921875 22.0234375 28.935546875 c 0
 22.0234375 29.666015625 20.1474609375 41.6064453125 19.1044921875 101.985351562 c 0
 18.6416015625 128.830078125 18.171875 155.508789062 15.49609375 181.221679688 c 0
 14.568359375 182.20703125 14 183.533203125 14 184.991210938 c 0
26.587890625 180.865234375 m 1
 28.6767578125 160.146484375 28.9970703125 156.970703125 30.3486328125 88.4990234375 c 1
 31.5068359375 88.4990234375 l 2
 32.5537109375 88.4990234375 33.408203125 88.1533203125 37.8232421875 87.6005859375 c 0
 42.6298828125 87.6005859375 48.1328125 87.3115234375 53.9072265625 87.3115234375 c 0
 60.552734375 87.3115234375 89.69921875 88.75390625 89.69921875 114.059570312 c 0
 89.69921875 122.09765625 87.0068359375 128.034179688 87.0068359375 130.0078125 c 0
 87.0068359375 131.389648438 88.2333984375 135.145507812 88.2333984375 140.940429688 c 0
 88.2333984375 174.978515625 40.970703125 179.830078125 29.1875 180.510742188 c 0
 28.525390625 180.548828125 28.25390625 180.673828125 26.587890625 180.865234375 c 1
33.0224609375 28.904296875 m 0
 33.0224609375 19.4619140625 29.8203125 12.0888671875 29.0927734375 4.1240234375 c 1
 31.4208984375 4.0087890625 33.859375 3.9462890625 36.376953125 3.9462890625 c 0
 55.4609375 3.9462890625 108.0078125 7.5302734375 108.0078125 47 c 0
 108.0078125 47.16796875 108.026367188 47.6416015625 108.026367188 48.4453125 c 0
 108.026367188 71.4404296875 92.166015625 76.044921875 60.4150390625 76.3046875 c 0
 57.1337890625 75.931640625 53.775390625 75.7568359375 50.384765625 75.7568359375 c 0
 42.2373046875 75.7568359375 30.7958984375 77.2275390625 30.599609375 77.255859375 c 1
 31.34765625 47.8193359375 33.0224609375 29.388671875 33.0224609375 28.904296875 c 0
EndSplineSet
EndChar

StartChar: A
Encoding: 65 65 53
Width: 132
Flags: HW
LayerCount: 2
Fore
SplineSet
11.5009765625 -7.4990234375 m 0
 8.46484375 -7.4990234375 6 -5.0341796875 6 -1.998046875 c 0
 6 -0.8525390625 6.3505859375 0.2109375 6.951171875 1.0927734375 c 0
 43.0244140625 54.0673828125 47.1875 127.807617188 71.421875 186.115234375 c 0
 71.5791015625 186.493164062 72.939453125 189.498046875 76.4970703125 189.498046875 c 0
 78.9951171875 189.498046875 81.123046875 187.83203125 81.7841796875 185.517578125 c 0
 99.453125 123.666015625 104.760742188 60.1630859375 125.685546875 0.8349609375 c 1
 125.685546875 0.82421875 l 2
 125.887695312 0.251953125 126.000976562 -0.36328125 126.000976562 -1.00390625 c 0
 126.000976562 -4.0400390625 123.536132812 -6.5048828125 120.5 -6.5048828125 c 0
 118.10546875 -6.5048828125 116.065429688 -4.970703125 115.314453125 -2.8349609375 c 0
 104.989257812 26.4404296875 98.43359375 56.4375 92.4443359375 86.4541015625 c 1
 53.4306640625 85.5869140625 l 1
 44.90625 53.78125 34.58203125 22.1220703125 16.0439453125 -5.099609375 c 0
 15.060546875 -6.54296875 13.3916015625 -7.4990234375 11.5009765625 -7.4990234375 c 0
90.2783203125 97.40625 m 1
 84.5927734375 126.329101562 80.896484375 145.134765625 75.6103515625 166.090820312 c 1
 70.162109375 150.2890625 70.162109375 150.2890625 56.333984375 96.65234375 c 1
 90.2783203125 97.40625 l 1
EndSplineSet
EndChar

StartChar: D
Encoding: 68 68 54
Width: 122
Flags: HW
LayerCount: 2
Fore
SplineSet
16.9345703125 7.130859375 m 0
 13.57421875 12.64453125 21.0810546875 77.05859375 21.1259765625 115.853515625 c 0
 20.01953125 136.509765625 20.9853515625 158.6640625 19.150390625 178.489257812 c 0
 19.134765625 178.65625 19.126953125 178.82421875 19.126953125 178.993164062 c 0
 19.126953125 179.602539062 19.232421875 180.525390625 19.73046875 181.500976562 c 0
 19.345703125 182.250976562 19.12890625 183.1015625 19.12890625 184.002929688 c 0
 19.12890625 184.514648438 19.1982421875 185.010742188 19.330078125 185.48046875 c 0
 19.103515625 186.040039062 18.8564453125 186.852539062 18.8564453125 187.809570312 c 0
 18.8564453125 190.9609375 21.8828125 194.145507812 25.1689453125 194.145507812 c 0
 26.7841796875 194.145507812 30.5302734375 193.05859375 31.7333984375 190.037109375 c 1
 56.91015625 187.639648438 69.9072265625 186.40234375 84.603515625 171.706054688 c 0
 103.682617188 152.626953125 108.571289062 122.018554688 108.571289062 94.66015625 c 0
 108.571289062 89.7724609375 108.415039062 84.9892578125 108.15625 80.3935546875 c 1
 109.440429688 73.9013671875 110.059570312 67.6298828125 110.059570312 61.6259765625 c 0
 110.059570312 18.96484375 78.880859375 -9.1318359375 35.6953125 -9.1318359375 c 0
 25.021484375 -9.1318359375 16 -8.7001953125 16 0.6796875 c 0
 16 3.09375 16.6015625 4.111328125 16.9345703125 7.130859375 c 0
28.19921875 7.6845703125 m 0
 28.19921875 5.51953125 27.6650390625 4.76171875 27.337890625 2.2509765625 c 1
 30.197265625 1.9912109375 32.998046875 1.86328125 35.736328125 1.86328125 c 0
 55.3525390625 1.86328125 71.72265625 8.4052734375 82.826171875 19.5078125 c 0
 92.94921875 29.630859375 99.0859375 43.859375 99.0859375 61.4794921875 c 0
 99.0859375 71.6025390625 97.1259765625 78.546875 97.1259765625 80.0078125 c 0
 97.1259765625 80.552734375 97.5341796875 86.0302734375 97.5341796875 93.6552734375 c 0
 97.5341796875 132.525390625 87.56640625 173.069335938 47.1005859375 177.526367188 c 0
 47.0537109375 177.53125 40.1904296875 178.184570312 34.3232421875 178.743164062 c 1
 34.3662109375 178.46875 34.392578125 178.17578125 34.392578125 177.8671875 c 0
 34.392578125 175.232421875 32.392578125 173.0703125 30.65625 172.283203125 c 0
 30.8583984375 169.032226562 32.1240234375 116.556640625 32.1240234375 115.993164062 c 0
 32.0966796875 80.466796875 27.4169921875 47.2822265625 27.134765625 11.849609375 c 0
 27.9453125 10.42578125 28.19921875 8.9814453125 28.19921875 7.6845703125 c 0
EndSplineSet
EndChar

StartChar: E
Encoding: 69 69 55
Width: 115
Flags: HW
LayerCount: 2
Fore
SplineSet
95.0947265625 192.327148438 m 0
 97.0498046875 192.327148438 99.4521484375 192.499023438 99.49609375 192.499023438 c 0
 102.530273438 192.499023438 104.995117188 190.03515625 104.995117188 187 c 0
 104.995117188 181.333984375 99.3203125 181.333984375 95.0830078125 181.333984375 c 0
 94.712890625 181.333984375 86.58984375 181.573242188 86.50390625 181.573242188 c 0
 83.4580078125 181.573242188 79.4853515625 181.188476562 70.7216796875 181.188476562 c 0
 55.037109375 181.188476562 39.0537109375 182.561523438 24.3505859375 185.423828125 c 1
 29.9619140625 161.858398438 30.650390625 139.028320312 31.4853515625 111.314453125 c 1
 90.888671875 109.458007812 90.888671875 109.458007812 91.9716796875 108.916992188 c 0
 94.8642578125 107.465820312 97.0048828125 106.391601562 97.0048828125 102.99609375 c 0
 97.0048828125 99.9599609375 94.5400390625 97.4951171875 91.50390625 97.4951171875 c 0
 90.20703125 97.4951171875 89.5927734375 97.8017578125 88.11328125 98.5419921875 c 2
 31.8466796875 100.299804688 l 1
 32.34765625 86.7578125 32.9970703125 79.2099609375 32.9970703125 78.9970703125 c 0
 32.9970703125 76.3642578125 27.45703125 4.8291015625 27.390625 4.0810546875 c 1
 27.970703125 4.322265625 41.65625 4.5 89.3759765625 14.3837890625 c 0
 89.748046875 14.4609375 90.1259765625 14.5 90.50390625 14.5 c 0
 91.2490234375 14.5 91.2490234375 14.5 102.951171875 11.3046875 c 0
 105.28515625 10.66796875 107.002929688 8.5322265625 107.002929688 5.9970703125 c 0
 107.002929688 2.9619140625 104.538085938 0.4970703125 101.502929688 0.4970703125 c 0
 100.770507812 0.4970703125 100.770507812 0.4970703125 90.3212890625 3.3466796875 c 1
 71.232421875 -0.603515625 50.8408203125 -4.73046875 31.69921875 -6.33984375 c 0
 29.8388671875 -7.7353515625 27.50390625 -8.876953125 25.1748046875 -8.876953125 c 0
 21.3251953125 -8.876953125 19.396484375 -5.736328125 18.826171875 -4.806640625 c 0
 17.1162109375 -3.8544921875 15.9990234375 -2.0263671875 15.9990234375 0 c 0
 15.9990234375 0.4765625 16.93359375 8.1533203125 19.6806640625 47.5908203125 c 0
 20.400390625 57.931640625 21.1240234375 68.3193359375 21.9814453125 79.0087890625 c 0
 21.3623046875 87.083984375 21.0107421875 95.171875 20.7373046875 103.240234375 c 0
 20.2646484375 104.051757812 19.9951171875 104.995117188 19.9951171875 106 c 0
 19.9951171875 106.879882812 20.2021484375 107.711914062 20.5693359375 108.44921875 c 0
 19.5595703125 141.236328125 18.8447265625 164.455078125 12.1982421875 188.530273438 c 0
 12.064453125 189.01171875 12 189.50390625 12 189.993164062 c 0
 12 194.25 16.95703125 197.099609375 21.6005859375 197.099609375 c 0
 23.9755859375 197.099609375 40.99609375 192.189453125 70.8095703125 192.189453125 c 0
 75.9873046875 192.189453125 86.3251953125 192.568359375 86.4814453125 192.568359375 c 0
 87.142578125 192.568359375 95.0087890625 192.327148438 95.0947265625 192.327148438 c 0
EndSplineSet
EndChar

StartChar: F
Encoding: 70 70 56
Width: 129
Flags: HW
LayerCount: 2
Fore
SplineSet
33.326171875 94.4228515625 m 1
 33.6953125 86.6875 34.0029296875 81.13671875 34.0029296875 81.001953125 c 0
 34.0029296875 80.8642578125 33.84765625 78.2783203125 33.4375 67.2548828125 c 0
 32.6015625 44.7783203125 31.7890625 20.5546875 23.6748046875 -1.8759765625 c 0
 22.9130859375 -3.9892578125 20.8837890625 -5.50390625 18.50390625 -5.50390625 c 0
 15.46875 -5.50390625 13.00390625 -3.0390625 13.00390625 -0.0029296875 c 0
 13.00390625 0.65234375 13.119140625 1.2822265625 13.333984375 1.8759765625 c 0
 20.6640625 22.140625 21.609375 45.1494140625 22.447265625 67.6669921875 c 0
 22.61328125 72.13671875 22.779296875 76.583984375 22.998046875 80.984375 c 0
 18.986328125 153.5078125 18.986328125 153.5078125 15.1015625 173.975585938 c 0
 14.888671875 175.103515625 14.845703125 176.09375 14.845703125 176.88671875 c 0
 14.845703125 177.26171875 14.85546875 177.59375 14.8603515625 177.875 c 0
 13.673828125 178.921875 13 180.436523438 13 182.004882812 c 0
 13 182.817382812 13.3173828125 189.02734375 23.0341796875 189.02734375 c 0
 29.453125 189.02734375 39.0732421875 186.192382812 41.4150390625 185.477539062 c 2
 118.646484375 183.497070312 l 2
 121.615234375 183.420898438 124.001953125 180.987304688 124.001953125 178 c 0
 124.001953125 174.96484375 121.538085938 172.499023438 118.502929688 172.499023438 c 0
 92.0166015625 173.327148438 64.9501953125 173.57421875 38.82421875 174.762695312 c 1
 38.82421875 174.762695312 31.0234375 176.797851562 25.8564453125 177.642578125 c 1
 25.8525390625 177.450195312 25.8505859375 177.275390625 25.8505859375 177.1171875 c 0
 25.8505859375 176.397460938 30.1943359375 160.424804688 32.8037109375 105.494140625 c 0
 34.5693359375 105.399414062 34.5693359375 105.399414062 90.59375 104.498046875 c 0
 93.5869140625 104.450195312 96.001953125 102.004882812 96.001953125 99 c 0
 96.001953125 95.96484375 93.5380859375 93.5009765625 90.4150390625 93.501953125 c 2
 33.326171875 94.4228515625 l 1
EndSplineSet
EndChar

StartChar: G
Encoding: 71 71 57
Width: 141
Flags: HW
LayerCount: 2
Fore
SplineSet
12 118.689453125 m 0
 12 159.3515625 33.7275390625 195.110351562 74.998046875 195.110351562 c 0
 79.9443359375 195.110351562 85.154296875 194.592773438 90.6181640625 193.506835938 c 0
 95.80859375 193.489257812 99.234375 191.845703125 106.6171875 188.305664062 c 0
 107.087890625 188.436523438 107.584960938 188.5078125 108.098632812 188.5078125 c 0
 110.51953125 188.5078125 112.577148438 186.940429688 113.311523438 184.766601562 c 2
 113.311523438 184.766601562 113.883789062 183.862304688 113.883789062 182.521484375 c 0
 113.883789062 178.794921875 109.765625 176.495117188 107.09765625 176.495117188 c 0
 104.124023438 176.495117188 95.0087890625 182.506835938 90.4228515625 182.506835938 c 0
 90.419921875 182.506835938 90.138671875 182.500976562 90.1005859375 182.500976562 c 0
 88.681640625 182.500976562 83.005859375 184.154296875 74.734375 184.154296875 c 0
 38.384765625 184.154296875 23.02734375 150.475585938 23.02734375 118.401367188 c 0
 23.02734375 107.927734375 24.6015625 101.260742188 24.6015625 99.994140625 c 0
 24.6015625 99.859375 24.0498046875 93.8232421875 24.0498046875 86.5478515625 c 0
 24.0498046875 73.1748046875 26.2607421875 8.3447265625 69.1357421875 8.3447265625 c 0
 110.819335938 8.3447265625 119.099609375 50.150390625 119.099609375 89.5625 c 0
 119.099609375 98.5673828125 118.602539062 106.827148438 118.602539062 107.001953125 c 0
 118.602539062 107.3125 118.62890625 107.623046875 118.680664062 107.9296875 c 1
 112.059570312 107.534179688 107.129882812 105.568359375 102.272460938 105.568359375 c 0
 101.834960938 105.568359375 79.9130859375 109.6171875 58.6611328125 109.6171875 c 0
 55.16015625 109.6171875 52.1630859375 109.500976562 52.09765625 109.500976562 c 0
 49.0625 109.500976562 46.5986328125 111.96484375 46.5986328125 115 c 0
 46.5986328125 120.615234375 51.337890625 120.615234375 58.6591796875 120.615234375 c 0
 75.6455078125 120.615234375 99.0048828125 117.670898438 100.783203125 116.856445312 c 0
 107.6015625 116.856445312 113.208007812 119.010742188 119.002929688 119.010742188 c 0
 121.381835938 119.010742188 129.861328125 118.368164062 129.861328125 109.2109375 c 0
 129.861328125 108.331054688 129.774414062 107.458007812 129.62890625 106.616210938 c 0
 129.939453125 100.763671875 130.198242188 94.248046875 130.198242188 87.3896484375 c 0
 130.198242188 47.5107421875 120.110351562 -2.548828125 69.453125 -2.548828125 c 0
 29.158203125 -2.548828125 12.9990234375 40.5751953125 12.9990234375 85.4716796875 c 0
 12.9990234375 90.4599609375 13.2041015625 95.265625 13.564453125 99.76171875 c 1
 12.529296875 106.001953125 12 112.362304688 12 118.689453125 c 0
118.880859375 109.278320312 m 1
 118.887695312 109.27734375 118.880859375 109.278320312 118.880859375 109.278320312 c 1
EndSplineSet
EndChar

StartChar: I
Encoding: 73 73 58
Width: 48
Flags: HW
HStem: -1.08489 21G<26.8925 28.8851> 170.65 20G<16.7874 17.0404>
VStem: 16.1094 10.7832<0.740529 41.781> 16.3222 11.0213<124.933 190.056> 17.0404 10.9212<177.858 189.557> 22.1193 10.9983<20.8748 151.637>
LayerCount: 2
Fore
SplineSet
16.322265625 177.369140625 m 0
 16.322265625 192.524414062 17.7294921875 195.509765625 22.501953125 195.509765625 c 0
 25.537109375 195.509765625 28.0009765625 193.044921875 28.0009765625 190.009765625 c 0
 28.0009765625 189.094726562 27.34375 185.454101562 27.34375 177.665039062 c 0
 27.34375 153.86328125 33.4072265625 124.973632812 33.4072265625 98.8984375 c 0
 33.4072265625 95.16015625 33.2841796875 91.462890625 33.0029296875 87.8251953125 c 0
 33.07421875 83.109375 33.1171875 78.423828125 33.1171875 73.7578125 c 0
 33.1171875 41.3720703125 30.8671875 18.7900390625 26.892578125 -1.0849609375 c 0
 26.388671875 -3.6025390625 24.1640625 -5.501953125 21.5 -5.501953125 c 0
 18.4638671875 -5.501953125 16 -3.037109375 16 -0.001953125 c 0
 16 0.73828125 22.119140625 24.7666015625 22.119140625 73.7919921875 c 0
 22.119140625 78.4599609375 22.0751953125 83.162109375 22.001953125 87.9970703125 c 0
 22.001953125 88.646484375 22.3994140625 92.1845703125 22.3994140625 98.697265625 c 0
 22.3994140625 124.2734375 16.322265625 153.206054688 16.322265625 177.369140625 c 0
EndSplineSet
EndChar

StartChar: J
Encoding: 74 74 59
Width: 117
Flags: HW
LayerCount: 2
Fore
SplineSet
58.30859375 -16.5390625 m 0
 50.3125 -16.5390625 15.9384765625 -14.3447265625 8.1171875 22.875 c 0
 8.1171875 22.875 8.1171875 22.875 8.1171875 22.8759765625 c 0
 8.0400390625 23.234375 8 23.61328125 8 24.0029296875 c 0
 8 27.0380859375 10.4638671875 29.501953125 13.5 29.501953125 c 0
 21.62890625 29.501953125 16.7646484375 17.7724609375 29.08984375 5.447265625 c 0
 36.19921875 -1.662109375 46.3623046875 -5.541015625 58.283203125 -5.541015625 c 0
 61.0537109375 -5.541015625 69.083984375 -1.515625 74.640625 4.041015625 c 0
 87.908203125 17.30859375 89.6357421875 39.501953125 89.6357421875 62.810546875 c 0
 89.6357421875 63.546875 89.4833984375 82.11328125 89.4833984375 82.30859375 c 0
 89.4833984375 87.755859375 89.5947265625 93.076171875 89.9970703125 98.16015625 c 2
 88.0009765625 187.002929688 l 2
 88.0009765625 190.038085938 90.4658203125 192.501953125 93.5009765625 192.501953125 c 0
 96.494140625 192.501953125 98.931640625 190.10546875 98.9990234375 187.124023438 c 2
 101.001953125 98.0029296875 l 2
 101.001953125 97.041015625 100.485351562 93.5634765625 100.485351562 82.162109375 c 0
 100.485351562 74.8603515625 100.678710938 66.7998046875 100.678710938 59.7646484375 c 0
 100.678710938 33.4501953125 98.625 -3.0419921875 62.390625 -16.16796875 c 0
 61.7275390625 -16.408203125 61.35546875 -16.5390625 58.30859375 -16.5390625 c 0
EndSplineSet
EndChar

StartChar: H
Encoding: 72 72 60
Width: 143
Flags: HW
LayerCount: 2
Fore
SplineSet
24.7724609375 99.0478515625 m 0
 22.4736328125 131.62109375 20.90234375 153.87890625 20.90234375 176.28125 c 0
 20.90234375 179.280273438 20.9345703125 182.232421875 21.001953125 185.12890625 c 0
 21.0703125 188.108398438 23.5078125 190.501953125 26.4990234375 190.501953125 c 0
 29.5341796875 190.501953125 31.998046875 188.038085938 31.998046875 185.002929688 c 0
 31.998046875 184.916992188 31.9013671875 181.310546875 31.9013671875 176.374023438 c 0
 31.9013671875 163.440429688 31.9599609375 153.356445312 35.6826171875 100.671875 c 0
 36.8349609375 100.69140625 37.9814453125 100.701171875 39.1240234375 100.701171875 c 0
 45.6328125 100.701171875 45.5693359375 99.3037109375 78.7509765625 98.494140625 c 0
 113.131835938 97.65625 113.131835938 97.65625 113.131835938 97.65625 c 1
 113.131835938 97.65625 113 110.94140625 113 110.997070312 c 0
 113 111.456054688 116.235351562 143.717773438 116.235351562 156.758789062 c 0
 116.235351562 161.705078125 115.999023438 164.497070312 115.999023438 164.991210938 c 0
 115.999023438 166.4140625 116.76171875 167.895507812 116.76171875 171.14453125 c 0
 116.76171875 176.681640625 113.99609375 182.65234375 113.99609375 185.004882812 c 0
 113.99609375 188.040039062 116.4609375 190.504882812 119.49609375 190.504882812 c 0
 123.665039062 190.504882812 124.53125 187.397460938 125.458007812 184.072265625 c 0
 126.534179688 180.212890625 127.71875 175.965820312 127.71875 171.010742188 c 0
 127.71875 168.98046875 127.520507812 166.831054688 127.033203125 164.541015625 c 0
 127.176757812 161.912109375 127.239257812 159.272460938 127.239257812 156.626953125 c 0
 127.239257812 145.967773438 126.211914062 135.21484375 125.22265625 124.708984375 c 0
 124.78125 120.017578125 124.34375 115.375976562 124 110.819335938 c 2
 124.157226562 94.919921875 l 2
 124.689453125 94.0732421875 124.997070312 93.072265625 124.997070312 92 c 0
 124.997070312 90.966796875 124.7109375 89.9990234375 124.213867188 89.1728515625 c 2
 124.99609375 10.240234375 l 2
 125.998046875 -2.7939453125 125.998046875 -2.7939453125 125.998046875 -3.0078125 c 0
 125.998046875 -6.04296875 123.534179688 -8.5068359375 120.499023438 -8.5068359375 c 0
 117.608398438 -8.5068359375 115.234375 -6.2705078125 115.016601562 -3.4248046875 c 0
 114.001953125 9.7587890625 114.001953125 9.7587890625 113.240234375 86.65234375 c 1
 77.625 87.5205078125 77.625 87.5205078125 67.59765625 88.2724609375 c 0
 57.7177734375 89.0126953125 48.4375 89.69921875 39.0771484375 89.69921875 c 0
 37.580078125 89.69921875 36.0810546875 89.681640625 34.5771484375 89.6435546875 c 1
 29.37109375 68.2509765625 24.9794921875 45.9453125 25.001953125 22.9970703125 c 0
 25.02734375 -1.892578125 25.998046875 -1.8935546875 25.998046875 -2.0048828125 c 0
 25.998046875 -5.0400390625 23.5341796875 -7.50390625 20.4990234375 -7.50390625 c 0
 17.5390625 -7.50390625 15.1220703125 -5.16015625 15.0048828125 -2.2216796875 c 0
 14 22.88671875 14 22.88671875 14 22.998046875 c 0
 14 23.6962890625 14.533203125 53.7158203125 23.841796875 92.056640625 c 0
 23.302734375 92.9072265625 22.990234375 93.9150390625 22.990234375 94.99609375 c 0
 22.990234375 96.5986328125 23.6767578125 98.0419921875 24.7724609375 99.0478515625 c 0
EndSplineSet
EndChar

StartChar: V
Encoding: 86 86 61
Width: 135
Flags: HW
LayerCount: 2
Fore
SplineSet
6 186.005859375 m 0
 6 189.041015625 8.46484375 191.505859375 11.5 191.505859375 c 0
 14.0146484375 191.505859375 16.13671875 189.814453125 16.7919921875 187.508789062 c 2
 64.6123046875 19.142578125 l 2
 66.3125 16.0712890625 67.43359375 12.9267578125 68.4501953125 9.9833984375 c 1
 91.3916015625 66.892578125 100.055664062 128.234375 118.24609375 187.6171875 c 0
 118.500976562 188.451171875 120.801757812 195.5078125 125.506835938 195.5078125 c 0
 128.54296875 195.5078125 131.0078125 193.04296875 131.0078125 190.006835938 c 0
 131.0078125 188.708984375 131.0078125 188.708984375 128.626953125 183.947265625 c 0
 109.309570312 120.709960938 100.837890625 55.1787109375 73.5302734375 -6.2373046875 c 0
 72.666015625 -8.181640625 70.7255859375 -9.4990234375 68.5029296875 -9.4990234375 c 0
 61.0498046875 -9.4990234375 59.3310546875 6.3603515625 54.751953125 14.224609375 c 0
 54.515625 14.630859375 6 184.219726562 6 186.005859375 c 0
EndSplineSet
EndChar

StartChar: W
Encoding: 87 87 62
Width: 179
Flags: HW
LayerCount: 2
Fore
SplineSet
7 185.000976562 m 0
 7 188.036132812 9.4638671875 190.500976562 12.5 190.500976562 c 0
 15.2001953125 190.500976562 17.4482421875 188.549804688 17.9111328125 185.982421875 c 0
 42.0615234375 52.130859375 42.0615234375 52.130859375 49.220703125 19.0400390625 c 1
 53.462890625 31.671875 58.455078125 43.9208984375 63.375 56.0126953125 c 0
 74.7880859375 84.064453125 85.7158203125 111.176757812 87.001953125 140.122070312 c 1
 87.001953125 156 l 2
 87.001953125 159.856445312 88.787109375 156.420898438 89.599609375 170.08203125 c 0
 90.076171875 178.10546875 91.443359375 190.49609375 98.49609375 190.49609375 c 0
 101.116210938 190.49609375 103.328125 188.66796875 103.87109375 186.177734375 c 0
 106.408203125 174.53515625 108.870117188 162.913085938 111.325195312 151.314453125 c 0
 120.506835938 107.932617188 129.620117188 64.9111328125 142.35546875 22.6181640625 c 1
 155.688476562 56.048828125 142.34375 141.805664062 161.529296875 182.354492188 c 0
 162.41015625 184.217773438 164.307617188 185.5078125 166.504882812 185.5078125 c 0
 169.541015625 185.5078125 172.005859375 183.04296875 172.005859375 180.006835938 c 0
 172.005859375 179.166992188 171.817382812 178.37109375 171.471679688 177.645507812 c 0
 151.295898438 135.001953125 171.672851562 28.6328125 144.0078125 5.755859375 c 0
 143.10546875 5.009765625 141.88671875 4.4931640625 140.506835938 4.4931640625 c 0
 140.271484375 4.4931640625 136.459960938 4.5517578125 135.259765625 8.3291015625 c 0
 120.625976562 54.4130859375 111.604492188 96.9677734375 98.845703125 157.149414062 c 1
 98.6044921875 156.373046875 98.32421875 155.595703125 97.9990234375 154.819335938 c 0
 97.9990234375 149.879882812 97.9990234375 144.94140625 97.9990234375 140.001953125 c 0
 97.9990234375 139.920898438 97.998046875 139.83984375 97.994140625 139.758789062 c 0
 95.7470703125 88.1005859375 65.767578125 44.578125 53.8388671875 -4.310546875 c 0
 53.2451171875 -6.7412109375 51.0595703125 -8.498046875 48.4990234375 -8.498046875 c 0
 45.91015625 -8.498046875 43.708984375 -6.705078125 43.142578125 -4.2392578125 c 0
 33.455078125 37.884765625 33.455078125 37.884765625 7.0869140625 184.029296875 c 0
 7.0302734375 184.337890625 7 184.666015625 7 185.000976562 c 0
EndSplineSet
EndChar

StartChar: T
Encoding: 84 84 63
Width: 131
Flags: HW
LayerCount: 2
Fore
SplineSet
35.6630859375 182.266601562 m 0
 25.7451171875 182.266601562 18.6708984375 181.500976562 18.4990234375 181.500976562 c 2
 9.4990234375 181.500976562 l 2
 6.4638671875 181.500976562 4 183.96484375 4 187 c 0
 4 190.03515625 6.4638671875 192.499023438 9.4990234375 192.499023438 c 2
 18.234375 192.499023438 l 2
 24.068359375 193.052734375 29.9248046875 193.2734375 35.7802734375 193.2734375 c 0
 59.0009765625 193.2734375 82.6435546875 189.774414062 105.154296875 189.774414062 c 0
 114.603515625 189.774414062 121.344726562 190.5 121.5078125 190.5 c 0
 124.54296875 190.5 127.0078125 188.03515625 127.0078125 185.000976562 c 0
 127.0078125 182.145507812 124.827148438 179.795898438 122.030273438 179.526367188 c 0
 116.400390625 178.984375 110.7265625 178.767578125 105.030273438 178.767578125 c 0
 95.0146484375 178.767578125 84.9287109375 179.4375 74.8876953125 180.181640625 c 1
 74.541015625 174.657226562 74.470703125 169.091796875 74.470703125 163.478515625 c 0
 74.470703125 163.365234375 74.501953125 152.198242188 74.501953125 152.188476562 c 0
 74.501953125 134.721679688 72.9677734375 122.970703125 72.9677734375 122.674804688 c 0
 72.9677734375 107.470703125 77.01171875 93.13671875 77.01171875 76.6015625 c 0
 77.01171875 76.06640625 77.0068359375 75.5302734375 76.998046875 74.990234375 c 2
 76.998046875 74.990234375 77.9970703125 -1.927734375 77.998046875 -2.001953125 c 0
 77.998046875 -5.037109375 75.5341796875 -7.5009765625 72.4990234375 -7.5009765625 c 0
 69.48828125 -7.5009765625 67.0390625 -5.076171875 67 -2.072265625 c 1
 67 -5.58984375 66.013671875 75.787109375 66.013671875 76.57421875 c 0
 66.013671875 92.1357421875 61.96875 106.456054688 61.96875 122.631835938 c 0
 61.96875 129.709960938 63.501953125 129.455078125 63.501953125 152.594726562 c 0
 63.501953125 152.705078125 63.4716796875 163.592773438 63.4716796875 163.645507812 c 0
 63.4716796875 169.3359375 63.544921875 175.118164062 63.919921875 181 c 1
 54.3818359375 181.69140625 44.923828125 182.266601562 35.6630859375 182.266601562 c 0
EndSplineSet
EndChar

StartChar: S
Encoding: 83 83 64
Width: 115
Flags: HW
LayerCount: 2
Fore
SplineSet
13.736328125 153.094726562 m 0
 13.736328125 171.114257812 26.9892578125 185.543945312 44.837890625 185.543945312 c 0
 47.4208984375 185.543945312 50.0859375 185.23828125 52.7998046875 184.59765625 c 0
 54.5693359375 184.82421875 56.3095703125 184.930664062 58.0205078125 184.930664062 c 0
 70.9501953125 184.930664062 82.2431640625 178.905273438 92.0732421875 173.859375 c 0
 94.7451171875 172.48828125 97.337890625 171.158203125 99.849609375 169.975585938 c 0
 101.70703125 169.1015625 103.000976562 167.202148438 103.000976562 165.001953125 c 0
 103.000976562 161.965820312 100.536132812 159.500976562 97.5 159.500976562 c 0
 92.486328125 159.500976562 74.134765625 173.9140625 57.822265625 173.9140625 c 0
 54.8115234375 173.9140625 53.46875 173.500976562 52.498046875 173.500976562 c 0
 50.90234375 173.500976562 48.8818359375 174.5703125 44.7099609375 174.5703125 c 0
 33.021484375 174.5703125 24.734375 164.909179688 24.734375 153.098632812 c 0
 24.734375 145.55078125 29.615234375 139.125 32.353515625 136.38671875 c 0
 52.5849609375 116.154296875 106.327148438 127.939453125 106.327148438 84.0205078125 c 0
 106.327148438 77.4130859375 104.958984375 70.8505859375 104.625 69.9931640625 c 0
 97.759765625 52.3564453125 99.9501953125 16.5703125 82.654296875 -0.7255859375 c 0
 77.2119140625 -6.1689453125 69.7626953125 -9.4990234375 60.5029296875 -9.4990234375 c 0
 43.7138671875 -9.4990234375 26.62890625 -8.1630859375 11.2529296875 10.5078125 c 0
 10.4443359375 11.4892578125 10 12.732421875 10 14.0107421875 c 2
 10 28 l 2
 10 31.03515625 12.4677734375 33.4990234375 15.5029296875 33.4990234375 c 0
 18.5380859375 33.4990234375 21.001953125 31.03515625 21.001953125 28 c 2
 21.001953125 16.0244140625 l 1
 33.1611328125 2.2119140625 45.5517578125 1.4990234375 60.5029296875 1.4990234375 c 0
 78.74609375 1.4990234375 83.857421875 18.478515625 88.68359375 48.466796875 c 0
 90.146484375 57.5546875 91.4873046875 66.345703125 94.203125 73.5419921875 c 0
 95.025390625 77.7021484375 95.3935546875 81.265625 95.3935546875 84.34375 c 0
 95.3935546875 124.036132812 25.830078125 98.8935546875 14.15625 147.709960938 c 0
 14.0048828125 148.33984375 13.736328125 150.63671875 13.736328125 153.094726562 c 0
EndSplineSet
EndChar

StartChar: K
Encoding: 75 75 65
Width: 107
Flags: HW
LayerCount: 2
Fore
SplineSet
20.8759765625 152.169921875 m 0
 20.8759765625 177.458007812 19 188.630859375 19 188.999023438 c 0
 19 192.034179688 21.4638671875 194.498046875 24.4990234375 194.498046875 c 0
 27.2939453125 194.498046875 29.6044921875 192.409179688 29.9521484375 189.708984375 c 0
 31.4013671875 178.483398438 31.8173828125 166.983398438 31.873046875 155.390625 c 1
 50.4267578125 174.211914062 81.53125 182.375976562 96.13671875 201.350585938 c 0
 96.185546875 201.357421875 97.576171875 203.500976562 100.5 203.500976562 c 0
 103.536132812 203.500976562 106.000976562 201.036132812 106.000976562 198 c 0
 106.000976562 196.747070312 106.000976562 195.104492188 99.7490234375 188.852539062 c 0
 78.7919921875 167.895507812 42.9541015625 160.099609375 31.7548828125 136.603515625 c 0
 31.7548828125 136.504882812 31.751953125 136.407226562 31.751953125 136.30859375 c 0
 31.73828125 135.147460938 31.724609375 133.985351562 31.7119140625 132.825195312 c 0
 59.7587890625 97.712890625 82.4453125 57.7080078125 89.91796875 10.9404296875 c 1
 94.9052734375 -15.9921875 l 1
 94.9052734375 -16.0048828125 l 2
 94.9658203125 -16.3310546875 95 -16.6669921875 95 -17.0107421875 c 0
 95 -20.0458984375 92.5361328125 -22.5107421875 89.5 -22.5107421875 c 0
 86.80859375 -22.5107421875 84.56640625 -20.572265625 84.0927734375 -18.0078125 c 0
 79.080078125 9.0595703125 79.080078125 9.0595703125 79.0693359375 9.12890625 c 0
 72.7626953125 48.6767578125 54.8857421875 83.490234375 31.6494140625 114.872070312 c 1
 31.7236328125 106.611328125 31.998046875 101.129882812 31.998046875 100.998046875 c 0
 31.998046875 100.125976562 31.0693359375 46.0556640625 27.02734375 13.8818359375 c 1
 27.9990234375 2.2236328125 27.9990234375 2.2236328125 27.9990234375 1.9912109375 c 0
 27.9990234375 -1.0439453125 25.53515625 -3.5078125 22.5 -3.5078125 c 0
 19.6201171875 -3.5078125 17.2548828125 -1.2900390625 17.01953125 1.5400390625 c 0
 16 13.7626953125 16 13.7626953125 16 13.9951171875 c 0
 16 23.7802734375 18.3642578125 12.9931640625 20.6513671875 89.693359375 c 0
 20.7646484375 93.4775390625 20.876953125 97.23828125 20.99609375 100.966796875 c 0
 20.708984375 107.541992188 20.666015625 114.116210938 20.666015625 120.657226562 c 0
 20.666015625 123.440429688 20.673828125 126.217773438 20.673828125 128.987304688 c 0
 19.875 129.967773438 19.0009765625 131.041015625 19.0009765625 133.004882812 c 0
 19.0009765625 133.866210938 19.3984375 135.609375 20.7841796875 138.981445312 c 0
 20.833984375 143.412109375 20.8759765625 147.8125 20.8759765625 152.169921875 c 0
EndSplineSet
EndChar

StartChar: L
Encoding: 76 76 66
Width: 117
Flags: HW
LayerCount: 2
Fore
SplineSet
16 72.818359375 m 0
 16 73.9130859375 16.3095703125 126.790039062 20.333984375 182.201171875 c 1
 20.333984375 186 l 2
 20.333984375 189.03515625 22.7978515625 191.499023438 25.8330078125 191.499023438 c 0
 28.8681640625 191.499023438 31.33203125 189.03515625 31.33203125 186 c 2
 31.33203125 182 l 2
 31.33203125 180.999023438 27.4833984375 135.012695312 27.33203125 81.984375 c 0
 27.330078125 81.3095703125 27.0029296875 78.36328125 27.0029296875 72.9404296875 c 0
 27.0029296875 52.4716796875 31.83984375 31.8876953125 33.2841796875 9.92578125 c 0
 33.671875 8.4677734375 34.0205078125 6.7041015625 34.1279296875 4.7822265625 c 0
 34.474609375 4.7998046875 34.8525390625 4.80859375 35.2646484375 4.80859375 c 0
 36.5146484375 4.80859375 38.0830078125 4.72265625 40.09375 4.50390625 c 0
 41.31640625 4.5234375 42.5302734375 4.5322265625 43.734375 4.5322265625 c 0
 44.17578125 4.5322265625 62.3896484375 4.291015625 62.578125 4.291015625 c 0
 79.9794921875 4.291015625 83.427734375 6.5 85.841796875 6.5 c 2
 105.833007812 6.5 l 2
 108.868164062 6.5 111.33203125 4.03515625 111.33203125 1 c 0
 111.33203125 -2.03515625 108.868164062 -4.4990234375 105.833007812 -4.4990234375 c 2
 86.48046875 -4.4990234375 l 1
 78.619140625 -6.32421875 70.7919921875 -6.720703125 62.998046875 -6.720703125 c 0
 62.8056640625 -6.720703125 44.28125 -6.4658203125 43.7138671875 -6.4658203125 c 0
 42.455078125 -6.4658203125 41.1962890625 -6.4755859375 39.837890625 -6.4990234375 c 0
 39.1162109375 -6.4990234375 36.416015625 -6.1015625 35.0263671875 -6.1015625 c 0
 34.2275390625 -6.1015625 33.533203125 -6.6240234375 30.28125 -6.6240234375 c 0
 28.259765625 -6.6240234375 22.3310546875 -6.6240234375 22.3310546875 -1.0068359375 c 0
 22.3310546875 0.9111328125 23.0205078125 0.576171875 23.0205078125 3.466796875 c 0
 23.0205078125 12.3916015625 16 51.38671875 16 72.818359375 c 0
EndSplineSet
EndChar

StartChar: M
Encoding: 77 77 67
Width: 178
Flags: HW
LayerCount: 2
Fore
SplineSet
85.99609375 -9 m 0
 85.99609375 -12.033203125 83.5380859375 -14.498046875 80.4931640625 -14.498046875 c 0
 77.6474609375 -14.498046875 75.2724609375 -12.3271484375 75.021484375 -9.48828125 c 0
 72.125 23.2490234375 42.548828125 133.540039062 24.30859375 164.573242188 c 1
 24.9296875 150.065429688 25.677734375 135.641601562 26.4248046875 121.216796875 c 0
 28.0546875 89.77734375 29.685546875 58.337890625 29.998046875 26.0537109375 c 2
 29.998046875 -1 l 2
 29.998046875 -4.03515625 27.5341796875 -6.4990234375 24.4990234375 -6.4990234375 c 0
 21.4638671875 -6.4990234375 19 -4.03515625 19 -1 c 2
 19 25.9462890625 l 2
 18.6083984375 66.384765625 13 170.5390625 13 172.000976562 c 0
 13 174.780273438 16.1591796875 180.109375 21.3369140625 180.109375 c 0
 30.859375 180.109375 40.4833984375 165.680664062 59.537109375 103.3828125 c 0
 67.005859375 78.9599609375 74.0146484375 52.578125 78.9755859375 30.5625 c 1
 91.91796875 88.109375 132.618164062 134.57421875 149.243164062 188.623046875 c 0
 149.952148438 190.92578125 152.081054688 192.497070312 154.48828125 192.497070312 c 0
 156.75 192.497070312 159.993164062 191.491210938 159.993164062 185.721679688 c 0
 159.993164062 165.538085938 161.247070312 146.041992188 161.247070312 125.701171875 c 0
 161.247070312 101.224609375 158.639648438 91.5654296875 158.639648438 50.705078125 c 0
 158.639648438 43.0810546875 158.752929688 35.3857421875 158.982421875 27.58984375 c 1
 164 0.4990234375 164 0.4990234375 164 -0.0107421875 c 0
 164 -3.0458984375 161.53515625 -5.5107421875 158.5 -5.5107421875 c 0
 155.80859375 -5.5107421875 153.565429688 -3.572265625 153.092773438 -1.0078125 c 0
 148.015625 26.40625 148.015625 26.40625 148.002929688 26.833984375 c 0
 147.760742188 34.880859375 147.641601562 42.8251953125 147.641601562 50.6953125 c 0
 147.641601562 71.248046875 148.453125 91.2900390625 150.0078125 111.313476562 c 0
 150.178710938 116.150390625 150.248046875 120.926757812 150.248046875 125.668945312 c 0
 150.248046875 135.5 150.00390625 143.32421875 149.53515625 158.37109375 c 1
 142.57421875 142.6484375 134.326171875 127.540039062 126.158203125 112.548828125 c 0
 105.690429688 74.98046875 85.94140625 38.4111328125 85.94140625 -4.9814453125 c 0
 85.94140625 -7.267578125 85.99609375 -8.7802734375 85.99609375 -9 c 0
EndSplineSet
EndChar

StartChar: N
Encoding: 78 78 68
Width: 132
Flags: HW
LayerCount: 2
Fore
SplineSet
19.5791015625 0.3408203125 m 0
 19.5791015625 1.7802734375 19.5791015625 5.759765625 24.6904296875 9.4462890625 c 0
 23.2314453125 12.458984375 21.6728515625 13.2373046875 21.58984375 15.8349609375 c 0
 20.47265625 50.8115234375 16 88.3564453125 16 124.017578125 c 0
 16 135.296875 16.4345703125 146.5625 17.541015625 157.77734375 c 0
 17.107421875 160.331054688 16.9609375 162.83984375 16.9609375 165.249023438 c 0
 16.9609375 170.41796875 17.662109375 175.578125 17.662109375 179.821289062 c 0
 17.662109375 180.755859375 17.5908203125 181.975585938 17.5908203125 181.998046875 c 0
 17.5908203125 185.01953125 20.048828125 187.494140625 23.099609375 187.494140625 c 0
 25.181640625 187.494140625 27.1123046875 186.305664062 28.0361328125 184.400390625 c 0
 54.345703125 130.130859375 75.1806640625 71.5048828125 104.435546875 18.943359375 c 1
 104.514648438 23.416015625 104.53125 27.919921875 104.53125 32.412109375 c 0
 104.53125 32.5048828125 104.5234375 41.66796875 104.5234375 41.685546875 c 0
 104.5234375 45.4677734375 104.53515625 49.2216796875 104.58984375 52.92578125 c 0
 101.45703125 127.948242188 100.903320312 141.216796875 97.6474609375 173.166015625 c 0
 97.505859375 173.912109375 97.4443359375 174.627929688 97.4443359375 175.313476562 c 0
 97.4443359375 180.642578125 101.158203125 184.080078125 101.774414062 186.411132812 c 0
 102.396484375 188.766601562 104.54296875 190.504882812 107.092773438 190.504882812 c 0
 110.127929688 190.504882812 112.592773438 188.040039062 112.592773438 185.004882812 c 0
 112.592773438 180.7734375 108.282226562 177.288085938 108.560546875 174.563476562 c 0
 110.57421875 154.860351562 115.520507812 86.2470703125 115.520507812 41.6533203125 c 0
 115.520507812 41.55859375 115.529296875 32.2724609375 115.529296875 32.166015625 c 0
 115.529296875 23.9443359375 115.529296875 -0.0234375 113.76953125 -2.880859375 c 0
 112.731445312 -4.5654296875 110.927734375 -5.494140625 109.081054688 -5.494140625 c 0
 108.458007812 -5.494140625 105.899414062 -5.337890625 104.389648438 -2.8583984375 c 0
 82.029296875 33.875 64.7646484375 74.015625 47.703125 113.639648438 c 0
 41.3701171875 128.345703125 35.06640625 142.981445312 28.5517578125 157.348632812 c 1
 27.443359375 146.393554688 27.0068359375 135.3046875 27.0068359375 124.120117188 c 0
 27.0068359375 88.5322265625 31.283203125 53.8720703125 32.5322265625 17.7900390625 c 0
 34.615234375 14.587890625 35.9013671875 11.3818359375 35.9013671875 8.466796875 c 0
 35.9013671875 4.3203125 34.140625 2.9267578125 30.587890625 0.1142578125 c 0
 30.587890625 0.0771484375 30.5888671875 0.0400390625 30.5888671875 0.001953125 c 0
 30.5888671875 -3.033203125 28.125 -5.4970703125 25.08984375 -5.4970703125 c 0
 22.921875 -5.4970703125 19.5791015625 -3.9775390625 19.5791015625 0.3408203125 c 0
EndSplineSet
EndChar

StartChar: O
Encoding: 79 79 69
Width: 147
Flags: HW
HStem: -7.36705 11.0779<45.0132 106.747> 180.154 10.9158<51.4214 84.6456>
VStem: 11.0002 10.9779<21.9344 95.6516> 14.8325 10.9852<37.6191 135.635> 121.187 10.9959<22.6938 107.935> 123.671 11.0019<55.5335 140.469>
LayerCount: 2
Fore
SplineSet
76.8759765625 -7.3671875 m 0
 64.6708984375 -7.3671875 11 -4.947265625 11 37.6142578125 c 0
 11 37.677734375 11.0517578125 41.9853515625 11.431640625 44.0166015625 c 0
 13.404296875 54.5693359375 14.109375 68.6474609375 14.83203125 83.7646484375 c 0
 16.4404296875 117.375 17.5908203125 157.6328125 38.4072265625 178.44921875 c 0
 46.5048828125 186.547851562 57.3486328125 191.069335938 71.1376953125 191.069335938 c 0
 72.095703125 191.069335938 73.0693359375 191.047851562 74.056640625 191.00390625 c 0
 75.0419921875 191.93359375 76.3701171875 192.50390625 77.830078125 192.50390625 c 0
 81.3515625 192.50390625 80.14453125 191.146484375 91.2021484375 188.328125 c 0
 92.7177734375 187.943359375 93.98046875 186.931640625 94.69921875 185.5859375 c 0
 121.396484375 170.366210938 134.672851562 141.422851562 134.672851562 108.772460938 c 0
 134.672851562 90.455078125 132.810546875 101.2109375 132.182617188 67.998046875 c 0
 131.771484375 46.2548828125 132.016601562 18.4208984375 116.78515625 3.189453125 c 0
 112.458984375 -1.13671875 106.228515625 -7.3671875 76.8759765625 -7.3671875 c 0
21.978515625 37.35546875 m 0
 21.978515625 28.8642578125 24.9775390625 22.7763671875 29.755859375 17.998046875 c 0
 39.9951171875 7.7587890625 59.9599609375 3.7109375 77.99609375 3.7109375 c 0
 85.4013671875 3.7109375 91.63671875 4.4970703125 91.775390625 4.4990234375 c 0
 116.622070312 4.79296875 120.440429688 28.7041015625 121.1875 68.2080078125 c 0
 121.348632812 76.7353515625 121.495117188 84.908203125 122.397460938 91.8154296875 c 0
 123.245117188 97.505859375 123.670898438 103.162109375 123.670898438 108.7109375 c 0
 123.670898438 124.154296875 119.869140625 162.243164062 84.08203125 178.684570312 c 0
 79.1904296875 179.688476562 74.80078125 180.153320312 70.8427734375 180.153320312 c 0
 33.212890625 180.153320312 28.3955078125 137.126953125 25.8173828125 83.2353515625 c 0
 25.09765625 68.1767578125 24.4443359375 53.8779296875 22.2744140625 42.1611328125 c 0
 22.07421875 40.4775390625 21.978515625 38.8779296875 21.978515625 37.35546875 c 0
EndSplineSet
EndChar

StartChar: P
Encoding: 80 80 70
Width: 89
Flags: HW
LayerCount: 2
Fore
SplineSet
34.998046875 182.634765625 m 0
 34.064453125 182.634765625 33.146484375 182.54296875 31.9990234375 182.420898438 c 0
 31.9990234375 170.948242188 31.9990234375 159.475585938 31.9990234375 148.002929688 c 0
 31.9990234375 147.89453125 31.1943359375 137.94921875 30.5849609375 125.025390625 c 1
 33.4052734375 125.259765625 36.0400390625 125.479492188 36.0400390625 125.479492188 c 2
 51.646484375 126.633789062 71.0556640625 138.370117188 71.0556640625 156.158203125 c 0
 71.0556640625 156.818359375 71 157.973632812 71 157.9921875 c 0
 71 159.283203125 71.673828125 160.854492188 71.673828125 163.776367188 c 0
 71.673828125 182.541992188 35.70703125 182.634765625 34.998046875 182.634765625 c 0
34.75390625 193.676757812 m 0
 51.0859375 193.676757812 82.6142578125 188.77734375 82.6142578125 163.440429688 c 0
 82.6142578125 161.557617188 82.4248046875 159.596679688 82.0263671875 157.567382812 c 0
 82.044921875 157.102539062 82.0537109375 156.641601562 82.0537109375 156.182617188 c 0
 82.0537109375 132.897460938 59.1298828125 116.159179688 36.9599609375 114.520507812 c 0
 36.931640625 114.517578125 33.361328125 114.220703125 30.123046875 113.950195312 c 0
 29.7392578125 103.508789062 29.4833984375 92.98828125 29.2275390625 82.4267578125 c 0
 28.5654296875 55.15234375 27.904296875 27.603515625 24.966796875 0.4052734375 c 0
 24.6689453125 -2.361328125 22.3330078125 -4.5087890625 19.4990234375 -4.5087890625 c 0
 16.4638671875 -4.5087890625 14 -2.044921875 14 0.990234375 c 0
 14 1.80859375 16.5654296875 13.9638671875 18.232421875 82.6953125 c 0
 18.5126953125 94.2568359375 18.79296875 105.823242188 19.2451171875 117.34765625 c 0
 19.0810546875 117.869140625 18.9921875 118.423828125 18.9921875 119 c 0
 18.9921875 119.733398438 19.1357421875 120.432617188 19.3974609375 121.073242188 c 0
 19.78515625 130.158203125 20.291015625 139.21484375 21.0009765625 148.21875 c 2
 21.0009765625 188 l 2
 21.0009765625 191.071289062 23.5009765625 193.504882812 26.4990234375 193.504882812 c 0
 27.6015625 193.504882812 27.5908203125 193.262695312 28.943359375 193.262695312 c 0
 30.9384765625 193.262695312 32.7763671875 193.676757812 34.75390625 193.676757812 c 0
EndSplineSet
EndChar

StartChar: Q
Encoding: 81 81 71
Width: 135
Flags: HW
LayerCount: 2
Fore
SplineSet
58.6171875 12.5 m 0
 58.986328125 12.5 60.154296875 12.404296875 62.0595703125 12.404296875 c 0
 75.3564453125 12.404296875 87.478515625 17.2890625 95.689453125 32.900390625 c 1
 70.1240234375 68.814453125 l 2
 69.4775390625 69.7236328125 69.1015625 70.822265625 69.1015625 72.0087890625 c 0
 69.1015625 75.044921875 71.56640625 77.509765625 74.6015625 77.509765625 c 0
 76.451171875 77.509765625 78.0888671875 76.595703125 79.091796875 75.185546875 c 0
 100.59375 44.9814453125 100.59375 44.9814453125 100.59375 44.9814453125 c 1
 103.443359375 54.11328125 108.137695312 75.9296875 108.137695312 120.67578125 c 0
 108.137695312 145.423828125 89.0244140625 160.873046875 62.755859375 182.10546875 c 1
 54.6611328125 180.625976562 54.6611328125 180.625976562 54.2666015625 180.625976562 c 0
 53.59375 180.625976562 52.8994140625 180.670898438 52.189453125 180.776367188 c 0
 32.615234375 159.805664062 29.46484375 124.673828125 26.75 89.0048828125 c 0
 25.634765625 74.3564453125 24.5390625 59.7919921875 22.0751953125 46.322265625 c 0
 22.025390625 45.48828125 22.0009765625 44.65625 22.0009765625 43.828125 c 0
 22.0009765625 27.490234375 31.6318359375 11.060546875 48.5751953125 11.060546875 c 0
 53.9130859375 11.060546875 56.9248046875 12.5 58.6171875 12.5 c 0
102.727539062 23.013671875 m 1
 97.47265625 15.0390625 85.9580078125 1.41015625 61.8876953125 1.41015625 c 0
 61.00390625 1.41015625 60.1083984375 1.4287109375 59.201171875 1.466796875 c 0
 55.6044921875 0.546875 52.12890625 0.11328125 48.8046875 0.11328125 c 0
 25.8017578125 0.11328125 11 20.5791015625 11 43.751953125 c 0
 11 55.521484375 11.90625 38.9072265625 15.783203125 89.845703125 c 0
 18.7509765625 128.82421875 21.646484375 166.856445312 46.8115234375 190.973632812 c 0
 47.4736328125 191.608398438 48.2685546875 192.05078125 49.115234375 192.2890625 c 0
 49.265625 195.190429688 51.6689453125 197.5 54.607421875 197.5 c 0
 54.705078125 197.5 62.2119140625 196.845703125 64.154296875 195.204101562 c 0
 64.916015625 194.560546875 65.6962890625 193.91015625 66.4912109375 193.254882812 c 0
 68.89453125 192.96875 74.021484375 191.80859375 74.10546875 187.09765625 c 0
 94.0556640625 171.108398438 119.135742188 151.006835938 119.135742188 120.682617188 c 0
 119.135742188 102.055664062 119.135742188 58.89453125 108.494140625 33.8828125 c 1
 121.73828125 15.2783203125 121.73828125 15.2783203125 121.98046875 14.1884765625 c 0
 126.109375 -4.40234375 126.109375 -4.40234375 126.109375 -5.009765625 c 0
 126.109375 -8.0458984375 123.64453125 -10.509765625 120.609375 -10.509765625 c 0
 117.984375 -10.509765625 115.787109375 -8.6669921875 115.240234375 -6.19921875 c 2
 111.481445312 10.716796875 l 1
 102.727539062 23.013671875 l 1
EndSplineSet
EndChar

StartChar: R
Encoding: 82 82 72
Width: 116
Flags: HW
LayerCount: 2
Fore
SplineSet
32.720703125 100.866210938 m 1
 57.2890625 106.458984375 83.7548828125 125.895507812 89.9580078125 150.48828125 c 1
 88.8603515625 164.307617188 75.95703125 168.990234375 54.8779296875 173.967773438 c 0
 50.1259765625 175.08984375 45.4873046875 176.169921875 41.291015625 177.59765625 c 0
 36.55859375 178.087890625 33.7138671875 178.255859375 31.798828125 178.255859375 c 0
 27.865234375 178.255859375 27.32421875 177.46875 22.3935546875 177.330078125 c 1
 24.3623046875 152.474609375 30.03515625 126.1796875 32.720703125 100.866210938 c 1
100.998046875 149.998046875 m 0
 100.998046875 140.4609375 83.7236328125 104.502929688 41.158203125 91.6962890625 c 1
 68.888671875 76.75390625 102.850585938 52.7412109375 105.979492188 14.451171875 c 0
 105.991210938 14.2998046875 105.998046875 14.1484375 105.998046875 13.9970703125 c 2
 105.998046875 2 l 2
 105.998046875 -1.03515625 103.534179688 -3.4990234375 100.499023438 -3.4990234375 c 0
 97.4638671875 -3.4990234375 95 -1.03515625 95 2 c 2
 95 13.7685546875 l 1
 92.3134765625 45.1865234375 64.7001953125 66.748046875 33.9013671875 83.0869140625 c 1
 33.5380859375 75.9130859375 33.5263671875 68.427734375 33.5166015625 60.7783203125 c 0
 33.4921875 39.9052734375 33.5849609375 17.65625 25.6298828125 -2.9833984375 c 0
 24.83984375 -5.0390625 22.8388671875 -6.5029296875 20.4990234375 -6.5029296875 c 0
 17.462890625 -6.5029296875 14.998046875 -4.0380859375 14.998046875 -1.001953125 c 0
 14.998046875 -0.3056640625 15.1279296875 0.3603515625 15.3681640625 0.9833984375 c 0
 22.3486328125 19.095703125 22.494140625 39.837890625 22.51953125 60.791015625 c 0
 22.529296875 68.900390625 22.53515625 77.01953125 22.9912109375 85.0078125 c 0
 22.7841796875 88.7216796875 22.7841796875 88.7216796875 22.1015625 89.052734375 c 0
 21.650390625 89.2705078125 19.00390625 90.69140625 19.00390625 93.994140625 c 0
 19.00390625 95.9775390625 20.06640625 97.8447265625 21.8740234375 98.8310546875 c 0
 19.4853515625 121.85546875 10.9765625 167.663085938 11 183.053710938 c 0
 11.0302734375 186.314453125 13.8525390625 188.715820312 16.9140625 188.48828125 c 0
 19.0009765625 188.333007812 20.4619140625 188.271484375 21.56640625 188.271484375 c 0
 25.4326171875 188.271484375 26 189.189453125 31.9404296875 189.189453125 c 0
 35.38671875 189.189453125 42.9267578125 188.682617188 44.3408203125 188.18359375 c 0
 47.841796875 186.950195312 52.4423828125 185.845703125 57.4189453125 184.669921875 c 0
 73.796875 180.802734375 100.998046875 174.379882812 100.998046875 149.998046875 c 0
EndSplineSet
EndChar

StartChar: semicolon
Encoding: 59 59 74
Width: 56
Flags: HW
LayerCount: 2
Fore
SplineSet
36 134.999023438 m 2
 36 132.5625 34.24609375 129.5078125 30.169921875 129.5078125 c 0
 25.775390625 129.5078125 23.9423828125 133.283203125 23.9423828125 135.596679688 c 0
 23.9423828125 135.896484375 23.9716796875 136.0703125 23.9716796875 136.0703125 c 2
 23.9638671875 136.249023438 23.9599609375 136.413085938 23.9599609375 136.569335938 c 0
 23.9599609375 136.586914062 23.9599609375 137.057617188 24.001953125 137.478515625 c 2
 24.001953125 138 l 2
 24.001953125 141.03515625 26.4658203125 143.499023438 29.5009765625 143.499023438 c 0
 34.615234375 143.499023438 36 136.921875 36 136 c 2
 36 134.999023438 l 2
22.560546875 97.5458984375 m 0
 22.560546875 101.8046875 25.955078125 104.514648438 29.8232421875 104.514648438 c 0
 34.845703125 104.514648438 38.1201171875 100.161132812 39.2890625 97.609375 c 1
 41.1435546875 96.8681640625 44.009765625 95.7216796875 44.009765625 91.99609375 c 0
 44.009765625 89.5927734375 42.4638671875 87.546875 40.314453125 86.798828125 c 0
 40.2080078125 70.9638671875 31.775390625 55.6123046875 22.4140625 46.1357421875 c 0
 21.4150390625 45.126953125 20.0302734375 44.5 18.5 44.5 c 0
 15.46484375 44.5 13 46.96484375 13 50 c 0
 13 51.505859375 13.6064453125 52.87109375 14.587890625 53.8642578125 c 0
 22.4453125 61.8193359375 29.2958984375 75.2451171875 29.2958984375 87.3994140625 c 0
 29.2958984375 88.203125 29.265625 89.0009765625 29.2041015625 89.791015625 c 0
 25.392578125 91.314453125 22.560546875 92.4462890625 22.560546875 97.5458984375 c 0
EndSplineSet
EndChar

StartChar: at
Encoding: 64 64 75
Width: 200
Flags: HW
LayerCount: 2
Fore
SplineSet
67.833984375 100.473632812 m 0
 67.833984375 93.62890625 72.1318359375 69.9033203125 81.8271484375 69.9033203125 c 0
 82.0380859375 69.9033203125 93.3310546875 70.56640625 101.157226562 78.392578125 c 0
 111.40234375 88.6376953125 113.50390625 108.059570312 114.560546875 127.543945312 c 1
 110.09765625 130.87890625 105.927734375 133.083984375 101.598632812 133.083984375 c 0
 98.771484375 133.083984375 99.259765625 132.504882812 96.439453125 132.504882812 c 0
 78.5400390625 132.504882812 67.833984375 116.500976562 67.833984375 100.473632812 c 0
127.518554688 153.005859375 m 0
 127.518554688 152.2421875 127.404296875 152.106445312 127.081054688 149.552734375 c 0
 127.80078125 143.556640625 127.96875 137.1875 128.04296875 130.73828125 c 0
 129.934570312 129.118164062 131.70703125 127.61328125 133.31640625 126.404296875 c 0
 134.698242188 125.3671875 135.517578125 123.7265625 135.517578125 122 c 2
 135.517578125 121 l 2
 135.517578125 117.96484375 133.053710938 115.500976562 130.018554688 115.500976562 c 0
 129.408203125 115.500976562 128.8203125 115.600585938 128.271484375 115.78515625 c 1
 129.064453125 90.96484375 133.130859375 76.7265625 147.904296875 71.5068359375 c 1
 166.481445312 71.8916015625 183.034179688 86.392578125 183.034179688 103.918945312 c 0
 183.034179688 110.055664062 181.5234375 111.059570312 181.5234375 114.854492188 c 0
 181.5234375 152.888671875 150.961914062 179.508789062 116.209960938 179.508789062 c 0
 109.297851562 179.508789062 105.159179688 178.500976562 104.012695312 178.500976562 c 0
 103.78125 178.500976562 102.942382812 178.541015625 101.526367188 178.541015625 c 0
 63.2099609375 178.541015625 18.9921875 147.665039062 18.9921875 106.833007812 c 0
 18.9921875 99.0400390625 20.5185546875 94.4697265625 20.5185546875 92.9921875 c 0
 20.5185546875 92.498046875 20.29296875 90.05859375 20.29296875 86.2548828125 c 0
 20.29296875 37.7265625 57.93359375 2.01171875 105.536132812 2.01171875 c 0
 115.380859375 2.01171875 121.77734375 3.4990234375 123.025390625 3.4990234375 c 0
 123.036132812 3.4990234375 123.673828125 3.4833984375 124.09765625 3.4833984375 c 0
 143.819335938 3.4833984375 161.037109375 22.5634765625 180.642578125 31.9609375 c 0
 181.361328125 32.3056640625 182.166015625 32.4990234375 183.015625 32.4990234375 c 0
 186.051757812 32.4990234375 188.516601562 30.0341796875 188.516601562 26.998046875 c 0
 188.516601562 24.8115234375 187.23828125 22.9208984375 185.3984375 22.0400390625 c 0
 166.080078125 12.779296875 148.532226562 -7.515625 124.155273438 -7.515625 c 0
 123.909179688 -7.515625 123.661132812 -7.513671875 123.413085938 -7.509765625 c 0
 117.368164062 -8.501953125 111.407226562 -8.9814453125 105.572265625 -8.9814453125 c 0
 51.765625 -8.9814453125 9.2958984375 31.7353515625 9.2958984375 86.287109375 c 0
 9.2958984375 88.3671875 9.357421875 90.4677734375 9.4833984375 92.5859375 c 0
 8.4755859375 97.408203125 8 102.143554688 8 106.768554688 c 0
 8 153.5546875 56.599609375 189.541015625 101.466796875 189.541015625 c 0
 102.196289062 189.541015625 102.92578125 189.53125 103.654296875 189.51171875 c 0
 107.875976562 190.182617188 112.077148438 190.508789062 116.224609375 190.508789062 c 0
 157.077148438 190.508789062 192.522460938 158.9453125 192.522460938 114.772460938 c 1
 193.543945312 111.125976562 194.021484375 107.517578125 194.021484375 103.999023438 c 0
 194.021484375 80.2412109375 172.362304688 60.4990234375 147.158203125 60.4990234375 c 0
 146.762695312 60.4990234375 126.912109375 63.2421875 120.100585938 89.3310546875 c 1
 109.9453125 59.53125 84.076171875 58.9775390625 82.1669921875 58.9775390625 c 0
 60.033203125 58.9775390625 56.7998046875 94.541015625 56.7998046875 100.685546875 c 0
 56.7998046875 123.122070312 72.869140625 143.45703125 96.3798828125 143.502929688 c 0
 98.2578125 143.928710938 100.071289062 144.122070312 101.822265625 144.122070312 c 0
 106.793945312 144.122070312 111.254882812 142.56640625 115.228515625 140.366210938 c 1
 115.421875 143.509765625 115.66015625 146.5703125 115.995117188 149.5078125 c 0
 115.989257812 149.551757812 115.340820312 153.33203125 115.340820312 153.956054688 c 0
 115.340820312 155.059570312 115.561523438 155.732421875 115.561523438 156.358398438 c 0
 115.561523438 156.4453125 115.560546875 156.537109375 115.560546875 156.6328125 c 0
 115.560546875 158.764648438 117.6015625 161.842773438 121.608398438 161.842773438 c 0
 127.487304688 161.842773438 127.518554688 155.586914062 127.518554688 153.005859375 c 0
EndSplineSet
EndChar

StartChar: colon
Encoding: 58 58 76
Width: 47
Flags: HW
LayerCount: 2
Fore
SplineSet
30.7607421875 140.462890625 m 0
 31.1015625 139.551757812 32.08984375 136.782226562 32.08984375 135.333984375 c 0
 32.08984375 132.517578125 29.5126953125 129.31640625 26.0126953125 129.31640625 c 0
 21.875 129.31640625 17.3125 132.276367188 17.3125 137.606445312 c 0
 17.3125 137.96875 17.3369140625 138.334960938 17.388671875 138.701171875 c 0
 17.2041015625 139.627929688 17.13671875 140.2265625 17.13671875 140.693359375 c 0
 17.13671875 143.668945312 19.603515625 146.504882812 23.185546875 146.504882812 c 0
 23.2607421875 146.504882812 23.333984375 146.50390625 23.4052734375 146.500976562 c 0
 23.9453125 146.682617188 24.4658203125 146.755859375 24.9521484375 146.755859375 c 0
 26.85546875 146.755859375 28.240234375 145.646484375 28.240234375 145.646484375 c 2
 28.7802734375 145.303710938 30.7880859375 143.838867188 30.7880859375 141.010742188 c 0
 30.7880859375 140.827148438 30.779296875 140.64453125 30.7607421875 140.462890625 c 0
22.302734375 87.4990234375 m 0
 24.3623046875 87.4990234375 26.259765625 86.34375 27.203125 84.5009765625 c 0
 30.33203125 84.501953125 32.796875 82.037109375 32.796875 79.001953125 c 0
 32.796875 78.5693359375 32.74609375 78.1484375 32.65234375 77.744140625 c 0
 32.8173828125 77.2734375 33.1650390625 76.2099609375 33.1650390625 74.8818359375 c 0
 33.1650390625 70.59375 29.556640625 67.4130859375 24.6552734375 67.4130859375 c 0
 23.1630859375 67.4130859375 16 67.95703125 16 78.388671875 c 0
 16 82.4033203125 17.037109375 87.4990234375 22.302734375 87.4990234375 c 0
EndSplineSet
EndChar

StartChar: asciitilde
Encoding: 126 126 77
Width: 114
Flags: HW
LayerCount: 2
Fore
SplineSet
39.3662109375 124.500976562 m 0
 63.6865234375 124.500976562 64.9892578125 89.4951171875 79.546875 89.4951171875 c 0
 82.50390625 89.4951171875 89.25 89.4951171875 89.6416015625 110.620117188 c 1
 87.646484375 123.5859375 87.646484375 123.5859375 87.646484375 124.010742188 c 0
 87.646484375 127.045898438 90.1103515625 129.510742188 93.1455078125 129.510742188 c 0
 95.8955078125 129.510742188 98.17578125 127.489257812 98.58203125 124.841796875 c 0
 100.646484375 111.42578125 100.646484375 111.42578125 100.645507812 110.927734375 c 0
 100.53515625 102.421875 100.224609375 78.498046875 79.4814453125 78.498046875 c 0
 66.5078125 78.498046875 59.3369140625 91.208984375 54.966796875 98.9560546875 c 0
 49.4287109375 108.7734375 46.146484375 113.3984375 39.6376953125 113.500976562 c 0
 33.9501953125 112.263671875 32.97265625 97.318359375 32.63671875 91.6748046875 c 0
 32.6259765625 91.4912109375 32.60546875 91.30859375 32.576171875 91.126953125 c 0
 32.7734375 90.6513671875 32.8212890625 90.2763671875 32.8212890625 90.02734375 c 0
 32.8212890625 89.8017578125 32.7822265625 89.6796875 32.7822265625 89.6796875 c 2
 32.8232421875 89.3125 32.833984375 89.0478515625 32.833984375 88.80859375 c 0
 32.833984375 86.912109375 32.833984375 84.0078125 31.146484375 82.21875 c 0
 30.0087890625 76.640625 26.1484375 54.0625 25.748046875 52.7880859375 c 1
 25.748046875 52.7880859375 26.3369140625 53.1826171875 26.54296875 53.1826171875 c 0
 26.5869140625 53.1826171875 26.6142578125 53.1650390625 26.6142578125 53.1220703125 c 0
 26.6142578125 53.0458984375 24.34375 49.07421875 20.1845703125 49.07421875 c 0
 20.109375 49.07421875 15.0400390625 49.126953125 15 54.5693359375 c 0
 15.02734375 55.7626953125 21.6513671875 92.216796875 21.6953125 92.9560546875 c 0
 22.3359375 103.853515625 23.4130859375 122.143554688 38.3056640625 124.434570312 c 0
 38.720703125 124.498046875 39.01953125 124.500976562 39.3662109375 124.500976562 c 0
EndSplineSet
EndChar

StartChar: slash
Encoding: 47 47 78
Width: 108
Flags: HW
LayerCount: 2
Fore
SplineSet
89.5107421875 181.319335938 m 2
 90.0830078125 182.55078125 92.626953125 187.509765625 96.5048828125 187.509765625 c 0
 99.541015625 187.509765625 102.005859375 185.044921875 102.005859375 182.008789062 c 0
 102.005859375 180.342773438 101.84375 180.100585938 99.310546875 176.30078125 c 2
 14.4873046875 -6.3193359375 l 2
 13.619140625 -8.1923828125 11.7109375 -9.4990234375 9.5009765625 -9.4990234375 c 0
 6.46484375 -9.4990234375 4 -7.033203125 4 -3.998046875 c 0
 4 -3.171875 4.1826171875 -2.388671875 4.5087890625 -1.6845703125 c 2
 89.5107421875 181.319335938 l 2
EndSplineSet
EndChar

StartChar: backslash
Encoding: 92 92 79
Width: 85
Flags: HW
LayerCount: 2
Fore
SplineSet
8 182.006835938 m 0
 8 185.04296875 10.46484375 187.506835938 13.5 187.506835938 c 0
 15.9287109375 187.506835938 17.9921875 185.930664062 18.7197265625 183.745117188 c 0
 76.7998046875 9.5068359375 76.7998046875 9.5068359375 76.857421875 9.2626953125 c 2
 80.8564453125 -7.7333984375 l 1
 80.8564453125 -7.7470703125 l 2
 80.951171875 -8.15234375 81.0048828125 -8.5751953125 81.0048828125 -9.009765625 c 0
 81.0048828125 -12.044921875 78.541015625 -14.509765625 75.5048828125 -14.509765625 c 0
 72.904296875 -14.509765625 70.72265625 -12.7001953125 70.1513671875 -10.2666015625 c 2
 66.208984375 6.4912109375 l 1
 8 181.1171875 8 181.1171875 8 182.006835938 c 0
EndSplineSet
EndChar

StartChar: acute
Encoding: 171 180 80
Width: 75
Flags: HW
LayerCount: 2
Fore
SplineSet
20.4990234375 158.500976562 m 2
 17.4638671875 158.500976562 15 160.96484375 15 164 c 0
 15 167.03515625 17.4638671875 169.499023438 20.4990234375 169.499023438 c 2
 21.35546875 169.499023438 l 1
 46.10546875 180.12890625 46.10546875 180.12890625 55.0673828125 187.298828125 c 0
 56.0087890625 188.051757812 57.2021484375 188.501953125 58.4990234375 188.501953125 c 0
 61.53515625 188.501953125 64 186.037109375 64 183.001953125 c 0
 64 178.375976562 55.3037109375 171.653320312 31.7509765625 161.923828125 c 0
 23.466796875 158.500976562 23.466796875 158.500976562 22.4990234375 158.500976562 c 2
 20.4990234375 158.500976562 l 2
EndSplineSet
EndChar

StartChar: macron
Encoding: 248 175 81
Width: 87
Flags: HW
LayerCount: 2
Fore
SplineSet
27.9580078125 179.500976562 m 1
 21.9501953125 178.5 21.9501953125 178.5 21.4990234375 178.5 c 0
 18.4638671875 178.5 16 180.963867188 16 183.999023438 c 0
 16 188.658203125 18.716796875 189.111328125 26.58984375 190.423828125 c 0
 26.892578125 190.473632812 27.19921875 190.499023438 27.5068359375 190.499023438 c 2
 67.5 190.499023438 l 2
 70.53515625 190.499023438 72.9990234375 188.03515625 72.9990234375 185 c 0
 72.9990234375 181.96484375 70.53515625 179.500976562 67.5 179.500976562 c 2
 27.9580078125 179.500976562 l 1
EndSplineSet
EndChar

StartChar: degree
Encoding: 161 176 82
Width: 82
Flags: HW
LayerCount: 2
Fore
SplineSet
44.5322265625 194.575195312 m 0
 57.6640625 194.575195312 71.3857421875 186.90234375 71.3857421875 173.376953125 c 0
 71.3857421875 171.2109375 71.0205078125 168.939453125 70.232421875 166.607421875 c 0
 70.5107421875 165.146484375 70.6416015625 163.6953125 70.6416015625 162.264648438 c 0
 70.6416015625 145.53515625 53.77734375 133.500976562 43.5048828125 133.500976562 c 0
 40.9111328125 133.500976562 19.8369140625 137.163085938 13.3310546875 155.106445312 c 0
 13.111328125 155.712890625 13 156.353515625 13 156.997070312 c 0
 13 159.849609375 15.625 180.194335938 33.0107421875 188.483398438 c 0
 33.3525390625 192.381835938 35.7001953125 192.969726562 41.15234375 194.333007812 c 0
 41.564453125 194.436523438 42.484375 194.575195312 44.5322265625 194.575195312 c 0
43.6396484375 144.553710938 m 0
 51.3623046875 145.686523438 59.6162109375 153.853515625 59.6162109375 162.372070312 c 0
 59.6162109375 164.85546875 59 165.5234375 59 167.00390625 c 0
 59 169.225585938 60.5234375 170.66015625 60.5234375 173.65234375 c 0
 60.5234375 174.919921875 59.9208984375 180.296875 49.98828125 182.815429688 c 0
 48.5703125 180.828125 46.1748046875 180.349609375 45.42578125 180.349609375 c 0
 45.126953125 180.349609375 44.8623046875 180.383789062 44.5498046875 180.390625 c 0
 44.3984375 180.390625 44.24609375 180.395507812 44.0419921875 180.415039062 c 0
 41.0673828125 180.016601562 26.9833984375 177.114257812 24.1337890625 157.723632812 c 0
 25.2109375 155.296875 29.83203125 147.0390625 43.6396484375 144.553710938 c 0
EndSplineSet
EndChar

StartChar: cedilla
Encoding: 252 184 83
Width: 67
Flags: HW
LayerCount: 2
Fore
SplineSet
28.5068359375 -21.4990234375 m 0
 25.4775390625 -21.4990234375 23.0078125 -19.0400390625 23.0078125 -15.998046875 c 0
 23.0078125 -14.8095703125 23.38671875 -13.7080078125 24.029296875 -12.806640625 c 2
 24.029296875 -12.806640625 34.029296875 1.193359375 34.03515625 1.201171875 c 0
 35.02734375 2.587890625 36.6630859375 3.5 38.5087890625 3.5 c 0
 41.544921875 3.5 44.009765625 1.03515625 44.009765625 -2.0009765625 c 0
 44.009765625 -3.7626953125 43.80859375 -4.0439453125 41.091796875 -7.84765625 c 1
 49.232421875 -10.1904296875 54.041015625 -20.5166015625 54.041015625 -29.8310546875 c 0
 54.041015625 -34.7119140625 50.0576171875 -42.5947265625 35.1123046875 -42.5947265625 c 0
 25.923828125 -42.5947265625 24.59375 -42.04296875 15.689453125 -36.7236328125 c 1
 15.689453125 -36.7216796875 l 1
 14.0810546875 -35.7607421875 13 -34.0029296875 13 -31.9951171875 c 0
 13 -28.958984375 15.46484375 -26.494140625 18.5009765625 -26.494140625 c 0
 22.8759765625 -26.494140625 24.73828125 -31.52734375 32.1484375 -31.52734375 c 0
 34 -31.52734375 41.3486328125 -31.4384765625 43.021484375 -29.5390625 c 0
 42.7783203125 -24.3984375 39.7529296875 -18.35546875 37.900390625 -18.35546875 c 0
 37.654296875 -18.35546875 37.283203125 -18.5 36.5166015625 -18.5 c 0
 35.8505859375 -18.5 35.8505859375 -18.5 34.4501953125 -18.1318359375 c 1
 31.6298828125 -20.8310546875 30.3408203125 -21.4990234375 28.5068359375 -21.4990234375 c 0
EndSplineSet
EndChar

StartChar: dieresis
Encoding: 172 168 84
Width: 76
Flags: HW
LayerCount: 2
Fore
SplineSet
16 191 m 2
 16 194.03515625 18.4638671875 196.499023438 21.4990234375 196.499023438 c 0
 24.5341796875 196.499023438 26.998046875 194.03515625 26.998046875 191 c 2
 26.998046875 189 l 2
 26.998046875 185.96484375 24.5341796875 183.500976562 21.4990234375 183.500976562 c 0
 18.4638671875 183.500976562 16 185.96484375 16 189 c 2
 16 191 l 2
53.4892578125 182.5 m 0
 53.3818359375 182.5 45.7333984375 183.294921875 45.7333984375 189.938476562 c 0
 45.7333984375 193.849609375 48.6201171875 197.087890625 52.8974609375 197.104492188 c 0
 53.4775390625 197.104492188 54.2744140625 197.049804688 55.14453125 196.724609375 c 0
 55.30078125 196.73046875 55.4609375 196.733398438 55.623046875 196.733398438 c 0
 57.259765625 196.733398438 62.9990234375 196.352539062 62.9990234375 191.000976562 c 0
 62.9990234375 186.510742188 58.828125 186.078125 58.0771484375 184.952148438 c 0
 57.017578125 183.36328125 55.2705078125 182.5 53.4892578125 182.5 c 0
EndSplineSet
EndChar

StartChar: less
Encoding: 60 60 85
Width: 117
Flags: HW
LayerCount: 2
Fore
SplineSet
102.50390625 176.500976562 m 0
 105.5390625 176.500976562 108.00390625 174.037109375 108.00390625 171.000976562 c 0
 108.00390625 169.44140625 107.352539062 168.032226562 106.305664062 167.028320312 c 0
 82.77734375 144.470703125 54.3046875 123.622070312 22.9658203125 107.940429688 c 1
 44.4423828125 91.9140625 63.1318359375 80.2705078125 99.412109375 57.6669921875 c 0
 100.971679688 56.6962890625 102.009765625 54.9658203125 102.009765625 52.9951171875 c 0
 102.009765625 49.958984375 99.544921875 47.494140625 96.5087890625 47.494140625 c 0
 94.9443359375 47.494140625 94.9443359375 47.494140625 86.32421875 52.8515625 c 0
 61.1875 68.4755859375 33.4931640625 85.6708984375 9.1240234375 104.65234375 c 0
 8.5341796875 105.112304688 7 106.543945312 7 108.99609375 c 0
 7 109.509765625 7.1298828125 112.572265625 10.1826171875 113.98828125 c 0
 43.4921875 129.44921875 73.9716796875 151.267578125 98.6953125 174.971679688 c 0
 99.6865234375 175.918945312 101.02734375 176.500976562 102.50390625 176.500976562 c 0
EndSplineSet
EndChar

StartChar: greater
Encoding: 62 62 86
Width: 118
Flags: HW
LayerCount: 2
Fore
SplineSet
26.4365234375 48.978515625 m 1
 19.4443359375 38.490234375 19.4443359375 38.490234375 16.5009765625 38.490234375 c 0
 13.46484375 38.490234375 11 40.955078125 11 43.9912109375 c 0
 11 46.7392578125 18.26953125 56.83203125 19.5751953125 57.654296875 c 0
 27.201171875 62.4638671875 34.6845703125 67.8505859375 42.2734375 73.3173828125 c 0
 57.7001953125 84.431640625 73.6220703125 95.9912109375 92.3056640625 103.217773438 c 1
 64.998046875 119.364257812 40.998046875 146.10546875 14.7587890625 161.234375 c 0
 13.1220703125 162.177734375 12.009765625 163.958984375 12.009765625 165.997070312 c 0
 12.009765625 169.033203125 14.474609375 171.498046875 17.5107421875 171.498046875 c 0
 22.6357421875 171.498046875 43.765625 154.758789062 60.3603515625 140.913085938 c 0
 76.3984375 127.53125 92.1513671875 114.493164062 108.766601562 107.014648438 c 0
 109.1875 106.826171875 112.00390625 105.430664062 112.00390625 102.00390625 c 0
 112.00390625 99.447265625 110.260742188 97.2802734375 107.864257812 96.6728515625 c 0
 85.9951171875 91.1298828125 67.6064453125 78.009765625 48.6953125 64.3857421875 c 0
 41.4228515625 59.146484375 34.0849609375 53.85546875 26.4365234375 48.978515625 c 1
EndSplineSet
EndChar

StartChar: equal
Encoding: 61 61 87
Width: 149
Flags: HW
LayerCount: 2
Fore
SplineSet
24.5 144.500976562 m 0
 21.46484375 144.500976562 19.0009765625 146.96484375 19.0009765625 150 c 0
 19.0009765625 152.912109375 21.2705078125 155.298828125 24.1357421875 155.487304688 c 0
 85.255859375 159.495117188 85.255859375 159.495117188 85.376953125 159.498046875 c 0
 130.438476562 160.499023438 130.438476562 160.499023438 130.500976562 160.499023438 c 0
 133.536132812 160.499023438 136 158.03515625 136 155 c 0
 136 152.006835938 133.602539062 149.568359375 130.62109375 149.502929688 c 0
 81.021484375 149.265625 28.3447265625 144.500976562 24.5 144.500976562 c 0
35.57421875 65.5048828125 m 0
 25.056640625 65.5048828125 18.669921875 64.5 18.4990234375 64.5 c 0
 15.4638671875 64.5 13 66.96484375 13 70 c 0
 13 72.8125 15.1162109375 75.134765625 17.8427734375 75.4599609375 c 0
 23.5380859375 76.138671875 27.572265625 76.5029296875 35.591796875 76.5029296875 c 0
 54.1982421875 76.5029296875 72.7763671875 73.486328125 92.3349609375 73.486328125 c 0
 93.0341796875 73.486328125 93.7333984375 73.490234375 94.498046875 73.4990234375 c 0
 94.9599609375 73.4990234375 94.9599609375 73.4990234375 125.408203125 68.423828125 c 0
 128.010742188 67.990234375 129.998046875 65.724609375 129.998046875 62.9990234375 c 0
 129.998046875 59.9638671875 127.534179688 57.5 124.499023438 57.5 c 0
 124.047851562 57.5 124.047851562 57.5 94.0673828125 62.49609375 c 0
 93.4814453125 62.4912109375 92.8955078125 62.48828125 92.3125 62.48828125 c 0
 72.1962890625 62.48828125 53.54296875 65.5048828125 35.57421875 65.5048828125 c 0
EndSplineSet
EndChar

